<?xml version="1.0" encoding="UTF-8"?>
<svg width="205.76mm" height="220.83mm" version="1.1" viewBox="0 0 205.76 220.83" xmlns="http://www.w3.org/2000/svg">
<defs>
<filter id="b" x="-.036025" y="-.10012" width="1.0721" height="1.2211" color-interpolation-filters="sRGB">
<feFlood flood-color="rgb(0,0,0)" flood-opacity=".49804" result="flood"/>
<feComposite in="flood" in2="SourceGraphic" operator="in" result="composite1"/>
<feGaussianBlur in="composite1" result="blur" stdDeviation="2"/>
<feOffset dx="4.57967e-15" dy="1" result="offset"/>
<feComposite in="SourceGraphic" in2="offset" result="composite2"/>
</filter>
<filter id="a" x="-.054507" y="-.13837" width="1.109" height="1.3262" color-interpolation-filters="sRGB">
<feFlood flood-color="rgb(0,0,0)" flood-opacity=".49804" result="flood"/>
<feComposite in="flood" in2="SourceGraphic" operator="in" result="composite1"/>
<feGaussianBlur in="composite1" result="blur" stdDeviation="3.5"/>
<feOffset dx="4.57967e-15" dy="3" result="offset"/>
<feComposite in="SourceGraphic" in2="offset" result="composite2"/>
</filter>
<filter id="e" x="-.22161" y="-.21567" width="1.4432" height="1.5084" color-interpolation-filters="sRGB">
<feFlood flood-color="rgb(0,0,0)" flood-opacity=".49804" result="flood"/>
<feComposite in="flood" in2="SourceGraphic" operator="in" result="composite1"/>
<feGaussianBlur in="composite1" result="blur" stdDeviation="3.5"/>
<feOffset dx="4.57967e-15" dy="3" result="offset"/>
<feComposite in="SourceGraphic" in2="offset" result="composite2"/>
</filter>
<filter id="d" x="-.057685" y="-.057264" width="1.1154" height="1.1145" color-interpolation-filters="sRGB">
<feFlood flood-color="rgb(51,51,51)" flood-opacity=".6" result="flood"/>
<feComposite in="flood" in2="SourceGraphic" operator="in" result="composite1"/>
<feGaussianBlur in="composite1" result="blur" stdDeviation="3"/>
<feOffset dx="4.57967e-15" dy="8.57647e-15" result="offset"/>
<feComposite in="SourceGraphic" in2="offset" result="composite2"/>
</filter>
<filter id="c" x="-.058333" y="-.083736" width="1.1167" height="1.1675" color-interpolation-filters="sRGB">
<feFlood flood-color="rgb(51,51,51)" flood-opacity=".6" result="flood"/>
<feComposite in="flood" in2="SourceGraphic" operator="in" result="composite1"/>
<feGaussianBlur in="composite1" result="blur" stdDeviation="3"/>
<feOffset dx="4.57967e-15" dy="8.57647e-15" result="offset"/>
<feComposite in="SourceGraphic" in2="offset" result="composite2"/>
</filter>
</defs>
<g transform="translate(-22.312 -25.349)">
<path d="m203.74 128.95a62.408 62.867 0 0 1-62.389 62.867 62.408 62.867 0 0 1-62.427-62.829 62.408 62.867 0 0 1 62.351-62.905 62.408 62.867 0 0 1 62.465 62.79" fill="#f6e1c2" fill-opacity=".9759" filter="url(#d)"/>
<circle cx="124.55" cy="125.92" r="5" fill-opacity=".9759"/>
<circle cx="159.31" cy="125.68" r="5" fill-opacity=".9759"/>
<circle cx="126.12" cy="126.81" r="2.5" fill="#fff"/>
<circle cx="158.49" cy="126.9" r="2.5" fill="#fff"/>
<ellipse cx="141.86" cy="169.99" rx="27.063" ry="16.777" fill="#913333"/>
<path d="m141.91 153.19a27.063 16.777 0 0 0-27.063 16.778 27.063 16.777 0 0 0 16.016 15.313 10.086 4.9933 0 0 1 9.8495-3.929 10.086 4.9933 0 0 1 10.03 4.4736 27.063 16.777 0 0 0 18.231-15.858 27.063 16.777 0 0 0-27.063-16.778z" fill-opacity=".97647"/>
<path d="m88.14 153a9.2921 15.1 0 0 0-9.2925 15.1 9.2921 15.1 0 0 0 3.267 11.485 22.998 29.83 0 0 0-0.66611 7.0559 22.998 29.83 0 0 0 20.081 29.575 39.08 25.249 0 0 0 38.868 22.769 39.08 25.249 0 0 0 39.024-24.203 22.998 28.281 0 0 0 20.086-28.041 22.998 28.281 0 0 0-0.55449-6.1733 9.2921 15.1 0 0 0 3.3238-11.565 9.2921 15.1 0 0 0-9.2925-15.099 9.2921 15.1 0 0 0-7.7117 6.6906 22.998 28.281 0 0 0-8.7628-2.1337 22.998 28.281 0 0 0-22.939 26.271c-8.1074 2.7803-16.717 3.1496-26.222-0.77722a22.998 29.83 0 0 0-22.902-27.144 22.998 29.83 0 0 0-8.8356 2.3099 9.2921 15.1 0 0 0-7.4703-6.1206z" fill="#fff" filter="url(#c)"/>
<path d="m138.59 139.75c-3.8576-0.0379-9.3256 2.9512-16.873 9.849-7.875 5.2013-19.031 6.8314-38.661-0.76687-8.2874-3.2078-11.176-0.29881-6.103 6.9975 14.313 20.585 43.537 53.027 63.9 11.4 20.561 42.459 50.248 8.8965 64.442-11.695 4.8223-6.9962 2.0591-9.7872-5.8472-6.674-20.04 7.8909-31.355 6.2834-39.318 1.0242-8.9577-8.1864-14.985-10.865-18.869-9.5147-0.7887-0.39731-1.6758-0.61034-2.6706-0.62012z" fill="#fff" filter="url(#b)"/>
<circle cx="141.34" cy="142.7" r="13.28" fill="#eed0a0" fill-opacity=".97647"/>
</g>
<g transform="translate(-22.312 -25.349)">
<path d="m119.24 25.353c-1.5142 0.01353-2.3094 0.05687-2.3942 0.0615l2e-3 -0.0021s-0.0489 0.0035-0.0512 0.0036c-8.1e-4 4.5e-5 -0.0362 0.0016-0.0362 0.0016l2e-3 1e-3c-0.94 0.04602-69.984 3.7579-76.939 102l0.35967-0.47645 10.64 0.25941c9.2044-56.805 61.538-28.402 61.538-28.402l94.064 13.663 0.46147 0.44803c9.5613-84.466-72.227-87.691-87.647-87.553z" fill="#800000"/>
<path d="m80.273 94.061c-0.26298-29.191 22.88-36.292 22.88-36.292" fill="none" stroke="#6a0b0b" stroke-linejoin="round" stroke-width="2.6458"/>
<path d="m102.47 59.051c-0.18931-4.965-0.18931-5.296-0.18931-5.296" fill="none" stroke="#6a0b0b" stroke-linejoin="round" stroke-width="2.5185"/>
<path d="m128.46 62.867c-0.12741 0.0323-1.4758 3.0931-1.5916 3.1288-0.1158 0.03568-2.8467-1.4662-2.96-1.4089-0.0857 0.04335-1.1892 1.6386-1.7684 2.4446-1.2292 0.2199-2.4578 0.46711-3.6856 0.73978-0.78914-0.59366-1.632-1.2312-1.6976-1.2476-0.12063-0.03022-0.94613 1.0325-1.0759 1.0294-0.12978-0.0031-2.7704-0.13589-2.899-0.1233-0.12867 0.01259-0.89804 0.89023-1.0351 0.88856-0.13704-0.0016-0.75264-2.1137-0.88005-2.0814-0.12741 0.0323-1.4753 3.0931-1.5911 3.1288-0.1158 0.0357-2.8467-1.4662-2.96-1.4089-0.11329 0.05733-2.0116 2.8354-2.1151 2.9018-0.10358 0.0664-0.37402 0.32966-0.46354 0.41043-0.0895 0.0808-1.4408-0.25809-1.5301-0.18934-0.0893 0.0687-1.9386 1.5773-1.9937 1.6714-0.0211 0.036 0.29952 0.37986 0.69918 0.79452-0.49069 0.21575-0.98103 0.43583-1.4712 0.66079-0.5092-0.0226-0.96164-0.0412-1.0113-0.0364-0.12867 0.0126-0.89804 0.89022-1.0351 0.88856-0.13704-2e-3 -0.75263-2.1141-0.88004-2.0818-0.12742 0.0323-1.4753 3.0931-1.5911 3.1288-0.1158 0.0357-2.8467-1.4662-2.96-1.4089-0.11329 0.0573-2.0115 2.8354-2.1151 2.9018-0.10357 0.0664-0.37402 0.32966-0.46354 0.41042-0.08952 0.0808-1.4408-0.25809-1.5301-0.18932-0.08934 0.0687-1.9386 1.5773-1.9937 1.6714-0.03048 0.0521 0.64916 0.74385 1.2552 1.3688-0.37256 0.22622-0.7368 0.44683-1.1234 0.68378-0.22784-0.62054-0.50766-1.473-0.58911-1.4524-0.09584 0.0243-0.882 1.761-1.3152 2.636-0.19698 0.12232-0.39088 0.24258-0.58911 0.36613-0.73321-0.34577-2.5548-1.3291-2.6474-1.2823-0.11329 0.0573-2.011 2.8354-2.1146 2.9018-0.10358 0.0664-0.37454 0.32967-0.46406 0.41043-0.08952 0.0808-1.4408-0.25809-1.5301-0.18933-0.08934 0.0688-1.9386 1.5773-1.9937 1.6714-0.02953 0.0505 0.60825 0.70205 1.1994 1.3111-0.32773 0.21637-0.63122 0.41967-0.93948 0.62567-0.7411-0.37919-1.5057-0.76968-1.5648-0.73977-0.11329 0.0573-2.0115 2.8354-2.1151 2.9018-0.10358 0.0664-0.37402 0.32966-0.46354 0.41043-0.08952 0.0808-1.4413-0.25809-1.5307-0.18934-0.08934 0.0687-1.9386 1.5773-1.9937 1.6714-0.05085 0.0869 1.8812 1.9588 2.1306 2.3155-0.0074 0.0323-0.0162 0.0635-0.02325 0.0961-0.35661 0.21997-2.4811 1.2521-2.5135 1.3475-0.03499 0.10286 0.81518 0.15058 0.7829 0.25328-0.03228 0.10271-2.1425 2.5017-2.1565 2.6026-0.01392 0.10091 0.2374 1.3335 0.24805 1.4315 0.01064 0.098 0.97239 2.0595 1.0139 2.1529 0.0415 0.0933 2.481 0.30894 2.5373 0.4029 0.05631 0.094-1.7137 2.3442-1.6671 2.44 0.02559 0.0526 0.91913 0.38846 1.7477 0.70007-0.10674 0.0614-0.18623 0.11092-0.19172 0.12706-0.02676 0.0787 0.46146 0.12516 0.67954 0.18849 0.0098 0.0535 0.02298 0.10626 0.03307 0.15966-0.33027 0.4264-2.0729 2.4156-2.0857 2.5077-0.01392 0.1009 0.2374 1.3334 0.24805 1.4315 0.01064 0.098 0.97187 2.0591 1.0134 2.1525 0.0415 0.0933 2.481 0.30894 2.5373 0.4029 0.05631 0.094-1.7131 2.3442-1.6666 2.44 0.04657 0.0958 3.0223 1.1505 3.1058 1.2346 0.08344 0.0842-0.02702 2.0422 0.05219 2.1182 0.07921 0.0759 0.35195-0.17238 0.46199-0.12163 0.11004 0.0507 0.68316 1.6906 0.80719 1.7299 0.12403 0.0394 2.2381-1.9985 2.3595-1.9627 0.12143 0.0358 1.1872 3.5425 1.31 3.5794 0.1228 0.0369 4.1107-1.0355 4.2385-1.029 0.12782 6e-3 2.1536 1.529 2.2877 1.5268 0.13407-2e-3 1.5131-2.2787 1.6459-2.2925 0.13279-0.0138 0.76481-0.37948 0.88005-0.41587 0.11524-0.0364 0.0488 0.28719 0.16795 0.24075 0.11915-0.0464 4.4315-0.76432 4.5537-0.80791 0.12224-0.0436-1.3042-1.4871-1.217-1.5573 0.08725-0.0702 3.6912 0.80748 3.7956 0.7427 0.10442-0.0648 1.2787-3.3778 1.3601-3.4611 0.0814-0.0833 0.51167-0.42988 0.57-0.52286 0.0583-0.093-0.47785-1.1358-0.42117-1.2254 0.0332-0.0526 1.4039-0.47508 2.573-0.84343 0.19432 0.56924 0.35628 1.0202 0.39946 1.0332 0.12279 0.0369 4.1102-1.036 4.238-1.0294 0.12782 6e-3 2.1542 1.5294 2.2882 1.5272 0.13407-2e-3 1.5131-2.2791 1.6459-2.2929 0.13279-0.0138 0.76481-0.37947 0.88005-0.41586 0.11524-0.0364 0.0483 0.28719 0.16743 0.24075 0.11915-0.0464 4.432-0.76432 4.5542-0.80791 0.12225-0.0436-1.3047-1.4867-1.2175-1.5569 0.0873-0.0702 3.6917 0.80706 3.7962 0.74228 0.10442-0.0648 1.2782-3.3778 1.3596-3.4611 0.0687-0.0703 0.38442-0.32688 0.51676-0.46141 0.29277 0.71937 1.1093 3.3642 1.216 3.3963 0.12279 0.0369 4.1102-1.036 4.238-1.0294 0.12782 6e-3 2.1542 1.5294 2.2882 1.5272 0.13407-2e-3 1.5131-2.2792 1.6459-2.2929 0.13279-0.0138 0.76481-0.37948 0.88005-0.41586 0.11524-0.0364 0.0483 0.2876 0.16743 0.24115 0.11915-0.0464 4.432-0.76472 4.5542-0.80832 0.12225-0.0436-1.3047-1.4867-1.2175-1.5569 0.0872-0.0702 3.6917 0.80706 3.7962 0.74229 0.0376-0.0233 0.22601-0.50622 0.43976-1.0687 3e-3 0.17103 0.0102 0.29515 0.0284 0.31263 0.0792 0.0759 0.35195-0.17238 0.46199-0.12163 0.11004 0.0508 0.68316 1.691 0.80719 1.7303 0.12403 0.0394 2.2381-1.9989 2.3595-1.9631 0.12143 0.0357 1.1877 3.5429 1.3105 3.5798 0.12279 0.0369 4.1102-1.036 4.238-1.0294 0.12782 6e-3 2.1536 1.5294 2.2877 1.5272 0.13406-2e-3 1.5136-2.2787 1.6464-2.2925 0.13279-0.0138 0.76429-0.37948 0.87953-0.41587 0.11524-0.0364 0.0488 0.28718 0.16795 0.24074 0.092-0.0358 2.6674-0.46972 3.9-0.6867 0.30479 0.0505 0.61075 0.10253 0.91777 0.15548 0.67252 0.25292 1.3048 0.49029 1.342 0.52788 0.0834 0.0842-0.027 2.0418 0.0522 2.1178 0.0792 0.076 0.35195-0.17238 0.46199-0.12162 0.11004 0.0507 0.68316 1.691 0.80719 1.7303 0.12403 0.0394 2.2381-1.9985 2.3595-1.9627 0.12143 0.0358 1.1872 3.5425 1.31 3.5794 0.1228 0.0369 4.1107-1.0355 4.2385-1.029 0.12782 6e-3 2.1536 1.529 2.2877 1.5268 0.13406-2e-3 1.5131-2.2787 1.6459-2.2925 0.13279-0.0137 0.76481-0.37948 0.88005-0.41586 0.11524-0.0364 0.0483 0.28717 0.16743 0.24073 0.0186-7e-3 0.16293-0.0346 0.35347-0.0694 0.45609 0.22298 2.9523 1.1124 3.0288 1.1895 0.0834 0.0842-0.027 2.0418 0.0522 2.1178 0.0792 0.076 0.35194-0.17237 0.46199-0.12162 0.11004 0.0507 0.68315 1.6905 0.80718 1.7299 0.12403 0.0394 2.2381-1.9985 2.3596-1.9627 0.12143 0.0357 1.1877 3.5429 1.3105 3.5798 0.1228 0.0369 4.1102-1.036 4.238-1.0294 0.12781 6e-3 2.1536 1.5294 2.2877 1.5272 0.13407-2e-3 1.5136-2.2787 1.6464-2.2925 0.0441-5e-3 0.14867-0.0526 0.26562-0.10992 0.54518 0.17944 1.0995 0.36569 1.6495 0.54877-0.48719 0.66848-1.0815 1.4618-1.0542 1.518 0.0466 0.0958 3.0223 1.1505 3.1058 1.2346 0.0834 0.0842-0.0275 2.0418 0.0517 2.1178 0.0792 0.076 0.35246-0.17238 0.46251-0.12162 0.11004 0.0507 0.68316 1.691 0.80718 1.7303 0.12403 0.0394 2.2381-1.9985 2.3596-1.9627 0.12143 0.0357 1.1872 3.5425 1.31 3.5794 0.12279 0.0369 4.1102-1.0355 4.238-1.029 0.12782 6e-3 2.1542 1.529 2.2882 1.5268 0.13407-2e-3 1.5131-2.2787 1.6459-2.2925 0.13279-0.0138 0.76481-0.37947 0.88005-0.41586 0.11524-0.0364 0.0483 0.28718 0.16743 0.24074 0.11915-0.0464 4.432-0.76431 4.5542-0.80791s-1.3047-1.4871-1.2175-1.5573c0.0872-0.0702 3.6917 0.80747 3.7962 0.7427 0.10442-0.0648 1.2782-3.3782 1.3596-3.4615 0.0814-0.0833 0.51218-0.42946 0.57051-0.52244 0.0583-0.093-0.47836-1.1358-0.42168-1.2254 0.0567-0.0896 4.1201-1.2871 4.1605-1.3809 0.0404-0.0938-2.4025-2.6514-2.3771-2.7547 0.0254-0.10339 2.944-0.25345 2.9373-0.35651-7e-3 -0.10307-2.7652-2.2301-2.7673-2.3288-2e-3 -0.0987 1.523-1.1506 1.5058-1.2555-0.0157-0.0959-1.5189-1.0181-1.8273-1.2467 0.0296-0.0713 0.0631-0.15378 0.0713-0.16217 0.0814-0.0833 0.51218-0.42946 0.5705-0.52244 0.0583-0.093-0.47836-1.1358-0.42168-1.2254 0.0567-0.0896 4.1196-1.2871 4.16-1.3809 0.0404-0.0938-2.402-2.6513-2.3766-2.7547 0.0254-0.10338 2.944-0.25345 2.9373-0.35651-7e-3 -0.10306-2.7653-2.2301-2.7673-2.3288-2e-3 -0.0987 1.523-1.1506 1.5059-1.2555-0.0172-0.1049-1.8325-1.2093-1.895-1.3003-0.0625-0.0909-1.4446-0.12691-1.4955-0.219-0.0509-0.0921 0.29461-2.2203 0.22635-2.3029-0.0683-0.0827-1.8857-2.1165-1.9606-2.1984s-3.5174 0.45764-3.6241 0.39831c-0.10672-0.0593 2.4641-1.6834 2.3549-1.7303-0.10917-0.0469-3.6552 0.64244-3.7832 0.61397-0.12803-0.0285-2.9278-2.2004-3.0484-2.2306-8e-3 -2e-3 -0.0183 8.1e-4 -0.031 7e-3 -0.16445-0.13967-0.28642-0.24813-0.2868-0.26707-2e-3 -0.0987 1.523-1.1502 1.5058-1.2551-0.0172-0.1049-1.8325-1.2093-1.895-1.3003-0.0625-0.0909-1.4441-0.12691-1.495-0.219-0.0509-0.0921 0.29461-2.2203 0.22635-2.3029-0.0683-0.0827-1.8857-2.1165-1.9606-2.1984-0.0749-0.0819-3.5174 0.45763-3.6241 0.3983-0.10671-0.0594 2.4636-1.6834 2.3544-1.7303-0.10917-0.0469-3.6547 0.64244-3.7827 0.61397-0.12803-0.0285-2.9278-2.2004-3.0484-2.2306-0.12062-0.0302-0.94664 1.0321-1.0764 1.029-0.12978-3e-3 -2.7698-0.13548-2.8985-0.12288-0.12867 0.0126-0.89855 0.89022-1.0356 0.88856-0.13704-2e-3 -0.75264-2.1141-0.88005-2.0818-0.0368 9e-3 -0.17953 0.28318-0.3607 0.65159-0.54759-0.36558-1.3585-0.87224-1.4004-0.93329-0.0625-0.0909-1.4441-0.12691-1.495-0.21901-0.0509-0.0921 0.2946-2.2202 0.22634-2.3029-0.0683-0.0827-1.8862-2.1165-1.9611-2.1984-0.0749-0.0819-3.5168 0.45764-3.6236 0.39831-0.10672-0.0594 2.4636-1.6834 2.3544-1.7303-0.10916-0.04691-3.6547 0.64245-3.7827 0.61398-0.12803-0.0285-2.9283-2.2004-3.0489-2.2306-0.12063-0.03022-0.94612 1.0321-1.0759 1.029-0.12978-0.0031-2.7704-0.13547-2.899-0.12288-0.12867 0.01259-0.89804 0.89023-1.0351 0.88856-0.13704-0.0016-0.75264-2.1141-0.88005-2.0818-0.10871 0.02756-1.1002 2.2472-1.4624 2.924-0.47018-0.13831-0.94032-0.27477-1.4108-0.40666-0.4018-0.20551-0.80375-0.41016-1.1271-0.56758 0.039-0.32972 0.0671-0.60697 0.0444-0.63445-0.0683-0.08267-1.8857-2.1165-1.9606-2.1984-0.0749-0.0819-3.5174 0.45764-3.6241 0.39831-0.10672-0.05933 2.4636-1.6834 2.3544-1.7303s-3.6547 0.64244-3.7827 0.61397c-0.12803-0.02847-2.9278-2.2004-3.0484-2.2306-0.12063-0.03022-0.94664 1.0321-1.0764 1.029-0.12978-0.0031-2.7699-0.13547-2.8985-0.12288-0.12867 0.01259-0.89856 0.89023-1.0356 0.88857-0.13704-0.0017-0.75264-2.1137-0.88005-2.0814-0.12741 0.0323-1.4753 3.0931-1.5911 3.1288-0.11579 0.03568-2.8467-1.4662-2.96-1.4089-0.0483 0.02442-0.43497 0.56547-0.85421 1.1573-0.98873-0.0512-1.9775-0.08706-2.9662-0.107 0.61875-0.42139 1.2403-0.84328 1.1855-0.86684-0.10917-0.04688-3.6547 0.64244-3.7827 0.61397-0.12802-0.02847-2.9278-2.2004-3.0484-2.2306-0.12063-0.03022-0.94664 1.0321-1.0764 1.029-0.12978-0.0031-2.7699-0.13547-2.8985-0.12288-0.12867 0.01259-0.89856 0.89023-1.0356 0.88857-0.13704-0.0017-0.75212-2.1137-0.87953-2.0814zm57.823 14.283c-0.0422 0.0887-0.0807 0.16769-0.12093 0.25161-0.0408-0.0196-0.0816-0.0386-0.12247-0.0581 0.0641-0.0538 0.15178-0.12243 0.2434-0.19351z" fill="#fff" filter="url(#a)"/>
<path transform="matrix(.86564 0 0 .84547 32.849 106.2)" d="m29.165 33.268c-0.06738 0.13597-0.56481 0.64242-0.65884 0.76421-0.09403 0.12178-1.4503 4.9669-1.5709 5.0616-0.12063 0.09473-4.2843-1.1884-4.3851-1.0858s1.5475 2.2134 1.4063 2.2771c-0.14122 0.06375-5.1233 1.1137-5.2609 1.1816-0.13764 0.06792-0.06063-0.40542-0.19376-0.3522-0.13313 0.05322-0.86303 0.58811-1.0164 0.6082-0.1534 0.02009-1.7467 3.3495-1.9016 3.3527-0.15488 0.0033-2.4953-2.2236-2.643-2.2332-0.14765-0.0096-4.7541 1.5591-4.8959 1.5051-0.14185-0.05394-1.3732-5.1824-1.5134-5.2347-0.14028-0.0523-2.5825 2.9279-2.7258 2.8703-0.14328-0.05756-0.80544-2.4558-0.93256-2.5301-0.12712-0.07422-0.44244 0.28894-0.53394 0.17786s0.036417-2.974-0.05998-3.0971-3.5342-1.6657-3.588-1.8059c-0.053803-0.14016 1.9904-3.4306 1.9254-3.568-0.065046-0.13742-2.8833-0.45273-2.9313-0.58922s-1.1585-3.0048-1.1708-3.1482c-0.012296-0.14337-0.30254-1.9458-0.28646-2.0934 0.016084-0.14756 2.4535-3.6562 2.4908-3.8064 0.037287-0.15019-0.94497-0.21959-0.90455-0.37 0.04042-0.15041 2.8946-1.8958 2.9646-2.0253 0.069952-0.12946-2.5586-3.3348-2.4949-3.4724 0.06362-0.13761 2.2-2.3437 2.3032-2.4442 0.10321-0.10056 1.6644 0.3948 1.7678 0.2767s0.41608-0.50294 0.53573-0.60005c0.11965-0.09711 2.3122-4.1599 2.4431-4.2437 0.13087-0.083837 3.2858 2.1128 3.4196 2.0606 0.13377-0.05217 1.691-4.5286 1.8381-4.5759 0.14719-0.047244 0.85812 3.0419 1.0164 3.0443 0.15831 0.00243 1.0475-1.2811 1.1961-1.2995 0.14864-0.01842 3.1986 0.17543 3.3485 0.17991 0.14992 0.00448 1.1041-1.5493 1.2434-1.5051 0.13935 0.044192 3.3737 3.2206 3.5216 3.2623 0.1479 0.041637 4.244-0.96639 4.3701-0.89783 0.12612 0.068557-2.8432 2.4433-2.7199 2.5301 0.12328 0.08676 4.0998-0.70204 4.1864-0.58228s2.1862 3.094 2.2651 3.2149c0.07886 0.1209-0.32024 3.2334-0.26148 3.3681 0.05875 0.13468 1.6549 0.18691 1.7271 0.3199s2.1695 1.7484 2.1894 1.9018c0.01987 0.1534-1.7421 1.6912-1.7398 1.8356 0.0023 0.14436 3.1893 3.2553 3.197 3.406 0.0078 0.15072-3.3639 0.37013-3.3932 0.52132s2.7924 3.8911 2.7458 4.0283c-0.04665 0.13722-4.7404 1.8883-4.8058 2.0194-0.06548 0.13109 0.55416 1.6564 0.48678 1.7924z" fill="#fff" fill-opacity=".98061" filter="url(#e)"/>
</g>
</svg>
