<?xml version="1.0" encoding="UTF-8" standalone="no"?>
<!-- Created with Inkscape (http://www.inkscape.org/) -->

<svg
   width="205.75984mm"
   height="220.83255mm"
   viewBox="0 0 205.75984 220.83255"
   version="1.1"
   id="svg84124"
   inkscape:version="1.2.1 (9c6d41e, 2022-07-14)"
   sodipodi:docname="santa-face.svg"
   xmlns:inkscape="http://www.inkscape.org/namespaces/inkscape"
   xmlns:sodipodi="http://sodipodi.sourceforge.net/DTD/sodipodi-0.dtd"
   xmlns="http://www.w3.org/2000/svg"
   xmlns:svg="http://www.w3.org/2000/svg">
  <sodipodi:namedview
     id="namedview84126"
     pagecolor="#505050"
     bordercolor="#ffffff"
     borderopacity="1"
     inkscape:showpageshadow="0"
     inkscape:pageopacity="0"
     inkscape:pagecheckerboard="1"
     inkscape:deskcolor="#505050"
     inkscape:document-units="mm"
     showgrid="false"
     inkscape:zoom="0.68337588"
     inkscape:cx="356.31928"
     inkscape:cy="436.07041"
     inkscape:window-width="1512"
     inkscape:window-height="916"
     inkscape:window-x="0"
     inkscape:window-y="38"
     inkscape:window-maximized="1"
     inkscape:current-layer="layer5" />
  <defs
     id="defs84121">
    <inkscape:path-effect
       effect="fillet_chamfer"
       id="path-effect92647"
       is_visible="true"
       lpeversion="1"
       nodesatellites_param="F,0,0,1,0,0,0,1 @ F,0,0,1,0,0,0,1 @ F,0,0,1,0,0,0,1 @ F,0,0,1,0,0,0,1 @ F,0,0,1,0,0,0,1 @ F,0,0,1,0,0,0,1"
       unit="px"
       method="auto"
       mode="F"
       radius="0"
       chamfer_steps="1"
       flexible="false"
       use_knot_distance="true"
       apply_no_radius="true"
       apply_with_radius="true"
       only_selected="false"
       hide_knots="false" />
    <inkscape:path-effect
       effect="fillet_chamfer"
       id="path-effect92588"
       is_visible="true"
       lpeversion="1"
       nodesatellites_param="F,0,0,1,0,0,0,1 @ F,0,0,1,0,0,0,1 @ F,0,0,1,0,0,0,1 @ F,0,0,1,0,9.664768,0,1 @ F,0,1,1,0,8.7861527,0,1 @ F,0,0,1,0,7.6520282,0,1 @ F,0,0,1,0,8.7861527,0,1 @ F,0,0,1,0,0,0,1"
       unit="px"
       method="auto"
       mode="F"
       radius="0"
       chamfer_steps="1"
       flexible="false"
       use_knot_distance="true"
       apply_no_radius="true"
       apply_with_radius="true"
       only_selected="false"
       hide_knots="false" />
    <inkscape:path-effect
       effect="fillet_chamfer"
       id="path-effect92585"
       is_visible="true"
       lpeversion="1"
       nodesatellites_param="F,0,0,1,0,0,0,1 @ F,0,0,1,0,0,0,1 @ F,0,0,1,0,0,0,1 @ F,0,0,1,0,0,0,1 @ F,0,0,1,0,0,0,1 @ F,0,0,1,0,0,0,1 @ F,0,0,1,0,0,0,1 @ F,0,0,1,0,0,0,1"
       unit="px"
       method="auto"
       mode="F"
       radius="0"
       chamfer_steps="1"
       flexible="false"
       use_knot_distance="true"
       apply_no_radius="true"
       apply_with_radius="true"
       only_selected="false"
       hide_knots="false" />
    <inkscape:path-effect
       effect="fillet_chamfer"
       id="path-effect92579"
       is_visible="true"
       lpeversion="1"
       nodesatellites_param="F,0,0,1,0,0,0,1 @ F,0,0,1,0,0,0,1 @ F,0,0,1,0,0,0,1 @ F,0,0,1,0,64.906157,0,1"
       unit="px"
       method="auto"
       mode="F"
       radius="0"
       chamfer_steps="1"
       flexible="false"
       use_knot_distance="true"
       apply_no_radius="true"
       apply_with_radius="true"
       only_selected="false"
       hide_knots="false" />
    <inkscape:path-effect
       effect="fillet_chamfer"
       id="path-effect92522"
       is_visible="true"
       lpeversion="1"
       nodesatellites_param="F,0,0,1,0,0,0,1 @ F,0,0,1,0,0,0,1 @ F,0,0,1,0,0,0,1 @ F,0,0,1,0,0,0,1 @ F,0,0,1,0,0,0,1 @ F,0,0,1,0,0,0,1 @ F,0,0,1,0,0,0,1 @ F,0,0,1,0,0,0,1"
       unit="px"
       method="auto"
       mode="F"
       radius="0"
       chamfer_steps="1"
       flexible="false"
       use_knot_distance="true"
       apply_no_radius="true"
       apply_with_radius="true"
       only_selected="false"
       hide_knots="false" />
    <inkscape:path-effect
       effect="fillet_chamfer"
       id="path-effect92466"
       is_visible="true"
       lpeversion="1"
       nodesatellites_param="F,0,0,1,0,0,0,1 @ F,0,0,1,0,0,0,1 @ F,0,0,1,0,0,0,1 @ F,0,0,1,0,74.8526,0,1"
       unit="px"
       method="auto"
       mode="F"
       radius="0"
       chamfer_steps="1"
       flexible="false"
       use_knot_distance="true"
       apply_no_radius="true"
       apply_with_radius="true"
       only_selected="false"
       hide_knots="false" />
    <inkscape:path-effect
       effect="simplify"
       id="path-effect88608"
       is_visible="true"
       lpeversion="1"
       steps="17"
       threshold="0.0044"
       smooth_angles="240"
       helper_size="5"
       simplify_individual_paths="false"
       simplify_just_coalesce="false" />
    <inkscape:path-effect
       effect="fillet_chamfer"
       id="path-effect88578"
       is_visible="true"
       lpeversion="1"
       nodesatellites_param="F,0,0,1,0,0,0,1 @ F,0,0,1,0,16.097407,0,1 @ F,0,0,1,0,0,0,1"
       unit="px"
       method="auto"
       mode="F"
       radius="0"
       chamfer_steps="1"
       flexible="false"
       use_knot_distance="true"
       apply_no_radius="true"
       apply_with_radius="true"
       only_selected="false"
       hide_knots="false" />
    <inkscape:path-effect
       effect="fillet_chamfer"
       id="path-effect88570"
       is_visible="true"
       lpeversion="1"
       nodesatellites_param="F,0,0,1,0,0,0,1 @ F,0,0,1,0,0,0,1"
       unit="px"
       method="auto"
       mode="F"
       radius="0"
       chamfer_steps="1"
       flexible="false"
       use_knot_distance="true"
       apply_no_radius="true"
       apply_with_radius="true"
       only_selected="false"
       hide_knots="false" />
    <inkscape:path-effect
       effect="simplify"
       id="path-effect80051"
       is_visible="true"
       lpeversion="1"
       steps="0"
       threshold="0.002"
       smooth_angles="0"
       helper_size="5"
       simplify_individual_paths="false"
       simplify_just_coalesce="false" />
    <inkscape:path-effect
       effect="fillet_chamfer"
       id="path-effect88578-3"
       is_visible="true"
       lpeversion="1"
       nodesatellites_param="F,0,0,1,0,0,0,1 @ F,0,0,1,0,15.391248,0,1 @ F,0,0,1,0,0,0,1"
       unit="px"
       method="auto"
       mode="F"
       radius="0"
       chamfer_steps="1"
       flexible="false"
       use_knot_distance="true"
       apply_no_radius="true"
       apply_with_radius="true"
       only_selected="false"
       hide_knots="false" />
    <inkscape:path-effect
       effect="fillet_chamfer"
       id="path-effect88578-8"
       is_visible="true"
       lpeversion="1"
       nodesatellites_param="F,0,0,1,0,0,0,1 @ F,0,0,1,0,16.097407,0,1 @ F,0,0,1,0,0,0,1"
       unit="px"
       method="auto"
       mode="F"
       radius="0"
       chamfer_steps="1"
       flexible="false"
       use_knot_distance="true"
       apply_no_radius="true"
       apply_with_radius="true"
       only_selected="false"
       hide_knots="false" />
    <inkscape:path-effect
       effect="fillet_chamfer"
       id="path-effect88578-1"
       is_visible="true"
       lpeversion="1"
       nodesatellites_param="F,0,0,1,0,0,0,1 @ F,0,0,1,0,16.097407,0,1 @ F,0,0,1,0,0,0,1"
       unit="px"
       method="auto"
       mode="F"
       radius="0"
       chamfer_steps="1"
       flexible="false"
       use_knot_distance="true"
       apply_no_radius="true"
       apply_with_radius="true"
       only_selected="false"
       hide_knots="false" />
    <filter
       style="color-interpolation-filters:sRGB"
       inkscape:label="Drop Shadow"
       id="filter95717"
       x="-0.099942461"
       y="-0.15108399"
       width="1.2831703"
       height="1.4280713">
      <feFlood
         flood-opacity="0.498039"
         flood-color="rgb(0,0,0)"
         result="flood"
         id="feFlood95707" />
      <feComposite
         in="flood"
         in2="SourceGraphic"
         operator="in"
         result="composite1"
         id="feComposite95709" />
      <feGaussianBlur
         in="composite1"
         stdDeviation="3"
         result="blur"
         id="feGaussianBlur95711" />
      <feOffset
         dx="6"
         dy="6"
         result="offset"
         id="feOffset95713" />
      <feComposite
         in="SourceGraphic"
         in2="offset"
         operator="over"
         result="composite2"
         id="feComposite95715" />
    </filter>
    <filter
       style="color-interpolation-filters:sRGB"
       inkscape:label="Drop Shadow"
       id="filter96960"
       x="-0.036025128"
       y="-0.10012438"
       width="1.0720503"
       height="1.221108">
      <feFlood
         flood-opacity="0.498039"
         flood-color="rgb(0,0,0)"
         result="flood"
         id="feFlood96950" />
      <feComposite
         in="flood"
         in2="SourceGraphic"
         operator="in"
         result="composite1"
         id="feComposite96952" />
      <feGaussianBlur
         in="composite1"
         stdDeviation="2"
         result="blur"
         id="feGaussianBlur96954" />
      <feOffset
         dx="4.57967e-15"
         dy="1"
         result="offset"
         id="feOffset96956" />
      <feComposite
         in="SourceGraphic"
         in2="offset"
         operator="over"
         result="composite2"
         id="feComposite96958" />
    </filter>
    <filter
       style="color-interpolation-filters:sRGB"
       inkscape:label="Drop Shadow"
       id="filter99767"
       x="-0.054506511"
       y="-0.13836981"
       width="1.109013"
       height="1.3261574">
      <feFlood
         flood-opacity="0.498039"
         flood-color="rgb(0,0,0)"
         result="flood"
         id="feFlood99757" />
      <feComposite
         in="flood"
         in2="SourceGraphic"
         operator="in"
         result="composite1"
         id="feComposite99759" />
      <feGaussianBlur
         in="composite1"
         stdDeviation="3.5"
         result="blur"
         id="feGaussianBlur99761" />
      <feOffset
         dx="4.57967e-15"
         dy="3"
         result="offset"
         id="feOffset99763" />
      <feComposite
         in="SourceGraphic"
         in2="offset"
         operator="over"
         result="composite2"
         id="feComposite99765" />
    </filter>
    <filter
       style="color-interpolation-filters:sRGB"
       inkscape:label="Drop Shadow"
       id="filter100505"
       x="-0.22161198"
       y="-0.21567457"
       width="1.443224"
       height="1.5083758">
      <feFlood
         flood-opacity="0.498039"
         flood-color="rgb(0,0,0)"
         result="flood"
         id="feFlood100495" />
      <feComposite
         in="flood"
         in2="SourceGraphic"
         operator="in"
         result="composite1"
         id="feComposite100497" />
      <feGaussianBlur
         in="composite1"
         stdDeviation="3.5"
         result="blur"
         id="feGaussianBlur100499" />
      <feOffset
         dx="4.57967e-15"
         dy="3"
         result="offset"
         id="feOffset100501" />
      <feComposite
         in="SourceGraphic"
         in2="offset"
         operator="over"
         result="composite2"
         id="feComposite100503" />
    </filter>
    <filter
       style="color-interpolation-filters:sRGB"
       inkscape:label="Drop Shadow"
       id="filter611"
       x="-0.057684784"
       y="-0.057263729"
       width="1.1153696"
       height="1.1145275">
      <feFlood
         flood-opacity="0.6"
         flood-color="rgb(51,51,51)"
         result="flood"
         id="feFlood601" />
      <feComposite
         in="flood"
         in2="SourceGraphic"
         operator="in"
         result="composite1"
         id="feComposite603" />
      <feGaussianBlur
         in="composite1"
         stdDeviation="3"
         result="blur"
         id="feGaussianBlur605" />
      <feOffset
         dx="4.57967e-15"
         dy="8.57647e-15"
         result="offset"
         id="feOffset607" />
      <feComposite
         in="SourceGraphic"
         in2="offset"
         operator="over"
         result="composite2"
         id="feComposite609" />
    </filter>
    <filter
       style="color-interpolation-filters:sRGB"
       inkscape:label="Drop Shadow"
       id="filter762"
       x="-0.058333055"
       y="-0.083735594"
       width="1.1166661"
       height="1.1674712">
      <feFlood
         flood-opacity="0.6"
         flood-color="rgb(51,51,51)"
         result="flood"
         id="feFlood752" />
      <feComposite
         in="flood"
         in2="SourceGraphic"
         operator="in"
         result="composite1"
         id="feComposite754" />
      <feGaussianBlur
         in="composite1"
         stdDeviation="3"
         result="blur"
         id="feGaussianBlur756" />
      <feOffset
         dx="4.57967e-15"
         dy="8.57647e-15"
         result="offset"
         id="feOffset758" />
      <feComposite
         in="SourceGraphic"
         in2="offset"
         operator="over"
         result="composite2"
         id="feComposite760" />
    </filter>
  </defs>
  <g
     inkscape:groupmode="layer"
     id="layer5"
     inkscape:label="Face"
     transform="translate(-22.312084,-25.349245)"
     style="display:inline">
    <path
       style="fill:#f6e1c2;fill-opacity:0.975904;stroke:none;stroke-width:1;stroke-linejoin:round;filter:url(#filter611)"
       id="path85432"
       sodipodi:type="arc"
       sodipodi:cx="141.33606"
       sodipodi:cy="128.94621"
       sodipodi:rx="62.408138"
       sodipodi:ry="62.86702"
       sodipodi:start="0"
       sodipodi:end="6.2819644"
       sodipodi:open="true"
       sodipodi:arc-type="arc"
       d="M 203.7442,128.94621 A 62.408138,62.86702 0 0 1 141.35511,191.81323 62.408138,62.86702 0 0 1 78.927933,128.98459 62.408138,62.86702 0 0 1 141.27891,66.079219 62.408138,62.86702 0 0 1 203.74415,128.86946" />
    <circle
       style="fill:#000000;fill-opacity:0.975904;stroke:none;stroke-width:0.661277;stroke-linejoin:round"
       id="path85959"
       cx="124.55405"
       cy="125.92365"
       r="5" />
    <circle
       style="fill:#000000;fill-opacity:0.975904;stroke:none;stroke-width:0.661277;stroke-linejoin:round"
       id="path85959-1"
       cx="159.30614"
       cy="125.68393"
       r="5" />
    <circle
       style="fill:#ffffff;fill-opacity:1;stroke:none;stroke-width:0.591388;stroke-linejoin:round"
       id="path85983"
       cx="126.12286"
       cy="126.81435"
       r="2.5" />
    <circle
       style="fill:#ffffff;fill-opacity:1;stroke:none;stroke-width:0.591388;stroke-linejoin:round"
       id="path85983-0"
       cx="158.49234"
       cy="126.90458"
       r="2.5" />
    <ellipse
       style="fill:#913333;fill-opacity:1;stroke:none;stroke-width:2.31082;stroke-linejoin:round;stroke-dasharray:none;stroke-opacity:0.976471"
       id="path88614-2"
       cx="141.86252"
       cy="169.98549"
       rx="27.063421"
       ry="16.777325" />
    <path
       id="path88614"
       style="fill:#000000;fill-opacity:0.976471;stroke:none;stroke-width:2.31082;stroke-linejoin:round;stroke-dasharray:none;stroke-opacity:0.976471"
       d="m 141.90813,153.19272 a 27.063421,16.777325 0 0 0 -27.06346,16.77778 27.063421,16.777325 0 0 0 16.01556,15.31328 10.086367,4.9932513 0 0 1 9.84953,-3.92896 10.086367,4.9932513 0 0 1 10.03039,4.47363 27.063421,16.777325 0 0 0 18.23145,-15.85795 27.063421,16.777325 0 0 0 -27.06347,-16.77778 z" />
    <path
       id="path93427"
       style="fill:#ffffff;fill-opacity:1;stroke:none;stroke-width:2;stroke-linejoin:round;stroke-dasharray:none;stroke-opacity:0.976471;filter:url(#filter762)"
       d="m 88.140356,152.99686 a 9.2921047,15.09967 0 0 0 -9.292456,15.09986 9.2921047,15.09967 0 0 0 3.266984,11.48457 22.997581,29.829617 0 0 0 -0.666109,7.0559 22.997581,29.829617 0 0 0 20.080945,29.57545 39.079803,25.24909 0 0 0 38.86791,22.76916 39.079803,25.24909 0 0 0 39.02449,-24.20266 22.997581,28.280933 0 0 0 20.0856,-28.04067 22.997581,28.280933 0 0 0 -0.55449,-6.17326 9.2921047,15.09967 0 0 0 3.32383,-11.56519 9.2921047,15.09967 0 0 0 -9.29246,-15.09934 9.2921047,15.09967 0 0 0 -7.71167,6.69055 22.997581,28.280933 0 0 0 -8.76277,-2.13372 22.997581,28.280933 0 0 0 -22.93917,26.27127 c -8.10739,2.78034 -16.71747,3.14958 -26.22217,-0.77722 a 22.997581,29.829617 0 0 0 -22.90248,-27.14408 22.997581,29.829617 0 0 0 -8.835639,2.30994 9.2921047,15.09967 0 0 0 -7.470345,-6.12056 z"
       inkscape:label="Beard" />
    <path
       id="path88576-4"
       style="fill:#ffffff;fill-opacity:1;stroke:none;stroke-width:1.88333;stroke-linejoin:round;stroke-dasharray:none;stroke-opacity:0.976471;filter:url(#filter96960)"
       d="m 138.59257,139.75374 c -3.85765,-0.0379 -9.32563,2.95116 -16.87338,9.84901 -7.87505,5.20133 -19.03052,6.83137 -38.660694,-0.76687 -8.28745,-3.20782 -11.176159,-0.29881 -6.102987,6.9975 14.312764,20.58484 43.536651,53.02686 63.899981,11.40034 20.5613,42.4592 50.24809,8.89653 64.44154,-11.69541 4.82227,-6.99617 2.05913,-9.78723 -5.84719,-6.67401 -20.03955,7.89086 -31.35542,6.28338 -39.31801,1.02423 -8.95766,-8.18638 -14.98499,-10.86526 -18.86862,-9.51467 -0.7887,-0.39731 -1.67575,-0.61034 -2.67064,-0.62012 z"
       inkscape:label="Moustache" />
    <circle
       style="fill:#eed0a0;fill-opacity:0.976471;stroke:none;stroke-width:2;stroke-linejoin:round;stroke-dasharray:none;stroke-opacity:0.976471"
       id="path86007"
       cx="141.33606"
       cy="142.70436"
       r="13.279965" />
  </g>
  <g
     inkscape:label="Layer 1"
     inkscape:groupmode="layer"
     id="layer1"
     transform="translate(-22.312084,-25.349245)">
    <path
       id="path75224"
       style="fill:#800000;fill-opacity:1;stroke:none;stroke-width:2.64583;stroke-linejoin:round;stroke-opacity:0.466867"
       d="m 119.23633,25.352972 c -1.51425,0.01353 -2.30943,0.05687 -2.39417,0.0615 l 0.002,-0.0021 c 0,0 -0.0489,0.0035 -0.0512,0.0036 -8.1e-4,4.5e-5 -0.0362,0.0016 -0.0362,0.0016 l 0.002,0.001 c -0.94,0.04602 -69.984369,3.757898 -76.938974,101.995328 l 0.359668,-0.47645 10.640177,0.25941 C 60.024071,70.392323 112.35799,98.794457 112.35799,98.794457 l 94.06351,13.663253 0.46147,0.44803 C 216.4443,28.440068 134.65577,25.215236 119.23633,25.352972 Z" />
    <path
       style="fill:none;fill-opacity:0.975904;stroke:#6a0b0b;stroke-width:2.64583;stroke-linejoin:round;stroke-opacity:1"
       d="M 80.273164,94.060987 C 80.010179,64.869737 103.15279,57.769165 103.15279,57.769165 v 0 0"
       id="path75289" />
    <path
       style="fill:none;fill-opacity:0.975904;stroke:#6a0b0b;stroke-width:2.51848;stroke-linejoin:round;stroke-opacity:1"
       d="m 102.46837,59.051053 c -0.18931,-4.964975 -0.18931,-5.295974 -0.18931,-5.295974 v 0"
       id="path75671" />
    <path
       id="rect75883"
       style="fill:#ffffff;fill-opacity:1;stroke:none;stroke-width:1;stroke-linejoin:round;stroke-dasharray:none;stroke-opacity:1;filter:url(#filter99767)"
       d="m 128.46042,62.866756 c -0.12741,0.0323 -1.47584,3.09312 -1.59163,3.128795 -0.1158,0.03568 -2.84674,-1.466247 -2.96003,-1.408919 -0.0857,0.04335 -1.18923,1.638623 -1.76837,2.444606 -1.22921,0.219904 -2.45784,0.467109 -3.68556,0.739777 -0.78914,-0.59366 -1.63203,-1.23117 -1.69757,-1.247589 -0.12063,-0.03022 -0.94613,1.032482 -1.0759,1.029418 -0.12978,-0.0031 -2.77038,-0.135891 -2.89905,-0.123296 -0.12867,0.01259 -0.89804,0.89023 -1.03508,0.888564 -0.13704,-0.0016 -0.75264,-2.113708 -0.88005,-2.081402 -0.12741,0.0323 -1.47532,3.093113 -1.59112,3.128793 -0.1158,0.0357 -2.84673,-1.466245 -2.96002,-1.408916 -0.11329,0.05733 -2.01155,2.835436 -2.11512,2.901846 -0.10358,0.0664 -0.37402,0.32966 -0.46354,0.41043 -0.0895,0.0808 -1.4408,-0.25809 -1.53014,-0.18934 -0.0893,0.0687 -1.9386,1.5773 -1.99367,1.6714 -0.0211,0.036 0.29952,0.37986 0.69918,0.79452 -0.49069,0.21575 -0.981029,0.43583 -1.471229,0.66079 -0.5092,-0.0226 -0.96164,-0.0412 -1.01131,-0.0364 -0.12867,0.0126 -0.89804,0.89022 -1.03508,0.88856 -0.13704,-0.002 -0.75263,-2.11413 -0.88004,-2.08182 -0.12742,0.0323 -1.475325,3.09313 -1.591121,3.1288 -0.115797,0.0357 -2.846736,-1.46625 -2.960026,-1.40892 -0.11329,0.0573 -2.011541,2.83544 -2.115117,2.90185 -0.103574,0.0664 -0.374022,0.32966 -0.463537,0.41042 -0.08952,0.0808 -1.440798,-0.25809 -1.530139,-0.18932 -0.08934,0.0687 -1.938605,1.57729 -1.993677,1.67139 -0.03048,0.0521 0.64916,0.74385 1.25522,1.36879 -0.372557,0.22622 -0.736805,0.44683 -1.123445,0.68378 -0.227841,-0.62054 -0.507664,-1.47304 -0.589112,-1.45239 -0.09584,0.0243 -0.882005,1.76099 -1.315165,2.63602 -0.196984,0.12232 -0.390883,0.24258 -0.589111,0.36613 -0.733208,-0.34577 -2.55481,-1.32912 -2.647384,-1.28227 -0.11329,0.0573 -2.011024,2.83543 -2.114599,2.90184 -0.103576,0.0664 -0.374539,0.32967 -0.464055,0.41043 -0.08952,0.0808 -1.440798,-0.25809 -1.530139,-0.18933 -0.08934,0.0688 -1.938605,1.57729 -1.993677,1.67139 -0.02953,0.0505 0.608254,0.70205 1.19941,1.31112 -0.327729,0.21637 -0.631223,0.41967 -0.939477,0.62567 -0.741101,-0.37919 -1.505653,-0.76968 -1.564762,-0.73977 -0.113291,0.0573 -2.011541,2.83544 -2.115117,2.90185 -0.103575,0.0664 -0.374023,0.32966 -0.463537,0.41043 -0.08952,0.0808 -1.441315,-0.25809 -1.530656,-0.18934 -0.08934,0.0687 -1.938605,1.5773 -1.993677,1.6714 -0.05085,0.0869 1.881237,1.958824 2.130619,2.315464 -0.0074,0.0323 -0.0162,0.0635 -0.02325,0.0961 -0.35661,0.21997 -2.481089,1.25208 -2.513542,1.34747 -0.03499,0.10286 0.815175,0.15058 0.782898,0.25328 -0.03228,0.10271 -2.142534,2.5017 -2.156457,2.60259 -0.01392,0.10091 0.237402,1.333463 0.248046,1.431503 0.01064,0.098 0.972389,2.05954 1.013892,2.15288 0.0415,0.0933 2.481006,0.30894 2.537313,0.4029 0.05631,0.094 -1.713656,2.34416 -1.667082,2.44001 0.02559,0.0526 0.919131,0.38846 1.747697,0.70007 -0.106743,0.0614 -0.186228,0.11092 -0.191719,0.12706 -0.02676,0.0787 0.461464,0.12516 0.679545,0.18849 0.0098,0.0535 0.02298,0.10626 0.03307,0.15966 -0.330273,0.4264 -2.072948,2.41558 -2.085661,2.50772 -0.01392,0.1009 0.237402,1.33345 0.248047,1.43149 0.01064,0.098 0.971871,2.05912 1.013374,2.15246 0.0415,0.0933 2.481006,0.30894 2.537313,0.4029 0.05631,0.094 -1.713139,2.34417 -1.666565,2.44001 0.04657,0.0958 3.022308,1.15047 3.105754,1.23464 0.08344,0.0842 -0.02702,2.04223 0.05219,2.11818 0.07921,0.0759 0.351946,-0.17238 0.461987,-0.12163 0.110043,0.0507 0.683159,1.69055 0.807186,1.72991 0.124028,0.0394 2.238116,-1.99847 2.359546,-1.9627 0.121431,0.0358 1.187202,3.54246 1.309998,3.57935 0.122795,0.0369 4.110685,-1.03554 4.238501,-1.02901 0.127816,0.006 2.153649,1.52903 2.287715,1.52679 0.134067,-0.002 1.513104,-2.27873 1.645895,-2.29247 0.13279,-0.0138 0.764809,-0.37948 0.880049,-0.41587 0.115241,-0.0364 0.0488,0.28719 0.167949,0.24075 0.119149,-0.0464 4.431484,-0.76432 4.553727,-0.80791 0.122243,-0.0436 -1.30423,-1.48711 -1.21698,-1.55729 0.08725,-0.0702 3.691211,0.80748 3.795634,0.7427 0.104423,-0.0648 1.27873,-3.37779 1.360124,-3.46107 0.0814,-0.0833 0.511667,-0.42988 0.569997,-0.52286 0.0583,-0.093 -0.47785,-1.13579 -0.42117,-1.22543 0.0332,-0.0526 1.40387,-0.47508 2.57297,-0.84343 0.19432,0.56924 0.35628,1.02021 0.39946,1.03318 0.12279,0.0369 4.110169,-1.03596 4.237979,-1.02942 0.12782,0.006 2.15417,1.52944 2.28823,1.52719 0.13407,-0.002 1.51311,-2.27914 1.6459,-2.29289 0.13279,-0.0138 0.76481,-0.37947 0.88005,-0.41586 0.11524,-0.0364 0.0483,0.28719 0.16743,0.24075 0.11915,-0.0464 4.432,-0.76432 4.55424,-0.80791 0.12225,-0.0436 -1.30474,-1.48669 -1.21749,-1.55687 0.0873,-0.0702 3.69173,0.80706 3.79615,0.74228 0.10442,-0.0648 1.27821,-3.37779 1.35961,-3.46107 0.0687,-0.0703 0.38442,-0.32688 0.51676,-0.46141 0.29277,0.71937 1.10929,3.36424 1.21595,3.39628 0.12279,0.0369 4.11016,-1.03596 4.23798,-1.02942 0.12782,0.006 2.15417,1.52944 2.28823,1.5272 0.13407,-0.002 1.51311,-2.27915 1.6459,-2.29289 0.13279,-0.0138 0.76481,-0.37948 0.88005,-0.41586 0.11524,-0.0364 0.0483,0.2876 0.16743,0.24115 0.11915,-0.0464 4.432,-0.76472 4.55424,-0.80832 0.12225,-0.0436 -1.30474,-1.48669 -1.21749,-1.55687 0.0872,-0.0702 3.69172,0.80706 3.79615,0.74229 0.0376,-0.0233 0.22601,-0.50622 0.43976,-1.06871 0.003,0.17103 0.0102,0.29515 0.0284,0.31263 0.0792,0.0759 0.35195,-0.17238 0.46199,-0.12163 0.11004,0.0508 0.68316,1.69097 0.80719,1.73033 0.12403,0.0394 2.23811,-1.99889 2.35954,-1.96312 0.12143,0.0357 1.18772,3.54287 1.31052,3.57976 0.12279,0.0369 4.11017,-1.03595 4.23798,-1.02942 0.12782,0.006 2.15365,1.52945 2.28772,1.52721 0.13406,-0.002 1.51362,-2.27874 1.64641,-2.29247 0.13279,-0.0138 0.76429,-0.37948 0.87953,-0.41587 0.11524,-0.0364 0.0488,0.28718 0.16795,0.24074 0.092,-0.0358 2.66739,-0.46972 3.90002,-0.6867 0.30479,0.0505 0.61075,0.10253 0.91777,0.15548 0.67252,0.25292 1.30477,0.49029 1.34204,0.52788 0.0834,0.0842 -0.027,2.04181 0.0522,2.11776 0.0792,0.076 0.35195,-0.17238 0.46199,-0.12162 0.11004,0.0507 0.68316,1.69096 0.80719,1.73033 0.12403,0.0394 2.23811,-1.99848 2.35954,-1.96272 0.12143,0.0358 1.18721,3.54247 1.31,3.57935 0.1228,0.0369 4.11069,-1.03554 4.2385,-1.02899 0.12782,0.006 2.15365,1.52902 2.28772,1.52678 0.13406,-0.002 1.5131,-2.27874 1.64589,-2.29247 0.13279,-0.0137 0.76481,-0.37948 0.88005,-0.41586 0.11524,-0.0364 0.0483,0.28717 0.16743,0.24073 0.0186,-0.007 0.16293,-0.0346 0.35347,-0.0694 0.45609,0.22298 2.95233,1.1124 3.02876,1.18949 0.0834,0.0842 -0.027,2.04181 0.0522,2.11777 0.0792,0.076 0.35194,-0.17237 0.46199,-0.12162 0.11004,0.0507 0.68315,1.69054 0.80718,1.7299 0.12403,0.0394 2.23812,-1.99847 2.35955,-1.9627 0.12143,0.0357 1.18772,3.54288 1.31051,3.57977 0.1228,0.0369 4.11017,-1.03596 4.23799,-1.02943 0.12781,0.006 2.15365,1.52944 2.28771,1.5272 0.13407,-0.002 1.51362,-2.27873 1.64641,-2.29247 0.0441,-0.005 0.14867,-0.0526 0.26562,-0.10992 0.54518,0.17944 1.09948,0.36569 1.64951,0.54877 -0.48719,0.66848 -1.0815,1.46182 -1.0542,1.51801 0.0466,0.0958 3.02231,1.15047 3.10576,1.23463 0.0834,0.0842 -0.0275,2.04181 0.0517,2.11777 0.0792,0.076 0.35246,-0.17238 0.46251,-0.12162 0.11004,0.0507 0.68316,1.69095 0.80718,1.73032 0.12403,0.0394 2.23812,-1.99848 2.35955,-1.96271 0.12143,0.0357 1.1872,3.54246 1.31,3.57935 0.12279,0.0369 4.11016,-1.03554 4.23798,-1.029 0.12782,0.006 2.15417,1.52903 2.28823,1.52678 0.13407,-0.002 1.51311,-2.27873 1.6459,-2.29247 0.13279,-0.0138 0.76481,-0.37947 0.88005,-0.41586 0.11524,-0.0364 0.0483,0.28718 0.16743,0.24074 0.11915,-0.0464 4.432,-0.76431 4.55424,-0.80791 0.12224,-0.0436 -1.30474,-1.48711 -1.21749,-1.55728 0.0872,-0.0702 3.69172,0.80747 3.79615,0.7427 0.10442,-0.0648 1.27821,-3.37821 1.3596,-3.46149 0.0814,-0.0833 0.51218,-0.42946 0.57051,-0.52244 0.0583,-0.093 -0.47836,-1.1358 -0.42168,-1.22544 0.0567,-0.0896 4.12009,-1.28708 4.16047,-1.38091 0.0404,-0.0938 -2.40252,-2.65135 -2.37711,-2.75474 0.0254,-0.10339 2.94402,-0.25345 2.93728,-0.35651 -0.007,-0.10307 -2.76525,-2.23012 -2.76727,-2.32883 -0.002,-0.0987 1.52305,-1.15064 1.50585,-1.25554 -0.0157,-0.0959 -1.5189,-1.01807 -1.82728,-1.24674 0.0296,-0.0713 0.0631,-0.15378 0.0713,-0.16217 0.0814,-0.0833 0.51218,-0.42946 0.5705,-0.52244 0.0583,-0.093 -0.47836,-1.13581 -0.42168,-1.22544 0.0567,-0.0896 4.11958,-1.28708 4.15996,-1.38092 0.0404,-0.0938 -2.40201,-2.651343 -2.3766,-2.754733 0.0254,-0.10338 2.94402,-0.25345 2.93729,-0.35651 -0.007,-0.10306 -2.76526,-2.23012 -2.76728,-2.32883 -0.002,-0.0987 1.52305,-1.15063 1.50586,-1.25553 -0.0172,-0.1049 -1.83248,-1.20931 -1.89498,-1.30026 -0.0625,-0.0909 -1.44465,-0.12691 -1.49552,-0.219 -0.0509,-0.0921 0.29461,-2.220264 0.22635,-2.302924 -0.0683,-0.0827 -1.88571,-2.11654 -1.96061,-2.19844 -0.0749,-0.0819 -3.51735,0.45764 -3.62406,0.39831 -0.10672,-0.0593 2.46406,-1.68345 2.35489,-1.73032 -0.10917,-0.0469 -3.6552,0.64244 -3.78323,0.61397 -0.12803,-0.0285 -2.92777,-2.20039 -3.04839,-2.23061 -0.008,-0.002 -0.0183,8.1e-4 -0.031,0.007 -0.16445,-0.13967 -0.28642,-0.24813 -0.2868,-0.26707 -0.002,-0.0987 1.52304,-1.15022 1.50585,-1.25511 -0.0172,-0.1049 -1.83248,-1.20932 -1.89498,-1.30026 -0.0625,-0.0909 -1.44414,-0.12691 -1.495,-0.219 -0.0509,-0.0921 0.29461,-2.22026 0.22635,-2.30292 -0.0683,-0.0827 -1.88571,-2.11654 -1.96061,-2.19843 -0.0749,-0.0819 -3.51735,0.45763 -3.62407,0.3983 -0.10671,-0.0594 2.46355,-1.68344 2.35438,-1.73032 -0.10917,-0.0469 -3.65469,0.64244 -3.78271,0.61397 -0.12803,-0.0285 -2.92777,-2.20039 -3.0484,-2.23062 -0.12062,-0.0302 -0.94664,1.03206 -1.07642,1.02901 -0.12978,-0.003 -2.76985,-0.13548 -2.89853,-0.12288 -0.12867,0.0126 -0.89855,0.89022 -1.03559,0.88856 -0.13704,-0.002 -0.75264,-2.11413 -0.88005,-2.08182 -0.0368,0.009 -0.17953,0.28318 -0.3607,0.65159 -0.54759,-0.36558 -1.35848,-0.87224 -1.40043,-0.93329 -0.0625,-0.0909 -1.44414,-0.12691 -1.495,-0.21901 -0.0509,-0.0921 0.2946,-2.22024 0.22634,-2.30292 -0.0683,-0.0827 -1.88623,-2.11653 -1.96112,-2.19843 -0.0749,-0.0819 -3.51684,0.45764 -3.62355,0.39831 -0.10672,-0.0594 2.46355,-1.683442 2.35437,-1.730328 -0.10916,-0.04691 -3.65468,0.642448 -3.78271,0.613978 -0.12803,-0.0285 -2.92828,-2.200398 -3.04891,-2.230616 -0.12063,-0.03022 -0.94612,1.032064 -1.0759,1.029 -0.12978,-0.0031 -2.77038,-0.135474 -2.89905,-0.122878 -0.12867,0.01259 -0.89804,0.890229 -1.03508,0.888563 -0.13704,-0.0016 -0.75264,-2.114124 -0.88005,-2.081819 -0.10871,0.02756 -1.10015,2.24721 -1.46244,2.92399 -0.47018,-0.13831 -0.94032,-0.27477 -1.41077,-0.40666 -0.4018,-0.20551 -0.80375,-0.410164 -1.12706,-0.567578 0.039,-0.329719 0.0671,-0.606972 0.0444,-0.634453 -0.0683,-0.08267 -1.88571,-2.116538 -1.9606,-2.198433 -0.0749,-0.0819 -3.51736,0.457639 -3.62407,0.398309 -0.10672,-0.05933 2.46355,-1.683446 2.35438,-1.730326 -0.10917,-0.04688 -3.65469,0.642445 -3.78272,0.613973 -0.12803,-0.02847 -2.92777,-2.200396 -3.04839,-2.230614 -0.12063,-0.03022 -0.94664,1.032063 -1.07642,1.029 -0.12978,-0.0031 -2.76986,-0.135474 -2.89853,-0.122878 -0.12867,0.01259 -0.89856,0.890227 -1.0356,0.888568 -0.13704,-0.0017 -0.75264,-2.113711 -0.88005,-2.081406 -0.12741,0.0323 -1.47532,3.093121 -1.59112,3.128795 -0.11579,0.03568 -2.84673,-1.466246 -2.96002,-1.408919 -0.0483,0.02442 -0.43497,0.56547 -0.85421,1.157312 -0.98873,-0.0512 -1.97748,-0.08706 -2.96623,-0.106996 0.61875,-0.421393 1.24032,-0.843275 1.18546,-0.866835 -0.10917,-0.04688 -3.65469,0.642445 -3.78272,0.613973 -0.12802,-0.02847 -2.92776,-2.200396 -3.04839,-2.230614 -0.12063,-0.03022 -0.94664,1.032063 -1.07642,1.029 -0.12978,-0.0031 -2.76986,-0.135474 -2.89853,-0.122878 -0.12867,0.01259 -0.89856,0.890227 -1.0356,0.888568 -0.13704,-0.0017 -0.75212,-2.113711 -0.87953,-2.081406 z m 57.82283,14.283117 c -0.0422,0.0887 -0.0807,0.16769 -0.12093,0.25161 -0.0408,-0.0196 -0.0816,-0.0386 -0.12247,-0.0581 0.0641,-0.0538 0.15178,-0.12243 0.2434,-0.19351 z"
       inkscape:original-d="m 128.46042,62.866756 c -0.12741,0.0323 -1.47584,3.09312 -1.59163,3.128795 -0.1158,0.03568 -2.84674,-1.466247 -2.96003,-1.408919 -0.0857,0.04335 -1.18923,1.638623 -1.76837,2.444606 -1.22921,0.219904 -2.45784,0.467109 -3.68556,0.739777 -0.78914,-0.59366 -1.63203,-1.23117 -1.69757,-1.247589 -0.12063,-0.03022 -0.94613,1.032482 -1.0759,1.029418 -0.12978,-0.0031 -2.77038,-0.135891 -2.89905,-0.123296 -0.12867,0.01259 -0.89804,0.89023 -1.03508,0.888564 -0.13704,-0.0016 -0.75264,-2.113708 -0.88005,-2.081402 -0.12741,0.0323 -1.47532,3.093113 -1.59112,3.128793 -0.1158,0.0357 -2.84673,-1.466245 -2.96002,-1.408916 -0.11329,0.05733 -2.01155,2.835436 -2.11512,2.901846 -0.10358,0.0664 -0.37402,0.32966 -0.46354,0.41043 -0.0895,0.0808 -1.4408,-0.25809 -1.53014,-0.18934 -0.0893,0.0687 -1.9386,1.5773 -1.99367,1.6714 -0.0211,0.036 0.29952,0.37986 0.69918,0.79452 -0.49069,0.21575 -0.981029,0.43583 -1.471229,0.66079 -0.5092,-0.0226 -0.96164,-0.0412 -1.01131,-0.0364 -0.12867,0.0126 -0.89804,0.89022 -1.03508,0.88856 -0.13704,-0.002 -0.75263,-2.11413 -0.88004,-2.08182 -0.12742,0.0323 -1.475325,3.09313 -1.591121,3.1288 -0.115797,0.0357 -2.846736,-1.46625 -2.960026,-1.40892 -0.11329,0.0573 -2.011541,2.83544 -2.115117,2.90185 -0.103574,0.0664 -0.374022,0.32966 -0.463537,0.41042 -0.08952,0.0808 -1.440798,-0.25809 -1.530139,-0.18932 -0.08934,0.0687 -1.938605,1.57729 -1.993677,1.67139 -0.03048,0.0521 0.64916,0.74385 1.25522,1.36879 -0.372557,0.22622 -0.736805,0.44683 -1.123445,0.68378 -0.227841,-0.62054 -0.507664,-1.47304 -0.589112,-1.45239 -0.09584,0.0243 -0.882005,1.76099 -1.315165,2.63602 -0.196984,0.12232 -0.390883,0.24258 -0.589111,0.36613 -0.733208,-0.34577 -2.55481,-1.32912 -2.647384,-1.28227 -0.11329,0.0573 -2.011024,2.83543 -2.114599,2.90184 -0.103576,0.0664 -0.374539,0.32967 -0.464055,0.41043 -0.08952,0.0808 -1.440798,-0.25809 -1.530139,-0.18933 -0.08934,0.0688 -1.938605,1.57729 -1.993677,1.67139 -0.02953,0.0505 0.608254,0.70205 1.19941,1.31112 -0.327729,0.21637 -0.631223,0.41967 -0.939477,0.62567 -0.741101,-0.37919 -1.505653,-0.76968 -1.564762,-0.73977 -0.113291,0.0573 -2.011541,2.83544 -2.115117,2.90185 -0.103575,0.0664 -0.374023,0.32966 -0.463537,0.41043 -0.08952,0.0808 -1.441315,-0.25809 -1.530656,-0.18934 -0.08934,0.0687 -1.938605,1.5773 -1.993677,1.6714 -0.05085,0.0869 1.881237,1.958824 2.130619,2.315464 -0.0074,0.0323 -0.0162,0.0635 -0.02325,0.0961 -0.35661,0.21997 -2.481089,1.25208 -2.513542,1.34747 -0.03499,0.10286 0.815175,0.15058 0.782898,0.25328 -0.03228,0.10271 -2.142534,2.5017 -2.156457,2.60259 -0.01392,0.10091 0.237402,1.333463 0.248046,1.431503 0.01064,0.098 0.972389,2.05954 1.013892,2.15288 0.0415,0.0933 2.481006,0.30894 2.537313,0.4029 0.05631,0.094 -1.713656,2.34416 -1.667082,2.44001 0.02559,0.0526 0.919131,0.38846 1.747697,0.70007 -0.106743,0.0614 -0.186228,0.11092 -0.191719,0.12706 -0.02676,0.0787 0.461464,0.12516 0.679545,0.18849 0.0098,0.0535 0.02298,0.10626 0.03307,0.15966 -0.330273,0.4264 -2.072948,2.41558 -2.085661,2.50772 -0.01392,0.1009 0.237402,1.33345 0.248047,1.43149 0.01064,0.098 0.971871,2.05912 1.013374,2.15246 0.0415,0.0933 2.481006,0.30894 2.537313,0.4029 0.05631,0.094 -1.713139,2.34417 -1.666565,2.44001 0.04657,0.0958 3.022308,1.15047 3.105754,1.23464 0.08344,0.0842 -0.02702,2.04223 0.05219,2.11818 0.07921,0.0759 0.351946,-0.17238 0.461987,-0.12163 0.110043,0.0507 0.683159,1.69055 0.807186,1.72991 0.124028,0.0394 2.238116,-1.99847 2.359546,-1.9627 0.121431,0.0358 1.187202,3.54246 1.309998,3.57935 0.122795,0.0369 4.110685,-1.03554 4.238501,-1.02901 0.127816,0.006 2.153649,1.52903 2.287715,1.52679 0.134067,-0.002 1.513104,-2.27873 1.645895,-2.29247 0.13279,-0.0138 0.764809,-0.37948 0.880049,-0.41587 0.115241,-0.0364 0.0488,0.28719 0.167949,0.24075 0.119149,-0.0464 4.431484,-0.76432 4.553727,-0.80791 0.122243,-0.0436 -1.30423,-1.48711 -1.21698,-1.55729 0.08725,-0.0702 3.691211,0.80748 3.795634,0.7427 0.104423,-0.0648 1.27873,-3.37779 1.360124,-3.46107 0.0814,-0.0833 0.511667,-0.42988 0.569997,-0.52286 0.0583,-0.093 -0.47785,-1.13579 -0.42117,-1.22543 0.0332,-0.0526 1.40387,-0.47508 2.57297,-0.84343 0.19432,0.56924 0.35628,1.02021 0.39946,1.03318 0.12279,0.0369 4.110169,-1.03596 4.237979,-1.02942 0.12782,0.006 2.15417,1.52944 2.28823,1.52719 0.13407,-0.002 1.51311,-2.27914 1.6459,-2.29289 0.13279,-0.0138 0.76481,-0.37947 0.88005,-0.41586 0.11524,-0.0364 0.0483,0.28719 0.16743,0.24075 0.11915,-0.0464 4.432,-0.76432 4.55424,-0.80791 0.12225,-0.0436 -1.30474,-1.48669 -1.21749,-1.55687 0.0873,-0.0702 3.69173,0.80706 3.79615,0.74228 0.10442,-0.0648 1.27821,-3.37779 1.35961,-3.46107 0.0687,-0.0703 0.38442,-0.32688 0.51676,-0.46141 0.29277,0.71937 1.10929,3.36424 1.21595,3.39628 0.12279,0.0369 4.11016,-1.03596 4.23798,-1.02942 0.12782,0.006 2.15417,1.52944 2.28823,1.5272 0.13407,-0.002 1.51311,-2.27915 1.6459,-2.29289 0.13279,-0.0138 0.76481,-0.37948 0.88005,-0.41586 0.11524,-0.0364 0.0483,0.2876 0.16743,0.24115 0.11915,-0.0464 4.432,-0.76472 4.55424,-0.80832 0.12225,-0.0436 -1.30474,-1.48669 -1.21749,-1.55687 0.0872,-0.0702 3.69172,0.80706 3.79615,0.74229 0.0376,-0.0233 0.22601,-0.50622 0.43976,-1.06871 0.003,0.17103 0.0102,0.29515 0.0284,0.31263 0.0792,0.0759 0.35195,-0.17238 0.46199,-0.12163 0.11004,0.0508 0.68316,1.69097 0.80719,1.73033 0.12403,0.0394 2.23811,-1.99889 2.35954,-1.96312 0.12143,0.0357 1.18772,3.54287 1.31052,3.57976 0.12279,0.0369 4.11017,-1.03595 4.23798,-1.02942 0.12782,0.006 2.15365,1.52945 2.28772,1.52721 0.13406,-0.002 1.51362,-2.27874 1.64641,-2.29247 0.13279,-0.0138 0.76429,-0.37948 0.87953,-0.41587 0.11524,-0.0364 0.0488,0.28718 0.16795,0.24074 0.092,-0.0358 2.66739,-0.46972 3.90002,-0.6867 0.30479,0.0505 0.61075,0.10253 0.91777,0.15548 0.67252,0.25292 1.30477,0.49029 1.34204,0.52788 0.0834,0.0842 -0.027,2.04181 0.0522,2.11776 0.0792,0.076 0.35195,-0.17238 0.46199,-0.12162 0.11004,0.0507 0.68316,1.69096 0.80719,1.73033 0.12403,0.0394 2.23811,-1.99848 2.35954,-1.96272 0.12143,0.0358 1.18721,3.54247 1.31,3.57935 0.1228,0.0369 4.11069,-1.03554 4.2385,-1.02899 0.12782,0.006 2.15365,1.52902 2.28772,1.52678 0.13406,-0.002 1.5131,-2.27874 1.64589,-2.29247 0.13279,-0.0137 0.76481,-0.37948 0.88005,-0.41586 0.11524,-0.0364 0.0483,0.28717 0.16743,0.24073 0.0186,-0.007 0.16293,-0.0346 0.35347,-0.0694 0.45609,0.22298 2.95233,1.1124 3.02876,1.18949 0.0834,0.0842 -0.027,2.04181 0.0522,2.11777 0.0792,0.076 0.35194,-0.17237 0.46199,-0.12162 0.11004,0.0507 0.68315,1.69054 0.80718,1.7299 0.12403,0.0394 2.23812,-1.99847 2.35955,-1.9627 0.12143,0.0357 1.18772,3.54288 1.31051,3.57977 0.1228,0.0369 4.11017,-1.03596 4.23799,-1.02943 0.12781,0.006 2.15365,1.52944 2.28771,1.5272 0.13407,-0.002 1.51362,-2.27873 1.64641,-2.29247 0.0441,-0.005 0.14867,-0.0526 0.26562,-0.10992 0.54518,0.17944 1.09948,0.36569 1.64951,0.54877 -0.48719,0.66848 -1.0815,1.46182 -1.0542,1.51801 0.0466,0.0958 3.02231,1.15047 3.10576,1.23463 0.0834,0.0842 -0.0275,2.04181 0.0517,2.11777 0.0792,0.076 0.35246,-0.17238 0.46251,-0.12162 0.11004,0.0507 0.68316,1.69095 0.80718,1.73032 0.12403,0.0394 2.23812,-1.99848 2.35955,-1.96271 0.12143,0.0357 1.1872,3.54246 1.31,3.57935 0.12279,0.0369 4.11016,-1.03554 4.23798,-1.029 0.12782,0.006 2.15417,1.52903 2.28823,1.52678 0.13407,-0.002 1.51311,-2.27873 1.6459,-2.29247 0.13279,-0.0138 0.76481,-0.37947 0.88005,-0.41586 0.11524,-0.0364 0.0483,0.28718 0.16743,0.24074 0.11915,-0.0464 4.432,-0.76431 4.55424,-0.80791 0.12224,-0.0436 -1.30474,-1.48711 -1.21749,-1.55728 0.0872,-0.0702 3.69172,0.80747 3.79615,0.7427 0.10442,-0.0648 1.27821,-3.37821 1.3596,-3.46149 0.0814,-0.0833 0.51218,-0.42946 0.57051,-0.52244 0.0583,-0.093 -0.47836,-1.1358 -0.42168,-1.22544 0.0567,-0.0896 4.12009,-1.28708 4.16047,-1.38091 0.0404,-0.0938 -2.40252,-2.65135 -2.37711,-2.75474 0.0254,-0.10339 2.94402,-0.25345 2.93728,-0.35651 -0.007,-0.10307 -2.76525,-2.23012 -2.76727,-2.32883 -0.002,-0.0987 1.52305,-1.15064 1.50585,-1.25554 -0.0157,-0.0959 -1.5189,-1.01807 -1.82728,-1.24674 0.0296,-0.0713 0.0631,-0.15378 0.0713,-0.16217 0.0814,-0.0833 0.51218,-0.42946 0.5705,-0.52244 0.0583,-0.093 -0.47836,-1.13581 -0.42168,-1.22544 0.0567,-0.0896 4.11958,-1.28708 4.15996,-1.38092 0.0404,-0.0938 -2.40201,-2.651343 -2.3766,-2.754733 0.0254,-0.10338 2.94402,-0.25345 2.93729,-0.35651 -0.007,-0.10306 -2.76526,-2.23012 -2.76728,-2.32883 -0.002,-0.0987 1.52305,-1.15063 1.50586,-1.25553 -0.0172,-0.1049 -1.83248,-1.20931 -1.89498,-1.30026 -0.0625,-0.0909 -1.44465,-0.12691 -1.49552,-0.219 -0.0509,-0.0921 0.29461,-2.220264 0.22635,-2.302924 -0.0683,-0.0827 -1.88571,-2.11654 -1.96061,-2.19844 -0.0749,-0.0819 -3.51735,0.45764 -3.62406,0.39831 -0.10672,-0.0593 2.46406,-1.68345 2.35489,-1.73032 -0.10917,-0.0469 -3.6552,0.64244 -3.78323,0.61397 -0.12803,-0.0285 -2.92777,-2.20039 -3.04839,-2.23061 -0.008,-0.002 -0.0183,8.1e-4 -0.031,0.007 -0.16445,-0.13967 -0.28642,-0.24813 -0.2868,-0.26707 -0.002,-0.0987 1.52304,-1.15022 1.50585,-1.25511 -0.0172,-0.1049 -1.83248,-1.20932 -1.89498,-1.30026 -0.0625,-0.0909 -1.44414,-0.12691 -1.495,-0.219 -0.0509,-0.0921 0.29461,-2.22026 0.22635,-2.30292 -0.0683,-0.0827 -1.88571,-2.11654 -1.96061,-2.19843 -0.0749,-0.0819 -3.51735,0.45763 -3.62407,0.3983 -0.10671,-0.0594 2.46355,-1.68344 2.35438,-1.73032 -0.10917,-0.0469 -3.65469,0.64244 -3.78271,0.61397 -0.12803,-0.0285 -2.92777,-2.20039 -3.0484,-2.23062 -0.12062,-0.0302 -0.94664,1.03206 -1.07642,1.02901 -0.12978,-0.003 -2.76985,-0.13548 -2.89853,-0.12288 -0.12867,0.0126 -0.89855,0.89022 -1.03559,0.88856 -0.13704,-0.002 -0.75264,-2.11413 -0.88005,-2.08182 -0.0368,0.009 -0.17953,0.28318 -0.3607,0.65159 -0.54759,-0.36558 -1.35848,-0.87224 -1.40043,-0.93329 -0.0625,-0.0909 -1.44414,-0.12691 -1.495,-0.21901 -0.0509,-0.0921 0.2946,-2.22024 0.22634,-2.30292 -0.0683,-0.0827 -1.88623,-2.11653 -1.96112,-2.19843 -0.0749,-0.0819 -3.51684,0.45764 -3.62355,0.39831 -0.10672,-0.0594 2.46355,-1.683442 2.35437,-1.730328 -0.10916,-0.04691 -3.65468,0.642448 -3.78271,0.613978 -0.12803,-0.0285 -2.92828,-2.200398 -3.04891,-2.230616 -0.12063,-0.03022 -0.94612,1.032064 -1.0759,1.029 -0.12978,-0.0031 -2.77038,-0.135474 -2.89905,-0.122878 -0.12867,0.01259 -0.89804,0.890229 -1.03508,0.888563 -0.13704,-0.0016 -0.75264,-2.114124 -0.88005,-2.081819 -0.10871,0.02756 -1.10015,2.24721 -1.46244,2.92399 -0.47018,-0.13831 -0.94032,-0.27477 -1.41077,-0.40666 -0.4018,-0.20551 -0.80375,-0.410164 -1.12706,-0.567578 0.039,-0.329719 0.0671,-0.606972 0.0444,-0.634453 -0.0683,-0.08267 -1.88571,-2.116538 -1.9606,-2.198433 -0.0749,-0.0819 -3.51736,0.457639 -3.62407,0.398309 -0.10672,-0.05933 2.46355,-1.683446 2.35438,-1.730326 -0.10917,-0.04688 -3.65469,0.642445 -3.78272,0.613973 -0.12803,-0.02847 -2.92777,-2.200396 -3.04839,-2.230614 -0.12063,-0.03022 -0.94664,1.032063 -1.07642,1.029 -0.12978,-0.0031 -2.76986,-0.135474 -2.89853,-0.122878 -0.12867,0.01259 -0.89856,0.890227 -1.0356,0.888568 -0.13704,-0.0017 -0.75264,-2.113711 -0.88005,-2.081406 -0.12741,0.0323 -1.47532,3.093121 -1.59112,3.128795 -0.11579,0.03568 -2.84673,-1.466246 -2.96002,-1.408919 -0.0483,0.02442 -0.43497,0.56547 -0.85421,1.157312 -0.98873,-0.0512 -1.97748,-0.08706 -2.96623,-0.106996 0.61875,-0.421393 1.24032,-0.843275 1.18546,-0.866835 -0.10917,-0.04688 -3.65469,0.642445 -3.78272,0.613973 -0.12802,-0.02847 -2.92776,-2.200396 -3.04839,-2.230614 -0.12063,-0.03022 -0.94664,1.032063 -1.07642,1.029 -0.12978,-0.0031 -2.76986,-0.135474 -2.89853,-0.122878 -0.12867,0.01259 -0.89856,0.890227 -1.0356,0.888568 -0.13704,-0.0017 -0.75212,-2.113711 -0.87953,-2.081406 z m 57.82283,14.283117 c -0.0422,0.0887 -0.0807,0.16769 -0.12093,0.25161 -0.0408,-0.0196 -0.0816,-0.0386 -0.12247,-0.0581 0.0641,-0.0538 0.15178,-0.12243 0.2434,-0.19351 z"
       inkscape:path-effect="#path-effect80051" />
    <path
       sodipodi:type="star"
       style="fill:#ffffff;fill-opacity:0.980609;stroke:none;stroke-width:1.16891;stroke-linejoin:round;stroke-dasharray:none;stroke-opacity:1;filter:url(#filter100505)"
       id="path77502"
       inkscape:flatsided="false"
       sodipodi:sides="24"
       sodipodi:cx="14.3521"
       sodipodi:cy="25.000431"
       sodipodi:r1="18.262428"
       sodipodi:r2="16.256285"
       sodipodi:arg1="0.53172407"
       sodipodi:arg2="0.66262376"
       inkscape:rounded="0.05"
       inkscape:randomized="0.1"
       d="m 29.165183,33.268042 c -0.06738,0.135972 -0.564808,0.64242 -0.658835,0.764206 -0.09403,0.121785 -1.450265,4.96691 -1.570896,5.061642 -0.120631,0.09473 -4.284327,-1.188435 -4.385119,-1.085799 -0.100792,0.102636 1.547492,2.213355 1.406276,2.277104 -0.141216,0.06375 -5.123267,1.11371 -5.26091,1.181628 -0.137643,0.06792 -0.06063,-0.405419 -0.193755,-0.352204 -0.133128,0.05322 -0.863026,0.588106 -1.016428,0.608197 -0.153401,0.02009 -1.746741,3.34947 -1.901616,3.352749 -0.154875,0.0033 -2.495317,-2.22359 -2.642972,-2.233152 -0.147654,-0.0096 -4.7540575,1.559085 -4.895912,1.505139 -0.1418544,-0.05394 -1.3731597,-5.182431 -1.5134378,-5.234737 -0.1402781,-0.0523 -2.5824763,2.92788 -2.7257546,2.870318 -0.1432783,-0.05756 -0.805442,-2.455832 -0.9325645,-2.530051 -0.1271225,-0.07422 -0.4424375,0.288937 -0.5339425,0.177856 -0.091505,-0.111081 0.036417,-2.973997 -0.05998,-3.097082 -0.096397,-0.123085 -3.5341596,-1.665718 -3.5879625,-1.805879 -0.053803,-0.140161 1.9904446,-3.430553 1.92539827,-3.567967 -0.0650463,-0.137415 -2.88332377,-0.452728 -2.93126877,-0.589219 -0.047945,-0.136491 -1.1584968,-3.004835 -1.170793,-3.148205 -0.012296,-0.143371 -0.3025439,-1.945816 -0.2864599,-2.093372 0.016084,-0.147557 2.4535248,-3.656228 2.4908117,-3.806421 0.037287,-0.150192 -0.9449738,-0.219589 -0.9045538,-0.369998 0.04042,-0.15041 2.89464854,-1.895821 2.96460063,-2.025278 0.0699521,-0.129457 -2.55855583,-3.334787 -2.49493603,-3.472401 0.06362,-0.137614 2.19995856,-2.343652 2.30316652,-2.444207 0.10320797,-0.100555 1.66439018,0.394804 1.76779938,0.276696 0.1034092,-0.118108 0.4160783,-0.50294 0.5357299,-0.600054 0.1196515,-0.09711 2.3122384,-4.1599 2.4431125,-4.2437366 0.1308742,-0.083837 3.2858476,2.1127566 3.4196171,2.0605846 0.1337694,-0.05217 1.6909579,-4.5286177 1.8381459,-4.5758614 0.147188,-0.047244 0.858117,3.0418627 1.016427,3.0442889 0.15831,0.00243 1.047455,-1.281088 1.196099,-1.2995076 0.148643,-0.01842 3.198566,0.1754305 3.348489,0.1799101 0.149923,0.00448 1.104078,-1.5493308 1.243427,-1.5051391 0.139348,0.044192 3.373692,3.2206148 3.521591,3.2622521 0.147899,0.041637 4.243971,-0.9663888 4.370087,-0.8978323 0.126115,0.068557 -2.8432,2.4432853 -2.719921,2.5300513 0.123278,0.08676 4.099849,-0.702041 4.186369,-0.582277 0.08652,0.119764 2.186236,3.093974 2.265096,3.21487 0.07886,0.120897 -0.32024,3.233412 -0.261485,3.368092 0.05875,0.134679 1.654946,0.186908 1.727146,0.319902 0.0722,0.132994 2.169491,1.748426 2.189358,1.901831 0.01987,0.153405 -1.742114,1.691234 -1.739782,1.835593 0.0023,0.144358 3.189255,3.255262 3.197035,3.405984 0.0078,0.150722 -3.363883,0.370129 -3.393233,0.521323 -0.02935,0.151194 2.792437,3.891111 2.745789,4.028336 -0.04665,0.137225 -4.740353,1.888338 -4.805836,2.019426 -0.06548,0.131088 0.554164,1.656429 0.486783,1.792401 z"
       inkscape:transform-center-x="0.018454692"
       inkscape:transform-center-y="-0.23398751"
       transform="matrix(0.86564297,0,0,0.84546859,32.849031,106.20393)" />
  </g>
</svg>
