<?xml version="1.0" encoding="UTF-8"?>
<svg 
    width="100%"
    height="100%" 
    viewBox="0 0 897 773" 
    version="1.1" 
    xmlns="http://www.w3.org/2000/svg"
    style="clip-rule:evenodd;stroke-linecap:round;stroke-linejoin:round;stroke-miterlimit:1.5;">
    <style>
        #rainbow {
            --red: #ff8978;
            --orange: #f89300;
            --yellow: #bead00;
            --green: #8fb682;
            --blue: #60b0ff;
            --purple: #f27cff;
        }
    </style>
    <defs>
        <linearGradient id="rainbow" gradientTransform="rotate(135, 0.5, 0.5)" >
            <stop stop-color="var(--red)" offset="1%" />
            <stop stop-color="var(--orange)" offset="25%" />
            <stop stop-color="var(--yellow)" offset="40%" />
            <stop stop-color="var(--green)" offset="60%" />
            <stop stop-color="var(--blue)" offset="75%" />
            <stop stop-color="var(--purple)" offset="99%" />
        </linearGradient>
    </defs>

    <path
        d="M435.172,140.779c13.006,-24.948 28.488,-48.033 49.088,-67.952c89.023,-86.074 248.187,-105.488 334.389,-5.453c17.434,20.231 30.303,43.181 37.963,68.763c12.559,41.943 17.239,92.194 10.951,135.685c-11.498,79.511 -52.65,176.098 -106.951,234.372c-28.135,30.194 -79.512,81.158 -112.03,106.308c-68.676,53.115 -139.653,102.109 -213.426,147.862c-73.774,-45.753 -144.717,-94.747 -213.393,-147.862c-32.519,-25.15 -83.895,-76.114 -112.031,-106.308c-54.301,-58.274 -95.453,-154.861 -106.95,-234.372c-6.289,-43.491 -1.608,-93.742 10.95,-135.685c7.66,-25.582 20.53,-48.532 37.963,-68.763c86.203,-100.035 245.367,-80.621 334.389,5.453c20.601,19.919 36.083,43.004 49.088,67.952Z"
        fill="url(#rainbow)"
    />

    <svg xmlns="http://www.w3.org/2000/svg" viewBox="0 0 42 42">
        <path 
            transform="translate(9 9)"
            d="M9,20.42L2.79,14.21L5.62,11.38L9,14.77L18.88,4.88L21.71,7.71L9,20.42Z" 
            fill="white"
        />
    </svg>
</svg>
