<?xml version="1.0" encoding="UTF-8"?>
<svg 
    width="100%"
    height="100%" 
    viewBox="0 0 897 773" 
    version="1.1" 
    xmlns="http://www.w3.org/2000/svg"
    style="clip-rule:evenodd;stroke-linecap:round;stroke-linejoin:round;stroke-miterlimit:1.5;">
    <style>
        #rainbow {
            --red: #ff8978;
            --orange: #f89300;
            --yellow: #bead00;
            --green: #8fb682;
            --blue: #60b0ff;
            --purple: #f27cff;
        }
    </style>
    <defs>
        <linearGradient id="rainbow" gradientTransform="rotate(135, 0.5, 0.5)" >
            <stop stop-color="var(--red)" offset="1%" />
            <stop stop-color="var(--orange)" offset="25%" />
            <stop stop-color="var(--yellow)" offset="40%" />
            <stop stop-color="var(--green)" offset="60%" />
            <stop stop-color="var(--blue)" offset="75%" />
            <stop stop-color="var(--purple)" offset="99%" />
        </linearGradient>
    </defs>

    <path
        d="M466.875,760.782c-14.051,6.732 -30.356,6.92 -44.559,0.515c-30.831,-14.046 -65.469,-31.532 -100.476,-51.276c-78.815,-44.452 -134.975,-78.758 -203.617,-160.242c-95.605,-113.491 -160.247,-311.042 -82.194,-449.581c65.319,-115.934 201.468,-119.894 302.011,-61.831c50.979,29.44 92.804,74.824 111.601,129.643c0.004,0.01 0.016,0.015 0.027,0.011c-0,-0.001 -0,-0.007 -0,-0.007c5.958,-17.499 14.262,-34.039 24.462,-49.411c84.938,-128 301.333,-174.929 389.29,-18.813c78.054,138.538 -1.563,320.902 -99.608,432.917c-66.917,76.451 -198.123,179.174 -296.937,228.075Z"
        style="stroke-width:2.5px;"
        fill="url(#rainbow)"
        stroke="url(#rainbow)"
    />

    <svg xmlns="http://www.w3.org/2000/svg" viewBox="0 0 36 36">
        <path 
            transform="translate(6 6)"
            d="M9,20.42L2.79,14.21L5.62,11.38L9,14.77L18.88,4.88L21.71,7.71L9,20.42Z" 
            fill="white"
        />
    </svg>
</svg>
