<?xml version="1.0" encoding="UTF-8" standalone="no"?><!DOCTYPE svg PUBLIC "-//W3C//DTD SVG 1.1//EN" "http://www.w3.org/Graphics/SVG/1.1/DTD/svg11.dtd"><svg width="100%" height="100%" viewBox="0 0 1126 723" version="1.1" xmlns="http://www.w3.org/2000/svg" xmlns:xlink="http://www.w3.org/1999/xlink" xml:space="preserve" xmlns:serif="http://www.serif.com/" style="fill-rule:evenodd;clip-rule:evenodd;stroke-linecap:round;stroke-linejoin:round;stroke-miterlimit:1.5;"><g id="Layer1"><g id="MarioHat"><path d="M96.651,707.172c-9.354,10.279 -27.587,7.69 -39.096,4.429c-33.216,-9.412 -45.395,-45.655 -49.391,-76.416c-14.093,-108.48 20.515,-216.054 71.642,-310.849c101.95,-189.031 304.549,-331.386 524.986,-318.529c34.634,2.02 68.353,7.616 101.801,16.843c13.138,3.493 30.396,11.049 42.448,17.212c35.313,18.056 61.657,32.077 94.227,54.849c95.359,66.671 170.431,159.233 220.258,264.099c18.688,39.331 28.074,66.297 40.931,107.813c19.077,61.606 20.998,132.831 4.9,195.284c-1.325,5.142 -2.95,10.236 -5.096,15.092c-2.08,4.709 -4.596,9.252 -7.528,13.483c-10.383,14.987 -34.283,37.256 -53.23,21.119c-0.235,-22.541 -1.272,-44.735 -8.785,-66.204c-21.868,-62.495 -75.379,-112.323 -127.972,-149.683c-172.539,-122.563 -411.686,-138.361 -601.06,-45.115c-39.516,19.457 -77.425,43.153 -111.601,70.987c-30.505,24.845 -59.072,53.308 -78.017,88.147c-15.98,29.386 -30.816,63.797 -19.417,97.439Z" style="fill:#f00;"/><path d="M443.493,398.785c0.04,0.047 2.788,3.303 -8.759,-10.375c-5.978,-7.082 -17.794,-26.904 -24.345,-40.886c-13.59,-29.005 -16.013,-64.977 -8.42,-102.409c14.877,-73.331 91.78,-112 158.245,-120.965c45.473,-6.133 98.772,6.652 139.186,39.89c33.337,27.419 57.802,72.331 61.975,109.448c2.974,26.449 -5.162,50.391 -16.038,74.036c-10.185,22.14 -25.134,43.834 -47.776,53.897" style="fill:#fff;"/><path d="M447.573,395.867c0.018,0.022 0.036,0.043 0.054,0.064c2.4,2.899 0.589,4.601 -1.872,5.534c-1.333,2.269 -3.314,3.769 -5.769,0.916c-0.018,-0.021 -0.036,-0.042 -0.054,-0.063l-9.018,-10.683c-6.143,-7.277 -18.321,-27.623 -25.053,-41.99c-14.004,-29.89 -16.617,-66.95 -8.792,-105.524c15.308,-75.455 94.087,-115.701 162.477,-124.926c46.727,-6.303 101.501,6.827 143.03,40.983c34.333,28.238 59.47,74.526 63.768,112.752c3.079,27.384 -5.204,52.203 -16.465,76.684c-10.682,23.223 -26.538,45.821 -50.287,56.376c-2.522,1.121 -5.479,-0.017 -6.6,-2.538c-1.121,-2.522 0.017,-5.479 2.538,-6.6c21.535,-9.571 35.578,-30.359 45.264,-51.417c10.492,-22.809 18.481,-45.874 15.612,-71.388c-4.048,-36.009 -27.841,-79.546 -60.183,-106.145c-39.297,-32.321 -91.123,-44.761 -135.34,-38.796c-64.541,8.705 -139.568,45.795 -154.013,117.003c-7.363,36.29 -5.129,71.173 8.047,99.294c6.37,13.597 17.824,32.895 23.638,39.782l9.018,10.682Z"/><path d="M707.878,17.818l0.045,0.012c13.437,3.579 31.077,11.282 43.394,17.58c35.536,18.17 62.041,32.288 94.816,55.203c96.068,67.167 171.711,160.406 221.909,266.051c18.804,39.575 28.255,66.707 41.191,108.48c19.344,62.467 21.288,134.686 4.966,198.011c-1.393,5.406 -3.108,10.759 -5.364,15.865c-2.208,4.997 -4.88,9.819 -7.992,14.309c-6.719,9.699 -18.782,22.113 -31.695,26.823c-9.639,3.515 -19.734,3.051 -28.887,-4.745c-2.101,-1.789 -2.354,-4.947 -0.565,-7.048c1.79,-2.101 4.948,-2.354 7.049,-0.565c7.662,6.526 16.335,4.947 24.133,0.561c8.971,-5.047 16.914,-13.748 21.745,-20.721c2.752,-3.971 5.112,-8.236 7.065,-12.655c2.035,-4.608 3.57,-9.442 4.828,-14.32c15.872,-61.581 13.975,-131.811 -4.836,-192.557c-12.776,-41.258 -22.098,-68.059 -40.67,-107.146c-49.457,-104.086 -123.957,-195.971 -218.607,-262.147c-32.364,-22.629 -58.548,-36.552 -93.639,-54.495c-11.772,-6.02 -28.622,-13.42 -41.455,-16.831c-0.015,-0.004 -0.03,-0.008 -0.045,-0.013c-33.108,-9.133 -66.482,-14.673 -100.763,-16.672c-218.51,-12.744 -419.235,128.534 -520.295,315.911c-50.635,93.885 -85.041,200.394 -71.084,307.832c3.757,28.919 14.569,63.401 45.796,72.249c6.332,1.794 14.877,3.433 22.558,2.368c4.402,-0.61 8.528,-2.11 11.477,-5.351c1.858,-2.041 5.023,-2.19 7.063,-0.333c2.041,1.858 2.19,5.023 0.333,7.064c-4.534,4.982 -10.733,7.587 -17.5,8.525c-9.071,1.258 -19.178,-0.533 -26.657,-2.652c-35.207,-9.975 -48.751,-47.977 -52.987,-80.582c-14.227,-109.523 20.582,-218.16 72.2,-313.867c102.842,-190.683 307.313,-334.116 529.678,-321.147c34.972,2.04 69.02,7.689 102.795,17.003Z"/><path d="M96.651,707.172c-11.399,-33.642 -0.308,-71.899 15.672,-101.285c18.945,-34.839 47.512,-63.302 78.018,-88.147c34.175,-27.834 72.085,-51.53 111.6,-70.987c189.375,-93.246 428.521,-77.448 601.06,45.115c52.594,37.36 106.104,87.188 127.973,149.683c7.512,21.469 12.294,47.509 12.529,70.05c-26.049,-200.452 -387.929,-288.521 -618.636,-244.978c-51.886,9.793 -102.265,24.468 -163.502,54.963c-40.794,20.315 -66.682,36.461 -94.628,55.955c-28.929,20.181 -82.068,71.269 -70.086,129.631Z" style="fill:#f00;"/><path d="M91.916,708.777c-11.844,-34.955 -0.589,-74.746 16.014,-105.278c19.257,-35.411 48.247,-64.383 79.253,-89.636c34.467,-28.071 72.697,-51.973 112.549,-71.596c190.984,-94.038 432.16,-78.079 606.165,45.525c53.402,37.934 107.592,88.651 129.796,152.108c7.684,21.959 12.57,48.594 12.81,71.649c0.027,2.646 -2.012,4.855 -4.651,5.04c-2.64,0.184 -4.966,-1.72 -5.307,-4.344c-10.221,-78.647 -73.492,-139.354 -159.806,-181.519c-131.092,-64.04 -315.469,-85.137 -452.944,-59.19c-51.474,9.715 -101.452,24.273 -162.201,54.526c-40.521,20.179 -66.237,36.216 -93.996,55.58c-16.891,11.783 -42.289,34.37 -57.366,62.84c-9.8,18.506 -15.23,39.535 -10.683,61.685c0.531,2.587 -1.041,5.141 -3.59,5.831c-2.549,0.691 -5.196,-0.72 -6.043,-3.221Zm10.959,-67.985c0.172,-0.331 0.345,-0.661 0.52,-0.99c15.909,-30.043 42.657,-53.927 60.481,-66.361c28.133,-19.625 54.194,-35.88 95.261,-56.331c61.723,-30.738 112.504,-45.529 164.803,-55.4c139.372,-26.305 326.288,-4.892 459.188,60.031c64.588,31.552 116.393,73.417 144.293,124.902c-0.381,-1.159 -0.77,-2.306 -1.167,-3.441c-21.532,-61.534 -74.364,-110.473 -126.148,-147.258c-171.073,-121.521 -408.19,-137.159 -595.956,-44.705c-39.179,19.291 -76.767,42.781 -110.652,70.378c-30.004,24.437 -58.148,52.392 -76.782,86.659c-5.422,9.97 -10.291,20.998 -13.841,32.516Z"/><g><path d="M449.194,307.685c-1.334,0.899 -2.493,1.883 -3.489,2.879c-0.873,0.873 -2.87,3.797 -2.87,3.797c0,-0 1.277,-3.599 1.849,-5.316c4.428,-13.284 9.646,-20.747 15.219,-31.895c6.019,-12.038 13.437,-24.442 16.817,-37.963c1.214,-4.854 6.375,-12.119 8.772,-15.313c3.896,-11.088 9.756,-23.749 17.855,-31.847c1.256,-1.256 10.323,-8.093 15.879,-9.07c8.334,-1.466 15.605,0.859 21.492,6.745c1.8,1.8 4.338,7.411 6.13,11.746c2.231,1.651 5.775,4.343 7.351,5.919c3.539,3.539 5.715,8.969 9.297,12.551c4.096,4.096 8.587,8.446 13.072,12.758c9.402,-12.047 26.454,-26.879 36.441,-33.723c1.422,-1.238 8.432,-7.296 11.924,-9.474c4.759,-2.967 9.226,-4.101 12.28,-4.411c8.556,-0.871 14.972,2.212 19.718,6.959c2.173,2.172 4.487,8.614 6.041,13.615c9.705,12.693 20.571,36.916 27.176,50.125c1.961,3.923 7.625,22.004 8.686,25.413c1.467,2.073 3.09,4.678 4.689,7.69c2.448,4.611 7.856,14.429 8.318,15.267c1.778,1.943 3.016,4.201 3.847,6.607c2.747,3.842 4.363,8.546 4.363,13.625c0,1.977 -0.32,6.623 -3.015,11.741c-2.321,4.409 -7.599,9.859 -10.821,11.746c-11.698,6.854 -21.712,3.661 -29.014,-3.64c-2.977,-2.977 -4.028,-8.611 -4.214,-14.316c-5.321,-8.204 -11.467,-19.89 -12.285,-21.455c-1.659,-2.081 -3.678,-5.238 -5.352,-9.48c-2.374,-6.014 -5.337,-18.519 -7.182,-22.208c-4.254,-8.508 -10.029,-23.452 -16.025,-33.793c-7.333,5.55 -15.959,12.978 -18.696,18.453c-5.986,11.973 -15.267,23.734 -19.9,26.601c-12.576,7.784 -22.963,4.433 -30.699,-3.303c-8.929,-8.929 -22.034,-21.104 -32.54,-31.61c-1.664,-1.664 -3.024,-3.726 -4.359,-5.813c-1.582,2.457 -3.346,4.844 -4.525,6.385c-4.447,15.681 -12.503,30.385 -19.541,44.463c-4.526,9.052 -9.077,14.96 -12.673,25.747c-2.512,7.535 -6.803,16.35 -10.317,19.864c-2.548,2.548 -6.157,5.01 -11.001,6.211c-0.126,0.031 -0.26,0.06 -0.401,0.088c-3.426,0.816 -7.088,0.871 -10.748,0.017c-29.092,-6.789 -10.198,-38.327 -7.549,-42.382Zm7.221,-1.899c0.594,-0.766 1.429,-1.349 2.544,-1.712c-0.905,0.072 -1.739,0.178 -2.364,0.333c-2.49,0.618 -4.649,1.573 -6.503,2.702c1.119,-0.248 3.643,-0.773 6.323,-1.323Zm216.541,22.546c-0.052,-8.091 1.443,-15.844 1.443,-15.844c-0,0 -2.477,6.929 -2.336,10.326c0.076,1.82 0.335,3.67 0.893,5.518Zm2.175,4.737c0.798,1.255 1.786,2.495 3,3.71c-0.872,-0.873 -1.895,-2.159 -3,-3.71Zm41.748,-7.541c-0.271,2.463 -0.698,4.721 -1.125,6.577c0.57,-2.287 1.102,-4.861 1.125,-6.577Zm-42.701,-8.151c-1.017,3.095 -1.061,5.71 -1.061,6.992c0,-2.435 0.372,-4.783 1.061,-6.992Zm-125.831,-112.179c0.414,1.07 0.658,1.733 0.658,1.733c0,-0 -0.329,-0.91 -0.658,-1.733Z" style="fill:#f00;"/><path d="M432.71,321.419l84.995,-150.518m0,-0l65.387,63.428m-0,0l57.947,-63.428m-0,-0l83.788,153.09m0,-0l-46.201,41.111m0,-0l-44.243,-121.767m-0,-0l-53.249,62.645m-0,0l-56.773,-62.645m0,-0l-46.201,118.635m0,-0l-45.45,-40.551" style="fill:#ff000e;fill-rule:nonzero;stroke:#000;stroke-width:20.59px;"/></g><path d="M96.651,707.172c-11.982,-58.362 41.157,-109.45 70.086,-129.631c27.946,-19.494 53.834,-35.64 94.628,-55.955c61.237,-30.495 111.616,-45.17 163.502,-54.963c230.707,-43.543 592.587,44.526 618.636,244.978c-129.931,-165.366 -354.468,-217.961 -556.771,-193.002c-46.642,5.755 -92.76,16.188 -137.115,31.782c-69.077,24.287 -136.246,56.972 -194.504,101.712c-15.635,12.006 -26.843,24.791 -40.982,38.389c-1.487,1.43 -6.007,5.656 -17.48,16.69Z" style="fill:#870000;"/><path d="M91.398,708.251c-5.056,-24.627 0.78,-48.043 11.676,-68.619c15.94,-30.1 42.737,-54.031 60.595,-66.489c28.146,-19.635 54.219,-35.897 95.306,-56.358c61.759,-30.755 112.568,-45.555 164.898,-55.432c139.44,-26.318 326.449,-4.894 459.414,60.061c89.803,43.87 154.901,107.67 165.534,189.496c0.311,2.394 -1.016,4.701 -3.241,5.636c-2.226,0.934 -4.802,0.267 -6.294,-1.632c-128.77,-163.889 -351.401,-215.728 -551.897,-190.992c-46.26,5.707 -92.001,16.052 -135.993,31.519c-68.545,24.099 -135.208,56.51 -193.017,100.905c-15.469,11.88 -26.541,24.547 -40.531,38.001c-1.487,1.43 -6.006,5.657 -17.479,16.691c-1.409,1.354 -3.443,1.836 -5.309,1.256c-1.866,-0.58 -3.269,-2.129 -3.662,-4.043Zm9.106,-12.204c6.036,-5.772 8.807,-8.37 9.909,-9.431c14.289,-13.742 25.633,-26.643 41.433,-38.777c58.707,-45.084 126.383,-78.043 195.993,-102.517c44.717,-15.722 91.212,-26.244 138.237,-32.045c197.293,-24.341 415.455,24.692 548.198,178.676c-17.611,-68.731 -77.096,-122.505 -155.695,-160.901c-131.026,-64.008 -315.31,-85.093 -452.717,-59.159c-51.443,9.709 -101.393,24.259 -162.106,54.494c-40.502,20.169 -66.205,36.198 -93.95,55.553c-16.858,11.759 -42.207,34.299 -57.253,62.712c-8.268,15.612 -13.418,33.026 -12.049,51.395Z"/></g></g></svg>