<?xml version="1.0" encoding="UTF-8" standalone="no"?><!DOCTYPE svg PUBLIC "-//W3C//DTD SVG 1.1//EN" "http://www.w3.org/Graphics/SVG/1.1/DTD/svg11.dtd"><svg width="100%" height="100%" viewBox="0 0 788 803" version="1.1" xmlns="http://www.w3.org/2000/svg" xmlns:xlink="http://www.w3.org/1999/xlink" xml:space="preserve" xmlns:serif="http://www.serif.com/" style="fill-rule:evenodd;clip-rule:evenodd;stroke-linejoin:round;stroke-miterlimit:2;"><ellipse cx="391.024" cy="383.378" rx="355.067" ry="365.606" style="fill:#efb27d;"/><path d="M109.114,151.106c-37.577,17.907 -57.356,50.385 -60.738,96.286l28.566,56.306c20.395,-23.181 35.446,-49.685 39.933,-82.756c37.363,-18.842 66.253,-44.616 83.186,-80.175c27.182,-5.622 43.137,-15.246 46.906,-29.214c39.89,4.472 74.301,-0.111 93.102,-30.491c27.772,11.923 55.417,12.729 82.85,-5.307c36.506,25.831 72.544,38.278 107.838,29.38c17.586,30.654 41.535,48.969 74.872,49.083c13.804,19.3 30.029,32.431 48.835,38.983c10.189,51.851 28.537,89.77 58.516,107.823c-17.123,60.932 -13.665,98.579 6.544,117.273c-23.227,31.495 -32.421,63.352 -24.145,95.658c-19.087,24.324 -32.472,52.496 -41.686,83.481c-43.333,15.399 -64.272,38.987 -76.862,65.629c-24.511,-2.949 -49.444,10.92 -74.739,39.183c-32.247,-2.729 -56.563,2.587 -73.659,15.227c-28.47,-8.478 -59.587,-6.731 -92.224,0.88c-28.743,-38.265 -70.109,-54.055 -122.111,-50.903c-16.268,-26.57 -38.389,-45.717 -64.656,-59.606c-1.88,-24.806 -16.141,-44.116 -40.903,-58.764c6.75,-35.165 -8.908,-76.399 -39.758,-121.748c11.908,-9.318 14.165,-52.14 8.161,-123.636l-28.566,-56.306c-36.247,59.067 -49.196,110.108 -33.521,151.289c-10.311,23.292 -8.624,43.355 9.471,59.001c-7.151,43.413 6.888,85.379 41.445,125.944c-3.395,32.929 14.857,56.348 55.996,69.713c4.725,40.174 30.268,63.347 75.837,70.164c33.128,36.965 63.771,57.495 88.38,38.109c28.225,19.248 54.117,29.087 75.001,18.725c47.725,23.33 87.499,22.937 116.689,-9.037c43.049,2.32 75.963,-8.981 93.405,-41.072c53.354,-12.258 88.257,-26.938 81.078,-47.142c21.855,-8.005 37.423,-22.367 41.042,-48.814c30.95,-25.511 46.166,-53.378 43.56,-83.913c23.039,-29.306 36.466,-60.317 32.128,-94.477c10.161,-21.061 14.85,-45.73 5.417,-79.713c6.967,-28.091 6.255,-51.303 -4.319,-68.248c3.391,-40.164 -11.975,-71.955 -45.879,-95.471c0.633,-52.223 -26.499,-83.372 -74.072,-99.006c-6.726,-41.559 -34.508,-55.693 -79.581,-47.303c-14.821,-33.13 -41.013,-45.645 -79.228,-36.363c-27.757,-24.775 -58.845,-27.79 -92.938,-11.17c-44.665,-18.082 -84.762,-12.83 -120.292,15.756c-35.321,-17.312 -69.078,5.034 -101.798,53.662c-32.615,-6.61 -54.387,16.003 -67.083,63.08Z" style="fill:#da995e;"/><path d="M69.469,422.645c4.525,-17.165 7.037,-36.503 7.618,-55.86c0.592,-19.695 -0.88,-39.405 -4.541,-56.944c-0.218,-1.043 -0.727,-2.086 -1.051,-3.117c-1.014,-1.296 -1.027,-3.168 0.064,-4.487c11.665,-14.003 23.778,-29.69 32.114,-46.576c4.735,-9.591 8.242,-19.562 9.66,-29.92c-1.363,0.732 -2.74,1.461 -4.131,2.191c-1.805,0.946 -3.418,2.867 -5.499,2.815c-0.792,-0.019 -0.419,-0.236 -1.109,-0.63c-0.862,0.455 -1.933,0.125 -2.388,-0.738c-0.455,-0.863 -0.125,-1.933 0.738,-2.389c0.064,-0.789 -0.328,-0.604 0.1,-1.269c1.117,-1.733 3.58,-2.001 5.343,-2.987c19.212,-10.745 35.729,-21.288 50.37,-33.867c14.663,-12.597 27.485,-27.178 39.228,-46.015c-2.275,0.082 -4.553,0.102 -6.826,0.071c-0.973,-0.013 -2.146,0.506 -2.912,-0.09c-1.041,-0.809 0.05,0.188 -0.322,-1.075c-0.976,-0.002 -1.766,-0.795 -1.765,-1.771c0.002,-0.975 0.795,-1.766 1.77,-1.765c0.383,-1.072 -0.538,-0.401 0.379,-1.077c0.908,-0.67 2.254,-0.114 3.384,-0.168c3.63,-0.172 7.265,-0.446 10.86,-0.876c0.839,-0.502 1.865,-0.648 2.826,-0.373c6.509,-0.943 12.849,-2.457 18.76,-4.886c7.202,-2.958 13.79,-7.213 19.133,-13.597c1.269,-1.515 3.529,-1.716 5.044,-0.447c1.515,1.268 1.716,3.528 0.448,5.043c-7.689,9.135 -17.492,14.702 -28.33,17.754c-4.424,1.246 -9.015,2.09 -13.681,2.618c-12.944,21.658 -27.013,38.122 -43.469,51.976c-12.428,10.463 -26.181,19.483 -41.775,28.176c-0.027,0.705 -0.065,1.409 -0.116,2.112c-0.856,11.79 -4.421,23.229 -9.585,34.148c-8.088,17.103 -20.207,32.906 -31.866,47.124c0.117,0.936 0.161,1.917 0.372,2.802c4.275,17.904 6.151,38.167 5.758,58.407c-0.432,22.245 -3.704,44.462 -9.391,63.59c12.085,18.864 23.626,40.812 30.856,63.461c5.813,18.21 8.752,36.896 7.149,54.819c8.143,4.878 15.209,10.971 21.237,17.992c9.989,11.635 17.047,25.925 21.558,41.666c13.17,6.788 23.932,14.561 33.486,23.542c9.645,9.066 18.014,19.426 26.401,31.362c1.488,-0.325 3.263,-0.054 4.846,-0.206c18.592,-1.791 41.273,2.989 62.386,11.914c22.657,9.578 43.455,24.012 55.807,39.871c13.687,-4.142 27.428,-6.425 41.216,-6.998c16.619,-0.691 33.319,1.22 50.192,5.346c0.221,0.054 0.433,0.128 0.632,0.219c6.507,-5.124 14.171,-9.1 22.305,-11.93c12.998,-4.522 27.245,-6.006 39.968,-4.821c1.967,0.188 3.412,1.937 3.225,3.904c-0.188,1.968 -1.938,3.412 -3.905,3.225c-11.783,-1.151 -24.936,0.333 -37.05,4.311c-10.906,3.581 -20.953,9.217 -28.376,17.127c-0.758,0.808 -1.15,2.164 -2.212,2.472c-1.067,0.31 -0.018,-0.028 -1.078,-0.362c-0.593,0.775 -1.704,0.922 -2.479,0.329c-0.774,-0.593 -0.922,-1.703 -0.329,-2.478c-0.605,-0.946 -0.64,0.142 -0.601,-0.98c0.042,-1.238 1.489,-1.979 2.294,-2.923c0.608,-0.712 1.235,-1.409 1.881,-2.09c-14.846,-3.345 -29.559,-4.773 -44.225,-4.367c-13.394,0.372 -26.738,2.333 -40.159,5.919c-0.213,0.296 -0.476,0.565 -0.786,0.792c-1,0.735 -2.257,0.872 -3.343,0.479c-1.041,0.488 -2.083,1.081 -3.139,0.799c-0.907,-0.242 -0.16,-0.181 -0.806,-0.865c-0.925,0.31 -1.927,-0.189 -2.237,-1.114c-0.311,-0.925 0.189,-1.928 1.114,-2.238c0.102,-0.939 -0.449,-0.439 0.136,-1.179c0.108,-0.137 0.23,-0.257 0.361,-0.361c-11.839,-14.179 -30.792,-26.818 -51.158,-35.665c-20.007,-8.691 -41.414,-13.68 -59.145,-12.446c-0.427,0.03 -0.855,0.104 -1.282,0.196c1.636,2.417 3.28,4.895 4.942,7.435c1.08,1.656 0.612,3.876 -1.043,4.955c-1.655,1.08 -3.876,0.612 -4.955,-1.043c-11.217,-17.261 -21.667,-31.443 -34.215,-43.527c-9.071,-8.738 -19.27,-16.33 -31.744,-23.187c-1.288,0.046 -2.507,-0.612 -3.178,-1.705c-1.904,-0.997 -3.861,-1.979 -5.873,-2.947c-1.48,-0.712 -3.551,-0.75 -4.518,-2.137c-0.496,-0.713 -0.019,-0.339 -0.087,-1.208c-0.896,-0.385 -1.313,-1.424 -0.929,-2.321c0.384,-0.897 1.424,-1.313 2.321,-0.929c0.679,-0.554 0.084,-0.635 0.948,-0.764c1.721,-0.256 3.194,1.309 4.74,1.991c0.281,0.124 0.562,0.249 0.842,0.374c-4.184,-12.299 -10.194,-23.457 -18.083,-32.925c-5.016,-6.019 -10.804,-11.335 -17.415,-15.812c-0.764,0.78 -1.875,1.203 -3.041,1.045c-1.958,-0.265 -3.332,-2.07 -3.067,-4.028c0.032,-0.242 0.064,-0.484 0.095,-0.727c-2.782,-1.558 -5.694,-2.981 -8.738,-4.261c-1.239,-0.521 -2.95,-0.425 -3.772,-1.518c-0.587,-0.781 -0.002,-0.19 -0.083,-1.165c-0.923,-0.313 -1.419,-1.318 -1.106,-2.242c0.313,-0.924 1.318,-1.419 2.242,-1.106c0.662,-0.731 -0.151,-0.608 0.8,-0.863c1.408,-0.378 2.76,0.898 4.102,1.401c2.467,0.924 4.856,1.944 7.169,3.055c0.915,-16.056 -2.008,-32.665 -7.071,-48.95c-6.913,-22.231 -17.943,-43.822 -29.377,-62.525c-1.182,-0.61 -1.92,-1.828 -1.937,-3.135c-0.973,-1.558 -1.947,-3.095 -2.921,-4.609c-1.445,-2.247 -3.903,-4.055 -4.295,-6.602c-0.111,-0.724 0.187,-0.632 0.388,-1.334c-0.555,-0.802 -0.356,-1.904 0.446,-2.46c0.802,-0.555 1.904,-0.356 2.46,0.446c0.731,0.058 0.75,-0.247 1.391,0.116c2.275,1.29 3.062,4.304 4.584,6.548c0.009,0.013 0.018,0.026 0.026,0.039Zm653.871,-17.635c-0.22,-0.513 0.054,-0.188 -0,0Zm-5.052,-1.307c-0.172,-0.31 0.984,-0.654 -0,0Zm-383.412,-321.976c-0.827,-0.329 -1.648,-0.66 -2.462,-0.995c-1.685,-0.693 -3.907,-0.707 -4.954,-2.139c-0.504,-0.69 -0.046,-0.379 -0.138,-1.225c-0.9,-0.375 -1.327,-1.411 -0.951,-2.312c0.375,-0.9 1.411,-1.327 2.311,-0.951c0.663,-0.529 0.116,-0.64 0.957,-0.77c1.713,-0.266 3.271,1.226 4.942,1.843c1.606,0.593 3.237,1.177 4.888,1.747c0.889,-0.177 1.846,-0.018 2.663,0.519c0.269,0.177 0.507,0.384 0.712,0.615c13.541,4.424 28.272,7.685 42.37,6.962c11.151,-0.571 21.91,-3.603 31.242,-10.787c-1.652,-0.986 -3.4,-1.839 -4.083,-3.415c-0.308,-0.709 0.023,-0.56 0.073,-1.322c-0.76,-0.612 -0.881,-1.726 -0.269,-2.486c0.612,-0.76 1.725,-0.88 2.485,-0.268c0.726,-0.21 0.503,-0.516 1.255,-0.377c2.089,0.386 3.5,2.594 5.401,3.936c0.501,0.355 1.01,0.711 1.526,1.067c0.478,0.191 0.922,0.488 1.295,0.888c15.304,10.406 36.206,21.476 56.939,27.598c15.871,4.686 31.619,6.598 44.534,2.562c-0.247,-0.441 -0.492,-0.882 -0.736,-1.324c-0.54,-0.98 -1.062,-1.966 -1.582,-2.951c-0.052,-0.098 -0.164,-0.184 -0.156,-0.296c0.069,-0.94 0.14,-0.199 0.697,-0.959c-0.473,-0.853 -0.164,-1.93 0.69,-2.402c0.854,-0.473 1.93,-0.164 2.403,0.69c0.936,-0.069 0.346,-0.527 1.178,-0.091c1.3,0.681 1.507,2.523 2.271,3.789c7.47,12.384 16.206,24.536 27.094,33.959c7.888,6.827 16.879,12.239 27.321,15.188c2.101,0.615 4.275,0.992 6.476,1.272c3.409,0.434 6.877,0.648 10.273,1.008c-0.434,-0.952 -0.832,-1.897 -1.192,-2.832c-0.455,-1.18 -1.543,-2.364 -1.166,-3.497c0.361,-1.088 -0.008,-0.03 0.904,-0.711c-0.288,-0.932 0.235,-1.923 1.168,-2.21c0.932,-0.288 1.922,0.235 2.21,1.167c1.121,0.048 0.221,-0.646 1.134,0.021c0.84,0.613 0.767,1.965 1.213,2.973c0.941,2.131 2.096,4.308 3.431,6.502c1.029,0.58 1.71,1.641 1.809,2.818c3.921,5.816 9.004,11.655 14.634,16.959c8.166,7.691 17.46,14.297 26.186,17.734c-0.086,-0.945 -0.16,-1.884 -0.229,-2.817c-0.011,-0.145 -0.093,-0.303 -0.032,-0.435c0.345,-0.742 0.354,-0.268 1.014,-0.745c-0.083,-0.972 0.639,-1.829 1.611,-1.912c0.972,-0.083 1.829,0.639 1.912,1.611c0.726,0.354 0.658,-0.125 1.126,0.538c0.081,0.114 0.031,0.279 0.046,0.419c0.154,1.381 0.336,2.775 0.524,4.184c0.075,0.568 0.154,1.138 0.236,1.71c0.785,0.873 1.125,2.115 0.796,3.332c-0.052,0.192 -0.119,0.376 -0.199,0.551c2.15,13.068 5.837,26.989 10.897,40.357c6.45,17.037 15.071,33.191 25.619,45.389c1.515,1.779 3.159,3.374 4.857,4.89c4.357,3.888 9.058,7.281 13.188,11.503c0.001,0.001 0.002,0.002 0.004,0.004c0.273,-0.733 0.546,-1.457 0.817,-2.172c0.9,-2.368 0.947,-5.226 2.669,-6.78c0.56,-0.506 0.577,-0.168 1.294,-0.372c0.347,-0.912 1.369,-1.37 2.281,-1.023c0.912,0.347 1.37,1.369 1.023,2.281c0.399,0.628 0.639,0.384 0.723,1.133c0.255,2.28 -1.562,4.436 -2.388,6.802c-6.797,19.462 -14.668,45.492 -14.892,69.445c-0.145,15.439 2.82,30.031 11.801,41.162c0.354,-1.243 0.75,-2.481 1.19,-3.715c0.084,-0.236 0.055,-0.566 0.269,-0.697c0.099,-0.06 0.185,-0.115 0.259,-0.164c0.06,0.11 0.287,0.215 0.834,0.27c0.257,-0.941 1.23,-1.497 2.171,-1.24c0.941,0.256 1.497,1.229 1.24,2.17c0.586,0.298 0.771,0.234 0.807,0.107c0.042,0.098 0.101,0.227 0.185,0.393c0.301,0.598 -0.197,1.313 -0.314,1.968c-0.426,2.386 -0.78,4.745 -1.034,7.106c0.517,1.125 0.424,2.472 -0.302,3.526c-0.059,0.942 -0.1,1.887 -0.123,2.836c-0.043,1.868 -0.097,3.751 0.038,5.666c0.168,1.968 -1.294,3.704 -3.262,3.872c-0.618,0.053 -1.212,-0.054 -1.743,-0.287c-0.067,0.046 -0.136,0.091 -0.208,0.133c-8.874,5.257 -13.787,17.599 -16.509,31.413c-3.536,17.947 -2.99,38.545 0.024,51.564c0.409,1.765 1.622,3.34 1.325,4.844c-0.164,0.833 -0.279,0.265 -0.813,0.899c0.352,0.91 -0.102,1.935 -1.012,2.286c-0.91,0.351 -1.934,-0.102 -2.286,-1.012c-0.846,-0.114 -0.546,0.334 -1.231,-0.21c-0.541,-0.43 -0.847,-1.063 -1.053,-1.793c-1.871,1.243 -3.561,3.265 -5.163,5.483c-3.636,5.034 -6.55,11.283 -8.498,15.013c-7.109,13.298 -14.298,26.064 -19.437,39.687c-1.743,4.619 -3.245,9.337 -4.422,14.215c0.498,0.447 0.875,1.039 1.061,1.733c0.492,1.841 -0.546,3.734 -2.333,4.324c-0.289,1.619 -0.541,3.257 -0.752,4.916c-0.097,0.762 0.179,1.669 -0.277,2.297c-0.494,0.681 -0.352,0.143 -1.12,0.493c-0.075,0.973 -0.925,1.702 -1.898,1.627c-0.973,-0.075 -1.702,-0.926 -1.627,-1.899c-0.713,-0.469 -0.645,0.069 -1.025,-0.694c-0.366,-0.736 0.106,-1.636 0.178,-2.447c0.071,-0.803 0.152,-1.603 0.242,-2.398c-15.498,5.242 -29.727,14.38 -41.923,25.785c-12.426,11.62 -22.7,25.634 -29.961,40.565c-0.743,1.528 -0.788,3.611 -2.157,4.597c-0.696,0.501 -0.358,0.025 -1.211,0.11c-0.372,0.902 -1.407,1.331 -2.309,0.959c-0.901,-0.373 -1.331,-1.408 -0.958,-2.309c-0.547,-0.668 -0.635,-0.102 -0.767,-0.956c-0.177,-1.145 0.448,-2.201 1.104,-3.25c-0.224,-0.026 -0.449,-0.073 -0.673,-0.143c-8.646,-2.727 -21.337,2.663 -33.878,10.497c-15.788,9.863 -31.144,24.12 -37.654,34.914c-0.913,1.514 -1.075,3.369 -2.191,4.272c-0.654,0.529 -0.387,-0.007 -1.189,0.146c-0.301,0.928 -1.298,1.438 -2.226,1.137c-0.928,-0.301 -1.438,-1.298 -1.137,-2.227c-0.591,-0.628 -0.627,-0.104 -0.806,-0.974c-0.353,-1.712 1.345,-3.455 2.388,-5.338c6.476,-11.687 22.369,-27.343 38.985,-37.984c14.544,-9.315 29.764,-14.458 39.862,-11.273c0.599,0.189 1.113,0.521 1.517,0.946c7.014,-14.241 16.773,-27.573 28.459,-38.764c13.708,-13.127 30.139,-23.235 47.949,-28.606c1.112,-5.682 2.679,-11.166 4.56,-16.524c4.923,-14.02 12.099,-27.15 19.124,-40.84c2.429,-4.617 6.292,-12.828 11.118,-18.444c2.282,-2.656 4.802,-4.749 7.437,-5.914c-2.942,-13.645 -3.595,-33.329 -0.383,-50.655c2.99,-16.125 9.56,-30.107 19.897,-36.229c0.496,-0.294 1.035,-0.455 1.574,-0.492c-0.027,-2.21 0.075,-4.393 0.317,-6.556c-12.944,-12.843 -17.553,-30.774 -17.214,-49.993c0.378,-21.432 6.802,-44.445 13.426,-63.144c-1.035,0.098 -2.105,-0.252 -2.891,-1.049c-4.053,-4.072 -8.676,-7.307 -12.94,-11.061c-1.958,-1.723 -3.842,-3.552 -5.588,-5.581c-10.93,-12.892 -19.945,-29.846 -26.438,-47.8c-4.943,-13.665 -8.477,-27.889 -10.368,-41.251c-10.48,-3.308 -22.15,-11.03 -31.956,-20.603c-5.858,-5.718 -11.074,-12.064 -15.041,-18.384c-4.96,-0.926 -10.27,-0.965 -15.437,-1.582c-2.594,-0.31 -5.153,-0.758 -7.63,-1.469c-14.279,-4.244 -26.105,-12.557 -35.977,-23.044c-6.621,-7.034 -12.391,-15.016 -17.458,-23.318c-14.437,5.046 -32.342,3.453 -50.288,-2.019c-20.524,-6.257 -41.14,-17.398 -56.491,-28.171c-10.932,9.114 -23.692,13.101 -36.988,13.633c-14.575,0.583 -29.788,-2.918 -43.703,-7.838c-9.177,12.99 -21.8,21.349 -36.075,26.041c-19.365,6.364 -41.742,6.091 -62.04,2.138c-2.048,-0.399 -4.534,0.034 -6.067,-1.334c-0.598,-0.533 -0.172,-0.448 -0.442,-1.2c-0.953,-0.21 -1.556,-1.154 -1.346,-2.107c0.21,-0.952 1.153,-1.555 2.106,-1.346c0.557,-0.564 0.125,-0.673 0.884,-0.91c1.894,-0.592 3.922,0.706 5.911,1.027c19.337,3.128 40.44,3.145 58.724,-3.063c12.236,-4.155 23.221,-11.063 31.384,-21.859Zm-291.498,170.04c-0.888,-0.66 -1.46,-1.72 -1.448,-2.91c0.238,-21.908 8.031,-42.972 20.591,-60.953c11.187,-16.015 26.085,-29.633 42.45,-39.245c0.579,-0.341 1.135,-0.787 1.694,-1.224c2.381,-17.086 9.842,-35.662 21.805,-48.526c10.503,-11.295 24.485,-18.188 41.441,-16.488c1.966,0.197 3.402,1.953 3.205,3.919c-0.197,1.966 -1.953,3.403 -3.919,3.206c-14.548,-1.457 -26.395,4.672 -35.506,14.269c-10.787,11.362 -17.761,27.567 -20.635,42.818c0.193,0.147 0.359,0.337 0.483,0.564c0.464,0.858 0.145,1.931 -0.713,2.396c-0.028,0.816 0.39,0.54 -0.03,1.241c-0.146,0.243 -0.321,0.456 -0.52,0.645c-0.123,0.923 -0.23,1.841 -0.322,2.751c-0.19,1.896 0.532,4.012 -0.399,5.577c-0.415,0.697 -0.389,0.206 -1.081,0.62c-0.001,0.975 -0.793,1.767 -1.769,1.766c-0.975,-0 -1.767,-0.793 -1.766,-1.768c-0.704,-0.422 -0.667,0.045 -1.075,-0.671c-0.754,-1.324 -0.329,-2.988 -0.038,-4.624c-14.455,9.475 -27.564,22.104 -37.556,36.744c-10.798,15.821 -18.005,33.96 -19.051,52.976c0.252,-0.278 0.504,-0.554 0.757,-0.829c1.821,-1.975 3.109,-4.822 5.574,-5.62c0.707,-0.229 0.644,0.068 1.377,0.168c0.707,-0.673 1.827,-0.645 2.499,0.061c0.673,0.706 0.646,1.826 -0.06,2.499c0.063,0.725 0.387,0.67 0.139,1.357c-0.834,2.317 -3.45,3.58 -5.141,5.495c-15.101,17.103 -27.719,41.063 -35.264,66.442c-8.114,27.291 -10.448,56.221 -3.182,79.915c0.669,-0.979 1.368,-1.953 2.097,-2.921c0.78,-1.036 1.185,-2.692 2.456,-3.072c1.011,-0.302 0.101,0.017 1.112,0.328c0.608,-0.763 1.721,-0.889 2.484,-0.281c0.763,0.607 0.89,1.72 0.282,2.484c0.526,0.909 0.644,-0.056 0.587,0.99c-0.068,1.239 -1.436,2.003 -2.122,3.002c-7.62,11.1 -11.538,22.56 -10.711,33.404c0.898,11.777 7.459,22.689 20.755,31.263c1.659,1.074 2.133,3.293 1.059,4.951c-1.074,1.659 -3.293,2.133 -4.952,1.059c-1.429,-0.93 -2.791,-1.884 -4.085,-2.862c-0.184,0.912 -0.414,1.831 -0.458,2.722c-1.009,20.723 2.195,41.537 9.365,60.949c7.062,19.119 17.914,36.891 32.437,51.718c0.018,-0.002 0.035,-0.003 0.054,-0.005c0.298,-0.929 1.294,-1.442 2.223,-1.144c0.929,0.298 1.441,1.294 1.143,2.223c0.736,0.644 0.611,-0.181 0.89,0.751c0.029,0.094 -0.053,0.19 -0.079,0.284c-0.152,0.547 -0.291,1.091 -0.421,1.631c0.466,0.441 0.936,0.878 1.409,1.313c1.454,1.338 1.548,3.605 0.209,5.059c-0.768,0.834 -1.842,1.221 -2.892,1.146c-0.825,9.336 1.359,17.716 5.54,25.208c8.682,15.559 25.764,27.283 42.581,35.089c0.035,0.017 0.07,0.034 0.104,0.051c0.043,-0.258 0.121,-0.509 0.242,-0.753c0.389,-0.782 0.282,-0.199 1.019,-0.673c-0.084,-0.972 0.636,-1.83 1.608,-1.914c0.972,-0.085 1.83,0.635 1.914,1.607c0.801,0.335 0.6,-0.236 1.121,0.454c1.01,1.336 0.435,3.29 0.695,4.887c2.945,18.074 10.738,31.722 22.109,42.35c12.447,11.634 29.047,19.703 48.019,25.802c0.528,0.17 0.989,0.452 1.366,0.812c-0.164,-0.248 -0.326,-0.495 -0.486,-0.74c-1.291,-1.981 -3.383,-3.644 -3.431,-5.716c-0.019,-0.792 0.216,-0.483 0.566,-1.178c-0.481,-0.849 -0.183,-1.928 0.666,-2.41c0.848,-0.481 1.928,-0.183 2.409,0.665c0.762,0.056 0.616,-0.333 1.282,0.069c1.67,1.009 2.182,3.413 3.452,5.239c10.055,14.452 27.81,32.938 46.376,41.518c13.913,6.43 28.316,7.208 39.856,-5.137c1.349,-1.443 3.617,-1.52 5.061,-0.171c1.443,1.35 1.52,3.617 0.17,5.061c-0.626,0.67 -1.258,1.309 -1.898,1.918c0.877,0.411 1.684,1.226 2.561,1.687c11.834,6.225 24.563,13.309 37.715,16.558c9.246,2.283 18.696,2.723 28.187,-0.744c-0.84,-0.847 -1.67,-1.71 -2.492,-2.586c-0.147,-0.157 -0.39,-0.263 -0.441,-0.473c-0.195,-0.796 0.108,-0.418 0.329,-1.209c-0.675,-0.704 -0.651,-1.824 0.053,-2.499c0.704,-0.675 1.824,-0.651 2.499,0.053c0.807,-0.204 0.39,-0.53 1.192,-0.311c0.29,0.079 0.426,0.423 0.639,0.633c3.167,3.135 6.432,6.084 10.008,8.636c2.55,1.82 5.261,3.435 8.229,4.74c11.229,4.974 31.075,6.581 50.244,4.663c18.949,-1.896 37.378,-7.113 45.669,-17.159c0.091,-0.11 0.187,-0.213 0.287,-0.309c-0.155,-0.014 -0.31,-0.027 -0.465,-0.04c-1.584,-0.136 -3.473,0.511 -4.754,-0.437c-0.726,-0.536 -0.112,-0.273 -0.454,-1.108c-0.974,-0.068 -1.709,-0.913 -1.641,-1.886c0.067,-0.973 0.912,-1.709 1.885,-1.641c0.455,-0.78 -0.189,-0.605 0.604,-1.035c1.4,-0.761 3.181,0.144 4.767,0.228c16.082,0.851 31.878,1.65 46.514,-1.934c10.373,-2.539 20.153,-7.279 28.983,-15.85c1.164,-1.112 2.255,-2.284 3.305,-3.489c4.592,-5.272 8.424,-11.152 13.397,-16.006c0.021,-0.021 0.042,-0.041 0.064,-0.061c-0.563,0.001 -1.115,-0.004 -1.655,-0.014c-2.268,-0.04 -4.67,0.662 -6.169,-0.414c-0.678,-0.486 -0.235,-0.411 -0.573,-1.145c-0.969,-0.112 -1.665,-0.989 -1.554,-1.959c0.112,-0.969 0.99,-1.665 1.959,-1.553c0.482,-0.619 -0.008,-0.672 0.73,-1.006c1.527,-0.691 3.555,0.147 5.615,0.116c14.488,-0.219 37.429,-4.31 56.143,-12.101c6.88,-2.865 13.177,-6.22 18.241,-10.072c5.758,-4.381 9.939,-9.342 11.042,-15.16c0.36,-1.943 2.229,-3.228 4.172,-2.869c1.943,0.36 3.229,2.229 2.869,4.172c-2.396,12.953 -16.126,23.532 -33.619,30.562c-17.046,6.852 -37.456,10.626 -52.437,11.324c0.081,0.069 0.16,0.142 0.236,0.219c1.386,1.408 1.369,3.677 -0.039,5.063c-4.797,4.765 -8.435,10.55 -12.868,15.709c-1.19,1.385 -2.436,2.726 -3.761,4.002c-9.954,9.424 -20.89,14.641 -32.491,17.272c-13.543,3.072 -27.987,2.671 -42.711,1.546c0.974,1.292 0.976,3.132 -0.099,4.434c-7.635,9.282 -22.773,15.496 -39.793,18.375c-23.434,3.963 -50.258,1.819 -64.264,-4.639c-4.179,-1.943 -7.909,-4.398 -11.347,-7.226c-0.372,-0.306 -0.741,-0.617 -1.107,-0.931c-0.372,0.86 -1.079,1.574 -2.024,1.93c-11.069,4.171 -22.128,3.947 -32.872,1.131c-13.66,-3.58 -26.822,-11.237 -38.844,-18.289c-1.221,-0.717 -2.98,-0.917 -3.611,-2.152c-0.448,-0.875 0.02,-0.193 0.109,-1.169c-0.085,-0.046 -0.164,-0.098 -0.237,-0.155c-12.782,9.369 -27.714,8.23 -42.15,1.396c-18.7,-8.853 -36.531,-27.41 -46.934,-42.653c0.294,0.745 0.341,1.592 0.076,2.413c-0.608,1.88 -2.628,2.913 -4.508,2.306c-20.036,-6.509 -37.611,-15.083 -50.619,-27.541c-11.978,-11.471 -20.237,-26.161 -22.984,-45.319c-1.036,1.043 -2.654,1.38 -4.06,0.722c-18.083,-8.526 -36.443,-21.375 -45.524,-38.305c-5.159,-9.616 -7.443,-20.539 -5.086,-32.612c-16.281,-16 -28.472,-35.405 -36.016,-56.454c-7.278,-20.311 -10.315,-42.131 -8.698,-63.702c0.161,-2.148 -0.586,-4.661 0.645,-6.432c0.191,-0.275 0.3,-0.359 0.417,-0.393c-9.195,-8.705 -13.815,-18.839 -14.453,-29.469c-0.541,-9.009 1.763,-18.441 6.663,-27.628c-0.861,-0.398 -1.564,-1.134 -1.891,-2.103c-8.564,-25.402 -6.557,-56.991 2.506,-86.61c6.908,-22.575 17.844,-44.013 30.968,-60.639Zm354.567,-234.621c12.997,-8.585 27.552,-12.679 42.038,-12.636c18.663,0.054 37.257,7.097 52.629,20.288c0.365,0.314 0.651,0.685 0.856,1.089c15.119,-4.147 29.775,-3.908 42.509,0.579c15.738,5.545 28.606,17.666 36.155,36.379c19.462,-5.335 35.935,-4.03 49.198,2.809c15.768,8.13 27.127,24.298 33.796,47.436c0.02,0.073 0.039,0.146 0.055,0.219c11.752,2.339 23.345,8.022 33.624,15.675c13.875,10.33 25.307,24.314 31.658,38.469c2.339,5.295 4.111,10.909 5.496,16.656c2.019,8.375 3.23,17.029 4.408,25.317c0.21,1.435 -0.465,2.796 -1.611,3.532c12.409,8.534 24.566,21.581 33.379,36.267c11.43,19.046 17.061,40.872 11.269,59.314c-0.382,1.212 -1.351,2.077 -2.496,2.382c3.584,4.663 6.073,9.15 7.81,13.637c3.169,8.19 3.809,16.485 3.475,26.232c-0.25,7.335 -1.105,15.528 -1.588,25.243c-0.091,1.974 -1.768,3.502 -3.742,3.411c-0.775,-0.036 -1.481,-0.316 -2.047,-0.762c4.077,13.873 8.478,30.403 7.888,45.783c-0.419,10.915 -3.391,21.241 -10.394,29.822c0.716,0.54 1.232,1.347 1.383,2.302c2.375,15.235 -2.132,35.033 -10.334,53.502c-5.957,13.412 -13.784,26.143 -21.971,35.904c1.888,0.384 3.143,2.204 2.814,4.115c-3.67,21 -9.556,42.935 -21.919,59.693c-6.219,8.432 -14.045,15.599 -23.958,20.689c0.049,0.402 0.029,0.819 -0.068,1.237c-3.802,16.174 -8.765,28.73 -17.153,37.556c-7.853,8.263 -18.639,13.489 -34.202,15.104c-1.201,0.125 -2.603,0.928 -3.69,0.286c-0.946,-0.559 -0.029,-0.037 -0.501,-1.035c-0.972,0.084 -1.829,-0.638 -1.913,-1.61c-0.083,-0.972 0.638,-1.829 1.61,-1.913c0.292,-1.058 -0.532,-0.39 0.294,-1.105c0.9,-0.778 2.329,-0.317 3.454,-0.486c13.642,-2.057 23.044,-6.607 29.843,-14.011c6.844,-7.453 11.081,-17.638 14.354,-30.561c-0.673,0.24 -1.355,0.471 -2.046,0.694c-0.11,0.035 -0.218,0.135 -0.33,0.106c-0.912,-0.23 -0.185,-0.167 -0.836,-0.851c-0.924,0.311 -1.928,-0.187 -2.239,-1.111c-0.311,-0.925 0.187,-1.928 1.111,-2.24c0.104,-0.926 -0.457,-0.439 0.112,-1.173c0.066,-0.085 0.201,-0.075 0.3,-0.113c1.01,-0.38 1.994,-0.788 2.965,-1.201c11.824,-5.032 20.638,-12.824 27.379,-22.264c11.067,-15.5 16.573,-35.356 19.983,-54.633c-1.091,1.227 -1.889,2.98 -3.386,3.278c-0.894,0.178 -0.29,-0.086 -1.138,-0.401c-0.71,0.67 -1.829,0.638 -2.499,-0.072c-0.67,-0.709 -0.638,-1.829 0.072,-2.498c-0.262,-0.855 -0.582,-0.26 -0.369,-1.134c0.353,-1.449 2.094,-2.19 3.151,-3.37c8.992,-10.042 17.842,-24.445 24.372,-39.674c7.169,-16.719 11.646,-34.41 9.844,-48.346c-1.039,0.097 -2.111,-0.257 -2.897,-1.059c-1.382,-1.412 -1.358,-3.681 0.054,-5.064c8.053,-7.886 11.042,-17.991 11.591,-28.684c0.768,-14.985 -3.333,-31.145 -6.726,-44.721c-0.385,-1.54 -1.556,-3.083 -1.091,-4.522c0.285,-0.881 0.208,-0.181 0.906,-0.781c-0.255,-0.942 0.304,-1.913 1.246,-2.167c0.942,-0.254 1.913,0.304 2.167,1.246c0.903,0.167 0.486,-0.401 1.175,0.216c0.124,0.111 0.232,0.233 0.326,0.365c0.88,-16.412 2.571,-28.335 0.725,-39.309c-1.677,-9.974 -6.498,-19.036 -17.766,-30.392c-0.847,-0.854 -2.354,-1.376 -2.629,-2.619c-0.226,-1.026 0.042,-0.086 0.418,-1.074c-0.723,-0.656 -0.777,-1.775 -0.121,-2.497c0.655,-0.722 1.774,-0.777 2.497,-0.121c0.972,-0.499 -0.052,-0.648 1.027,-0.519c0.091,0.011 0.138,0.12 0.208,0.18c0.708,0.611 1.399,1.213 2.065,1.818c2.516,2.29 4.752,4.514 6.74,6.69c5.049,-16.567 -0.543,-35.961 -10.59,-53.151c-9.107,-15.582 -21.984,-29.352 -34.826,-37.599c-1.467,-0.942 -3.513,-1.209 -4.377,-2.626c-0.439,-0.721 0.012,-0.379 -0.016,-1.217c-0.869,-0.442 -1.217,-1.507 -0.775,-2.377c0.441,-0.87 1.506,-1.217 2.376,-0.776c0.705,-0.48 0.18,-0.62 1.037,-0.676c1.302,-0.085 2.42,0.83 3.554,1.712c-1.152,-7.683 -2.385,-15.652 -4.276,-23.385c-1.299,-5.317 -2.904,-10.525 -5.065,-15.43c-5.736,-13.223 -16.281,-26.259 -29.012,-36.066c-11.482,-8.846 -24.748,-15.058 -38.025,-16.281c-1.224,-0.113 -2.459,-0.049 -3.67,-0.224c-0.13,-0.019 -0.262,-0.025 -0.367,-0.104c-0.586,-0.44 -0.181,-0.349 -0.564,-0.974c-0.976,0.013 -1.778,-0.77 -1.79,-1.745c-0.012,-0.976 0.77,-1.778 1.746,-1.79c0.375,-0.648 0.002,-0.529 0.6,-0.982c0.116,-0.087 0.266,-0.082 0.41,-0.101c1.349,-0.179 2.724,0.016 4.089,0.104c0.079,0.005 0.157,0.01 0.236,0.015c-6.048,-19.47 -15.781,-33.233 -29.318,-40.42c-12.626,-6.703 -28.447,-7.575 -47.586,-2.371c-1.582,0.43 -3.158,1.775 -4.818,1.387c-0.839,-0.196 -0.246,-0.247 -0.875,-0.84c-0.924,0.314 -1.929,-0.181 -2.242,-1.105c-0.314,-0.924 0.181,-1.929 1.105,-2.242c0.139,-0.86 -0.349,-0.539 0.206,-1.205c0.337,-0.403 0.764,-0.67 1.241,-0.859c-6.691,-16.106 -17.868,-26.554 -31.511,-31.569c-12.727,-4.678 -27.534,-4.619 -42.97,-0.122c-1.409,0.411 -2.789,1.653 -4.249,1.315c-0.898,-0.209 -0.177,-0.192 -0.837,-0.839c-0.915,0.338 -1.932,-0.131 -2.27,-1.046c-0.338,-0.915 0.131,-1.932 1.046,-2.27c0.082,-0.929 -0.44,-0.447 0.119,-1.189c0.257,-0.341 0.589,-0.58 0.966,-0.757c-13.498,-10.74 -29.455,-16.389 -45.496,-16.636c-15.313,-0.235 -30.675,4.497 -44.215,14.587c-1.267,0.944 -2.176,2.696 -3.768,2.948c-0.866,0.138 -0.294,-0.133 -1.112,-0.454c-0.731,0.646 -1.849,0.578 -2.496,-0.153c-0.646,-0.731 -0.577,-1.849 0.154,-2.495c-0.221,-0.862 -0.541,-0.333 -0.285,-1.182c0.466,-1.543 2.297,-2.195 3.616,-3.133c-21.095,-6.581 -42.962,-10.213 -63.296,-7.414c-18.707,2.575 -36.054,10.696 -50.39,27.272c-1.268,1.466 -1.918,3.758 -3.754,4.578c-0.719,0.322 -0.47,-0.049 -1.259,-0.102c-0.575,0.788 -1.682,0.961 -2.47,0.385c-0.788,-0.575 -0.961,-1.681 -0.386,-2.47c-0.314,-0.752 -0.565,-0.366 -0.472,-1.172c0.017,-0.148 0.173,-0.242 0.26,-0.363c0.88,-1.226 1.771,-2.418 2.685,-3.569c11.705,-14.74 25.796,-23.677 41.077,-28.383c25.505,-7.853 54.484,-3.732 82.047,5.006c0.939,0.3 1.668,0.952 2.089,1.764Zm-224.993,85.035c-0.305,0.927 -1.305,1.432 -2.232,1.127c-0.927,-0.305 -1.432,-1.305 -1.127,-2.232c-0.509,-0.616 -0.65,-0.212 -0.799,-1.001c-0.384,-2.022 1.322,-3.943 2.115,-5.929c7.079,-17.718 20.555,-36.16 37.234,-49.57c19.333,-15.544 42.994,-24.193 66.049,-18.108c1.91,0.507 3.049,2.469 2.543,4.379c-0.507,1.91 -2.469,3.049 -4.379,2.543c-20.903,-5.575 -42.181,2.729 -59.863,16.653c-15.941,12.554 -28.959,29.76 -36.125,46.37c-0.795,1.842 -0.751,4.194 -2.188,5.483c-0.588,0.528 -0.465,0.095 -1.228,0.285Z"/><path d="M621.857,246.105l0,-32.5l-297.5,-0c-86.666,-0 -146.666,56.666 -168.333,133.333l21.667,12.5c25.833,-40.833 45,-45.833 142.5,-45.833c-15,100 -73.334,187.5 -120.834,270l4.167,22.5l103.333,-0c25,-57.5 46.667,-205 51.667,-292.5l108.333,-0c-17.5,75.833 -35.833,135.833 -35.833,204.166c0,65 30,95.834 80,95.834c59.167,-0 95,-55.834 110.833,-104.167l-20,-13.333c-14.166,15.833 -24.166,31.666 -60.833,31.666c-37.5,0 -43.333,-28.333 -43.333,-67.5c-0,-60.833 8.333,-115.833 13.333,-146.666l100,-0l10.833,-67.5Z" style="fill:#502e0f;fill-rule:nonzero;"/></svg>