<?xml version="1.0" encoding="UTF-8" standalone="no"?>
<!DOCTYPE svg PUBLIC "-//W3C//DTD SVG 1.1//EN" "http://www.w3.org/Graphics/SVG/1.1/DTD/svg11.dtd"><svg width="100%"
    height="100%" viewBox="0 0 788 803" version="1.1" xmlns="http://www.w3.org/2000/svg"
    xmlns:xlink="http://www.w3.org/1999/xlink" xml:space="preserve" xmlns:serif="http://www.serif.com/"
    style="fill-rule:evenodd;clip-rule:evenodd;stroke-linejoin:round;stroke-miterlimit:2;">
    <style>
        #rainbow {
            --red: #ff8978;
            --orange: #f89300;
            --yellow: #bead00;
            --green: #8fb682;
            --blue: #60b0ff;
            --purple: #f27cff;
        }
    </style>
    <defs>
        <linearGradient id="rainbow" gradientTransform="rotate(135, 0.5, 0.5)" >
            <stop stop-color="var(--red)" offset="1%" />
            <stop stop-color="var(--orange)" offset="25%" />
            <stop stop-color="var(--yellow)" offset="40%" />
            <stop stop-color="var(--green)" offset="60%" />
            <stop stop-color="var(--blue)" offset="75%" />
            <stop stop-color="var(--purple)" offset="99%" />
        </linearGradient>
    </defs>
    <ellipse cx="391.327" cy="400.038" rx="355.067" ry="365.606" style="fill:#ab6b4a;" />
    <path
        d="M78.275,396.142c30.433,-7.087 69.634,-19.429 99.352,-30.39c4.115,9.126 7.987,18.205 11.625,27.117c10.342,25.334 21.148,53.995 30.035,79.633c-41.37,12.156 -81.136,21.13 -116.222,25.672c-7.176,-24.184 -19.427,-47.715 -32.094,-67.719c3.236,-10.625 5.68,-22.246 7.304,-34.313Zm70.201,202.61c30.462,-3.233 65.556,-9.192 102.985,-17.588c6.723,27.674 12.255,63.788 16.845,92.199c-19.333,-6.531 -38.985,-9.279 -54.734,-6.315c-17.1,-24.635 -33.921,-42.538 -61.292,-56.724c-1.099,-3.958 -2.365,-7.821 -3.804,-11.572Zm-39.796,-345.487c10.715,12.041 20.622,25.374 29.775,39.461c-19.297,10.101 -41.083,22.046 -60.15,32.403c-1.003,-7.141 -2.331,-14.052 -3.988,-20.609c12.744,-15.392 26.102,-32.57 34.363,-51.255Zm250.932,424.332c-1.646,-7.024 -3.229,-13.813 -4.311,-19.733c-6.273,-34.34 -14.196,-68.486 -22.788,-97.762c42.328,-12.476 85.49,-27.511 126.674,-44.756c0.907,2.478 1.809,4.959 2.705,7.444c11.606,32.186 24.02,66.58 33.352,100.756c-44.438,21.474 -90.325,40.048 -135.632,54.051Zm-118.311,-338.137c35.106,-16.058 69.7,-34.344 103.116,-53.769c24.752,35.788 46.323,73.549 65.489,112.802c-37.659,18.31 -78.215,35.453 -118.909,50.299c-11.538,-26.866 -25.088,-56.873 -39.17,-86.92c-3.479,-7.422 -6.981,-14.902 -10.526,-22.412Zm327.352,245.305c-8.926,-33.516 -20.552,-69.22 -34.197,-105.395c43.55,-22.713 83.475,-47.164 116.809,-74.24c14.274,25.283 32.472,51.87 43.022,78.95c-0.093,6.034 0.182,11.909 0.763,17.28c-23.932,24.96 -62.007,44.214 -90.867,62.164c-11.599,7.215 -23.458,14.308 -35.53,21.241Zm-42.196,-435.712c5.77,-7.134 13.519,-16.681 18.288,-24.296c10.436,12.226 23.129,22.198 39.022,26.802c7.629,2.21 16.122,1.623 23.717,3.273c10.531,17.072 31.003,34.756 47.936,39.341c0.571,4.067 1.295,8.223 2.167,12.428c-4.06,14.423 -20.196,33.274 -39.749,51.896c-27.64,-37.025 -59.347,-74.548 -91.381,-109.444Zm53.456,139.821l-93.834,68.724l-67.363,-115.079l71.807,-52.591l89.39,98.946Zm-360.982,-151.302l-17.461,2.707l-40.32,51.874l40.455,68.764l81.405,-47.892l-64.079,-75.453Zm162.326,-47.463l-39.164,-8.094l-48.135,31.85l61.611,53.181l62.122,-49.027l-36.434,-27.91Z"
        style="fill:#6e0012;" />
    <path
        d="M47.912,248.701c-14.309,20.023 -24.785,41.196 -30.552,63.78l-8.636,40.476c-2.846,17.66 1.078,32.117 6.585,45.824l57.903,27.41l8.69,-51.346l-3.636,-73.329l27.803,-39.957l9.933,-38.744l47.941,-34.586l36.283,-47.184l30.94,-9.958l16.451,-20.668c16.17,2.476 34.475,2.792 57.573,-1.744c18.103,-9.566 28.964,-19.132 33.823,-28.697c12.882,5.334 27.991,8.882 47.504,8.898c12.411,0.282 23.945,-3.93 34.447,-13.437l58.595,28.418c16.535,5.441 33.07,5.65 49.605,0.628l34.148,39.218l43.791,11.95c11.044,17.149 26.892,31.606 47.933,43.154l25.096,72.95l33.355,29.402l-13.099,63.997c-0.4,19.05 5.727,36.513 16.709,52.797c-10.391,15.214 -17.117,30.216 -20.506,45.026l-2.192,53.312c-7.955,2.728 -15.319,12.538 -21.724,33.803c-10.492,13.513 -16.755,29.86 -21.201,47.422c-12.736,2.819 -26.687,10.121 -42.022,22.524c-14.275,13.364 -25.234,27.82 -33.447,43.181c-12.041,-4.279 -25.046,-1.195 -38.956,8.791c-20.425,12.649 -29.867,22.662 -35.923,31.863c-14.008,-5.141 -27.715,-4.069 -41.313,-0.748l-31.081,15.575c-17.051,-6.083 -32.277,-8.635 -45.3,-6.925c-18.339,-0.56 -34.016,1.729 -45.804,8.178c-22.753,-23.303 -41.553,-36.227 -58.232,-43.58c-20.998,-8.169 -41.996,-12.774 -62.994,-10.453l-36.676,-36.882l-29.716,-19.177l-14.154,-33.912l-28.096,-27.876l-5.472,-54.164l-31.527,-68.881l-55.452,-26.249l-7.246,29.078l12.831,36.566l9.382,64.124l35.682,55.569c-1.844,13.469 0.758,26.654 8.823,39.49c8.88,11.693 23.027,22.087 44,30.797c4.759,14.482 12.865,30.938 28.157,51.634c12.212,7.885 27.178,14.251 49.753,16.42c12.731,15.657 30.426,30.894 56.316,45.437c8.502,2.031 18.48,0.692 30.693,-5.757l47.963,23.236l30.384,-4.919l37.309,15.064l46.961,-3.301l31.209,-19.171l55.182,-6.263c21.365,-16.676 32.338,-28.595 35.505,-36.942l64.261,-17.5c10.932,-9.87 19.395,-20.146 23.33,-31.168c7.066,-3.309 15.429,-8.38 26.767,-17.488l11.204,-31.968l31.813,-29.814l13.404,-50.885l23.934,-46.206l7.141,-47.777l9.449,-30.393l-3.608,-50.485l3.455,-38.97l-9.611,-28.534c3.132,-14.644 2.989,-29.838 -2.866,-45.99c-10.939,-15.843 -25.454,-33.485 -41.75,-52.024c0.001,-14.372 -5.237,-34.669 -14.41,-59.416c-16.326,-14.559 -34.707,-27.184 -56.483,-36.617l-30.589,-45.934c-18.491,-6.937 -35.989,-7.43 -52.722,-2.953c-7.46,-14.882 -17.939,-25.802 -30.15,-34.451c-16.586,-6.914 -32.864,-6.688 -48.961,-2.248c-13.589,-13.304 -30.16,-18.985 -48.163,-21.005c-18.394,-2.211 -33.565,3.062 -47.039,12.27c-23.585,-9.214 -44.755,-11.86 -64.723,-11.233c-22.783,4.096 -39.309,12.524 -51.23,24.142c-18.449,-7.812 -35.29,-5.928 -51.235,1.362c-23.259,16.124 -38.628,30.763 -52.781,53.214c-13.974,-2.87 -28.75,0.06 -44.103,7.155c-13.781,19.123 -21.482,38.386 -24.146,57.766c-19.647,9.785 -36.573,25.014 -51.402,44.442l-8.32,29.282l-0.767,22.284Z"
        style="fill:#582b00;" />
    <path
        d="M723.34,405.01c-0.22,-0.513 0.054,-0.188 -0,0Zm-5.052,-1.307c-0.172,-0.31 0.984,-0.654 -0,0Zm-648.819,18.942c4.525,-17.165 7.037,-36.503 7.618,-55.86c0.592,-19.695 -0.88,-39.405 -4.541,-56.944c-0.218,-1.043 -0.727,-2.086 -1.051,-3.117c-1.014,-1.296 -1.027,-3.168 0.064,-4.487c11.665,-14.003 23.778,-29.69 32.114,-46.576c4.735,-9.591 8.242,-19.562 9.66,-29.92c-1.363,0.732 -2.74,1.461 -4.131,2.191c-1.805,0.946 -3.418,2.867 -5.499,2.815c-0.792,-0.019 -0.419,-0.236 -1.109,-0.63c-0.862,0.455 -1.933,0.125 -2.388,-0.738c-0.455,-0.863 -0.125,-1.933 0.738,-2.389c0.064,-0.789 -0.328,-0.604 0.1,-1.269c1.117,-1.733 3.58,-2.001 5.343,-2.987c19.212,-10.745 35.729,-21.288 50.37,-33.867c14.663,-12.597 27.485,-27.178 39.228,-46.015c-2.275,0.082 -4.553,0.102 -6.826,0.071c-0.973,-0.013 -2.146,0.506 -2.912,-0.09c-1.041,-0.809 0.05,0.188 -0.322,-1.075c-0.976,-0.002 -1.766,-0.795 -1.765,-1.771c0.002,-0.975 0.795,-1.766 1.77,-1.765c0.383,-1.072 -0.538,-0.401 0.379,-1.077c0.908,-0.67 2.254,-0.114 3.384,-0.168c3.63,-0.172 7.265,-0.446 10.86,-0.876c0.839,-0.502 1.865,-0.648 2.826,-0.373c2.701,-0.391 5.373,-0.881 7.997,-1.493c0.543,-0.294 1.152,-0.442 1.765,-0.433c3.083,-0.793 6.093,-1.766 8.998,-2.96c7.202,-2.958 13.79,-7.213 19.133,-13.597c1.269,-1.515 3.529,-1.716 5.044,-0.447c1.515,1.268 1.716,3.528 0.448,5.043c-7.077,8.409 -15.946,13.794 -25.764,16.978c4.747,3.75 9.403,7.938 13.93,12.422c14.176,14.046 27.252,30.809 39.682,44.112c3.674,3.998 7.541,8.692 11.164,12.966c7.141,-4.404 14.233,-8.88 21.27,-13.441c14.576,-9.447 28.924,-19.235 42.96,-29.479c-1.05,-0.951 -2.1,-1.894 -3.143,-2.835c-13.502,-12.174 -27.014,-22.812 -40.594,-34.278c-5.385,-4.547 -10.726,-9.283 -16.121,-14.237c-15.238,2.306 -31.402,1.396 -46.426,-1.53c-2.048,-0.399 -4.534,0.034 -6.067,-1.334c-0.598,-0.533 -0.172,-0.448 -0.442,-1.2c-0.953,-0.21 -1.556,-1.154 -1.346,-2.107c0.21,-0.952 1.153,-1.555 2.106,-1.346c0.557,-0.564 0.125,-0.673 0.884,-0.91c1.894,-0.592 3.922,0.706 5.911,1.027c19.337,3.128 40.44,3.145 58.724,-3.063c12.236,-4.155 23.221,-11.063 31.384,-21.859c-0.827,-0.329 -1.648,-0.66 -2.462,-0.995c-1.685,-0.693 -3.907,-0.707 -4.954,-2.139c-0.504,-0.69 -0.046,-0.379 -0.138,-1.225c-0.9,-0.375 -1.327,-1.411 -0.951,-2.312c0.375,-0.9 1.411,-1.327 2.311,-0.951c0.663,-0.529 0.116,-0.64 0.957,-0.77c1.713,-0.266 3.271,1.226 4.942,1.843c1.606,0.593 3.237,1.177 4.888,1.747c0.889,-0.177 1.846,-0.018 2.663,0.519c0.269,0.177 0.507,0.384 0.712,0.615c13.541,4.424 28.272,7.685 42.37,6.962c11.151,-0.571 21.91,-3.603 31.242,-10.787c-1.652,-0.986 -3.4,-1.839 -4.083,-3.415c-0.308,-0.709 0.023,-0.56 0.073,-1.322c-0.76,-0.612 -0.881,-1.726 -0.269,-2.486c0.612,-0.76 1.725,-0.88 2.485,-0.268c0.726,-0.21 0.503,-0.516 1.255,-0.377c2.089,0.386 3.5,2.594 5.401,3.936c0.501,0.355 1.01,0.711 1.526,1.067c0.478,0.191 0.922,0.488 1.295,0.888c15.304,10.406 36.206,21.476 56.939,27.598c15.871,4.686 31.619,6.598 44.534,2.562c-0.247,-0.441 -0.492,-0.882 -0.736,-1.324c-0.54,-0.98 -1.062,-1.966 -1.582,-2.951c-0.052,-0.098 -0.164,-0.184 -0.156,-0.296c0.069,-0.94 0.14,-0.199 0.697,-0.959c-0.473,-0.853 -0.164,-1.93 0.69,-2.402c0.854,-0.473 1.93,-0.164 2.403,0.69c0.936,-0.069 0.346,-0.527 1.178,-0.091c1.3,0.681 1.507,2.523 2.271,3.789c4.751,7.876 10.015,15.659 16.018,22.706c0.085,0.044 0.169,0.092 0.251,0.144c0.711,0.445 1.212,1.101 1.473,1.835c2.935,3.297 6.044,6.412 9.352,9.274c7.888,6.827 16.879,12.239 27.321,15.188c2.101,0.615 4.275,0.992 6.476,1.272c3.409,0.434 6.877,0.648 10.273,1.008c-0.434,-0.952 -0.832,-1.897 -1.192,-2.832c-0.455,-1.18 -1.543,-2.364 -1.166,-3.497c0.361,-1.088 -0.008,-0.03 0.904,-0.711c-0.288,-0.932 0.235,-1.923 1.168,-2.21c0.932,-0.288 1.922,0.235 2.21,1.167c1.121,0.048 0.221,-0.646 1.134,0.021c0.84,0.613 0.767,1.965 1.213,2.973c0.941,2.131 2.096,4.308 3.431,6.502c1.029,0.58 1.71,1.641 1.809,2.818c3.921,5.816 9.004,11.655 14.634,16.959c8.166,7.691 17.46,14.297 26.186,17.734c-0.086,-0.945 -0.16,-1.884 -0.229,-2.817c-0.011,-0.145 -0.093,-0.303 -0.032,-0.435c0.345,-0.742 0.354,-0.268 1.014,-0.745c-0.083,-0.972 0.639,-1.829 1.611,-1.912c0.972,-0.083 1.829,0.639 1.912,1.611c0.726,0.354 0.658,-0.125 1.126,0.538c0.081,0.114 0.031,0.279 0.046,0.419c0.154,1.381 0.336,2.775 0.524,4.184c0.075,0.568 0.154,1.138 0.236,1.71c0.785,0.873 1.125,2.115 0.796,3.332c-0.052,0.192 -0.119,0.376 -0.199,0.551c0.466,2.828 1.003,5.696 1.611,8.59c0.764,0.88 1.085,2.116 0.746,3.321c-0.004,0.014 -0.008,0.027 -0.012,0.04c2.141,9.418 5.01,19.048 8.552,28.406c6.45,17.037 15.071,33.191 25.619,45.389c1.515,1.779 3.159,3.374 4.857,4.89c4.357,3.888 9.058,7.281 13.188,11.503c0.001,0.001 0.002,0.002 0.004,0.004c0.273,-0.733 0.546,-1.457 0.817,-2.172c0.9,-2.368 0.947,-5.226 2.669,-6.78c0.56,-0.506 0.577,-0.168 1.294,-0.372c0.347,-0.912 1.369,-1.37 2.281,-1.023c0.912,0.347 1.37,1.369 1.023,2.281c0.399,0.628 0.639,0.384 0.723,1.133c0.255,2.28 -1.562,4.436 -2.388,6.802c-5.671,16.238 -12.09,37.048 -14.191,57.41c0.033,0.42 -0.008,0.847 -0.124,1.258c-0.342,3.62 -0.544,7.221 -0.577,10.777c-0.145,15.439 2.82,30.031 11.801,41.162c0.354,-1.243 0.75,-2.481 1.19,-3.715c0.084,-0.236 0.055,-0.566 0.269,-0.697c0.099,-0.06 0.185,-0.115 0.259,-0.164c0.06,0.11 0.287,0.215 0.834,0.27c0.257,-0.941 1.23,-1.497 2.171,-1.24c0.941,0.256 1.497,1.229 1.24,2.17c0.586,0.298 0.771,0.234 0.807,0.107c0.042,0.098 0.101,0.227 0.185,0.393c0.301,0.598 -0.197,1.313 -0.314,1.968c-0.426,2.386 -0.78,4.745 -1.034,7.106c0.517,1.125 0.424,2.472 -0.302,3.526c-0.059,0.942 -0.1,1.887 -0.123,2.836c-0.043,1.868 -0.097,3.751 0.038,5.666c0.168,1.968 -1.294,3.704 -3.262,3.872c-0.618,0.053 -1.212,-0.054 -1.743,-0.287c-0.067,0.046 -0.136,0.091 -0.208,0.133c-8.874,5.257 -13.787,17.599 -16.509,31.413c-1.365,6.927 -2.122,14.248 -2.363,21.377c0.244,0.779 0.206,1.587 -0.06,2.308c-0.091,4.89 0.06,9.658 0.421,14.109c0.627,0.978 0.732,2.2 0.308,3.261c0.417,3.844 0.997,7.393 1.718,10.509c0.409,1.765 1.622,3.34 1.325,4.844c-0.164,0.833 -0.279,0.265 -0.813,0.899c0.352,0.91 -0.102,1.935 -1.012,2.286c-0.91,0.351 -1.934,-0.102 -2.286,-1.012c-0.846,-0.114 -0.546,0.334 -1.231,-0.21c-0.541,-0.43 -0.847,-1.063 -1.053,-1.793c-1.871,1.243 -3.561,3.265 -5.163,5.483c-3.636,5.034 -6.55,11.283 -8.498,15.013c-7.109,13.298 -14.298,26.064 -19.437,39.687c-1.743,4.619 -3.245,9.337 -4.422,14.215c0.498,0.447 0.875,1.039 1.061,1.733c0.492,1.841 -0.546,3.734 -2.333,4.324c-0.289,1.619 -0.541,3.257 -0.752,4.916c-0.097,0.762 0.179,1.669 -0.277,2.297c-0.494,0.681 -0.352,0.143 -1.12,0.493c-0.075,0.973 -0.925,1.702 -1.898,1.627c-0.973,-0.075 -1.702,-0.926 -1.627,-1.899c-0.713,-0.469 -0.645,0.069 -1.025,-0.694c-0.366,-0.736 0.106,-1.636 0.178,-2.447c0.071,-0.803 0.152,-1.603 0.242,-2.398c-15.498,5.242 -29.727,14.38 -41.923,25.785c-12.426,11.62 -22.7,25.634 -29.961,40.565c-0.743,1.528 -0.788,3.611 -2.157,4.597c-0.696,0.501 -0.358,0.025 -1.211,0.11c-0.372,0.902 -1.407,1.331 -2.309,0.959c-0.901,-0.373 -1.331,-1.408 -0.958,-2.309c-0.547,-0.668 -0.635,-0.102 -0.767,-0.956c-0.177,-1.145 0.448,-2.201 1.104,-3.25c-0.224,-0.026 -0.449,-0.073 -0.673,-0.143c-8.646,-2.727 -21.337,2.663 -33.878,10.497c-15.788,9.863 -31.144,24.12 -37.654,34.914c-0.913,1.514 -1.075,3.369 -2.191,4.272c-0.654,0.529 -0.387,-0.007 -1.189,0.146c-0.301,0.928 -1.298,1.438 -2.226,1.137c-0.928,-0.301 -1.438,-1.298 -1.137,-2.227c-0.591,-0.628 -0.627,-0.104 -0.806,-0.974c-0.353,-1.712 1.345,-3.455 2.388,-5.338c6.476,-11.687 22.369,-27.343 38.985,-37.984c14.544,-9.315 29.764,-14.458 39.862,-11.273c0.599,0.189 1.113,0.521 1.517,0.946c7.014,-14.241 16.773,-27.573 28.459,-38.764c13.708,-13.127 30.139,-23.235 47.949,-28.606c1.112,-5.682 2.679,-11.166 4.56,-16.524c4.923,-14.02 12.099,-27.15 19.124,-40.84c2.429,-4.617 6.292,-12.828 11.118,-18.444c2.282,-2.656 4.802,-4.749 7.437,-5.914c-0.17,-0.787 -0.331,-1.593 -0.486,-2.418c-8.863,8.434 -19.22,16.236 -30.151,23.555c-18.849,12.621 -39.401,23.817 -56.656,34.557c-37.569,23.252 -77.834,45.264 -119.234,64.628c-37.31,17.45 -75.522,32.797 -113.476,45.001c-3.221,1.036 -6.411,2.148 -9.653,3.049c1.245,5.299 2.493,10.691 3.552,15.91c0.95,4.686 1.743,9.238 2.271,13.465c3.345,-0.343 6.692,-0.583 10.042,-0.722c16.619,-0.691 33.319,1.22 50.192,5.346c0.221,0.054 0.433,0.128 0.632,0.219c6.507,-5.124 14.171,-9.1 22.305,-11.93c12.998,-4.522 27.245,-6.006 39.968,-4.821c1.967,0.188 3.412,1.937 3.225,3.904c-0.188,1.968 -1.938,3.412 -3.905,3.225c-11.783,-1.151 -24.936,0.333 -37.05,4.311c-10.906,3.581 -20.953,9.217 -28.376,17.127c-0.758,0.808 -1.15,2.164 -2.212,2.472c-1.067,0.31 -0.018,-0.028 -1.078,-0.362c-0.593,0.775 -1.704,0.922 -2.479,0.329c-0.774,-0.593 -0.922,-1.703 -0.329,-2.478c-0.605,-0.946 -0.64,0.142 -0.601,-0.98c0.042,-1.238 1.489,-1.979 2.294,-2.923c0.608,-0.712 1.235,-1.409 1.881,-2.09c-14.846,-3.345 -29.559,-4.773 -44.225,-4.367c-3.991,0.111 -7.978,0.363 -11.963,0.757c-0.358,0.166 -0.75,0.276 -1.165,0.316c-0.393,0.038 -0.777,0.011 -1.141,-0.072c-8.621,0.97 -17.24,2.606 -25.89,4.918c-0.213,0.296 -0.476,0.565 -0.786,0.792c-1,0.735 -2.257,0.872 -3.343,0.479c-1.041,0.488 -2.083,1.081 -3.139,0.799c-0.907,-0.242 -0.16,-0.181 -0.806,-0.865c-0.925,0.31 -1.927,-0.189 -2.237,-1.114c-0.311,-0.925 0.189,-1.928 1.114,-2.238c0.102,-0.939 -0.449,-0.439 0.136,-1.179c0.108,-0.137 0.23,-0.257 0.361,-0.361c-11.839,-14.179 -30.792,-26.818 -51.158,-35.665c-3.84,-1.668 -7.733,-3.2 -11.641,-4.578c-0.747,-0.019 -1.452,-0.274 -2.03,-0.701c-15.791,-5.343 -31.735,-8.123 -45.474,-7.167c-0.427,0.03 -0.855,0.104 -1.282,0.196c1.636,2.417 3.28,4.895 4.942,7.435c1.08,1.656 0.612,3.876 -1.043,4.955c-1.655,1.08 -3.876,0.612 -4.955,-1.043c-11.217,-17.261 -21.667,-31.443 -34.215,-43.527c-9.071,-8.738 -19.27,-16.33 -31.744,-23.187c-1.288,0.046 -2.507,-0.612 -3.178,-1.705c-1.904,-0.997 -3.861,-1.979 -5.873,-2.947c-1.48,-0.712 -3.551,-0.75 -4.518,-2.137c-0.496,-0.713 -0.019,-0.339 -0.087,-1.208c-0.896,-0.385 -1.313,-1.424 -0.929,-2.321c0.384,-0.897 1.424,-1.313 2.321,-0.929c0.679,-0.554 0.084,-0.635 0.948,-0.764c1.721,-0.256 3.194,1.309 4.74,1.991c0.281,0.124 0.562,0.249 0.842,0.374c-4.184,-12.299 -10.194,-23.457 -18.083,-32.925c-5.016,-6.019 -10.804,-11.335 -17.415,-15.812c-0.764,0.78 -1.875,1.203 -3.041,1.045c-1.958,-0.265 -3.332,-2.07 -3.067,-4.028c0.032,-0.242 0.064,-0.484 0.095,-0.727c-2.782,-1.558 -5.694,-2.981 -8.738,-4.261c-1.239,-0.521 -2.95,-0.425 -3.772,-1.518c-0.587,-0.781 -0.002,-0.19 -0.083,-1.165c-0.923,-0.313 -1.419,-1.318 -1.106,-2.242c0.313,-0.924 1.318,-1.419 2.242,-1.106c0.662,-0.731 -0.151,-0.608 0.8,-0.863c1.408,-0.378 2.76,0.898 4.102,1.401c2.467,0.924 4.856,1.944 7.169,3.055c0.915,-16.056 -2.008,-32.665 -7.071,-48.95c-6.913,-22.231 -17.943,-43.822 -29.377,-62.525c-1.182,-0.61 -1.92,-1.828 -1.937,-3.135c-0.973,-1.558 -1.947,-3.095 -2.921,-4.609c-1.445,-2.247 -3.903,-4.055 -4.295,-6.602c-0.111,-0.724 0.187,-0.632 0.388,-1.334c-0.555,-0.802 -0.356,-1.904 0.446,-2.46c0.802,-0.555 1.904,-0.356 2.46,0.446c0.731,0.058 0.75,-0.247 1.391,0.116c2.275,1.29 3.062,4.304 4.584,6.548c0.009,0.013 0.018,0.026 0.026,0.039Zm43.217,126.183c8.143,4.878 15.209,10.971 21.237,17.992c7.12,8.293 12.751,17.936 17.032,28.492c4.063,-1.305 8.716,-0.783 13.163,-1.387c41.671,-5.659 90.554,-15.826 141.561,-29.844c49.292,-13.546 100.589,-30.603 149.203,-50.818c-13.995,-37.634 -29.398,-74.393 -46.669,-109.974c-36.614,17.638 -75.844,34.198 -115.24,48.555c-0.169,0.11 -0.349,0.207 -0.541,0.289c-0.322,0.138 -0.652,0.226 -0.984,0.266c-10.09,3.662 -20.189,7.179 -30.256,10.531c-13.341,4.442 -26.623,8.602 -39.749,12.439c-0.291,0.219 -0.619,0.397 -0.981,0.522c-0.482,0.167 -0.976,0.225 -1.454,0.187c-34.921,10.118 -68.689,17.93 -99.452,22.685c-4.032,0.624 -8.033,2.112 -11.95,2.192c4.416,15.99 6.48,32.222 5.08,47.873Zm-6.965,-54.238c3.997,-1.312 8.57,-0.943 12.899,-1.663c29.769,-4.949 62.362,-12.726 96.098,-22.635c-4.154,-11.797 -8.701,-24.16 -13.365,-36.503c-5.092,-13.476 -10.325,-26.929 -15.463,-39.547c-3.192,-7.897 -6.569,-15.924 -10.137,-23.999c-17.061,6.169 -36.885,12.768 -56.333,18.381c-12.594,3.634 -25.023,6.873 -36.408,9.405c-0.481,0.107 -0.96,0.21 -1.437,0.312c-1.593,11.291 -3.911,22.174 -6.894,32.207c12.085,18.864 23.626,40.812 30.856,63.461c0.061,0.193 0.123,0.387 0.184,0.581Zm49.76,113.896c13.17,6.788 23.932,14.561 33.486,23.542c9.645,9.066 18.014,19.426 26.401,31.362c1.488,-0.325 3.263,-0.054 4.846,-0.206c13.165,-1.268 28.38,0.758 43.638,5.218c-1.039,-6.226 -2.133,-12.753 -3.2,-19.437c-3.088,-19.342 -6.378,-39.933 -10.055,-58.01c-0.408,-2.003 -0.805,-3.977 -1.208,-5.915c-30.121,6.576 -58.693,11.541 -84.509,14.746c-3.908,0.486 -7.792,1.78 -11.556,1.852c0.775,2.249 1.494,4.533 2.157,6.848Zm182.926,106.483c7.995,-2.42 16.01,-4.205 24.041,-5.386c-0.544,-4.047 -1.353,-8.403 -2.28,-12.894c-2.682,-13.005 -6.413,-27.106 -8.428,-38.174c-2.338,-13.215 -4.939,-26.398 -7.692,-39.295c-3.918,-18.359 -8.227,-36.115 -12.678,-52.529c-0.216,-0.797 -0.429,-1.591 -0.643,-2.382c-7.772,2.261 -15.515,4.433 -23.211,6.513c-17.802,4.811 -35.351,9.14 -52.433,12.959c1.953,7.614 3.798,15.803 5.509,24.259c4.242,20.969 7.749,43.544 10.927,62.807c3.721,1.284 7.425,2.706 11.081,4.251c22.657,9.578 43.455,24.012 55.807,39.871Zm24.028,-41.278c3.026,-1.045 6.107,-1.954 9.161,-2.97c37.586,-12.51 75.45,-27.99 112.418,-45.548c2.527,-1.2 5.049,-2.409 7.567,-3.628c-1.051,-2.304 -1.276,-4.958 -2,-7.41c-9.068,-30.679 -20.24,-61.35 -30.786,-90.228c-0.476,-1.309 -0.953,-2.617 -1.432,-3.924c-39.438,16.342 -80.594,30.714 -121.066,42.691c0.033,0.166 0.071,0.329 0.118,0.486c3.34,11.083 6.546,22.831 9.591,34.993c4.753,18.989 9.066,38.994 12.857,59.06c0.917,5.001 2.199,10.62 3.572,16.478Zm329.226,-173.981c-0.481,-4.568 -0.746,-9.452 -0.762,-14.461c-3.166,-8.029 -7.076,-15.979 -11.235,-23.926c-8.734,-16.689 -18.952,-33.17 -27.86,-49.221c-0.347,-0.625 -0.817,-1.219 -1.268,-1.818c-7.728,6.157 -15.799,12.171 -24.181,18.048c-24.7,17.319 -52.07,33.511 -81.231,48.751c-2.208,1.154 -4.221,3.038 -6.531,3.893c10.716,28.88 20.119,57.438 27.859,84.8c1.304,4.61 3.536,9.062 4.24,13.665c10.703,-6.228 21.233,-12.581 31.553,-19.032c17.2,-10.691 37.671,-21.855 56.475,-34.395c12.144,-8.099 23.595,-16.764 32.941,-26.304Zm-126.731,83.063c-2.337,-4.65 -2.65,-10.224 -4.157,-15.361c-14.84,-50.563 -35.24,-105.251 -59.013,-158.514c-25.986,-58.22 -55.921,-114.77 -87.147,-162.251c-1.132,0.736 -2.26,1.467 -3.381,2.194c-20.003,12.877 -40.643,25.6 -61.767,37.868c24.389,35.602 45.732,73.101 64.626,112.107c17.85,36.852 33.509,75.043 47.744,114.12c0.268,0.294 0.492,0.639 0.654,1.027c0.21,0.5 0.297,1.021 0.275,1.53c0.746,2.058 1.488,4.118 2.226,6.18c8.08,22.666 16.585,46.414 24.081,70.426c2.785,8.923 5.617,17.834 7.879,26.83c23.165,-11.36 45.924,-23.487 67.98,-36.156Zm149.572,-159.203c-0.027,-2.21 0.075,-4.393 0.317,-6.556c-12.944,-12.843 -17.553,-30.774 -17.214,-49.993c0.006,-0.357 0.014,-0.714 0.024,-1.072c-12.358,14.062 -26.469,27.468 -42.061,40.267c0.309,0.711 0.573,1.474 0.958,2.11c8.174,13.5 17.152,27.422 25.203,41.631c3.591,6.336 6.963,12.745 10.007,19.192c0.328,-2.993 0.758,-5.959 1.295,-8.858c2.99,-16.125 9.56,-30.107 19.897,-36.229c0.496,-0.294 1.035,-0.455 1.574,-0.492Zm-3.471,-119.693c-1.035,0.098 -2.105,-0.252 -2.891,-1.049c-4.053,-4.072 -8.676,-7.307 -12.94,-11.061c-1.958,-1.723 -3.842,-3.552 -5.588,-5.581c-10.93,-12.892 -19.945,-29.846 -26.438,-47.8c-2.479,-6.852 -4.603,-13.844 -6.343,-20.798c-7.3,13.555 -21.532,29.537 -38.11,45.126c-11.015,10.359 -23.032,20.583 -34.551,29.888c-0.131,0.147 -0.277,0.284 -0.436,0.41c-0.144,0.114 -0.294,0.216 -0.449,0.305c-18.199,14.662 -35.05,26.972 -44.592,33.825c-9.947,7.12 -21.089,14.152 -32.741,21.119c-6.362,3.803 -12.823,7.679 -19.414,11.379c7.468,15.253 14.69,30.773 21.607,46.422c10.044,22.724 19.456,45.716 28.066,68.546c2.405,-1.576 5.427,-2.361 7.961,-3.748c34.675,-18.99 66.843,-39.007 94.881,-60.653c22.858,-17.647 43.028,-36.289 59.481,-56.382c2.065,-17.4 7.217,-35.044 12.497,-49.948Zm-58.225,-106.742c-10.48,-3.308 -22.15,-11.03 -31.956,-20.603c-5.858,-5.718 -11.074,-12.064 -15.041,-18.384c-4.96,-0.926 -10.27,-0.965 -15.437,-1.582c-2.594,-0.31 -5.153,-0.758 -7.63,-1.469c-14.279,-4.244 -26.105,-12.557 -35.977,-23.044c-0.482,-0.512 -0.96,-1.03 -1.433,-1.552c-0.76,1.142 -1.568,2.302 -2.426,3.461c-2.513,3.395 -5.371,6.821 -8.158,10.063c-1.395,1.622 -2.772,3.189 -4.104,4.664c8.541,9.236 17.045,18.661 25.445,28.216c21.834,24.835 42.892,50.602 62.128,76.133c17.674,-17.154 32.166,-34.128 35.924,-47.408c0.013,-0.046 0.027,-0.091 0.041,-0.137c-0.527,-2.814 -0.987,-5.605 -1.376,-8.358Zm-123.499,-88.4c-10.427,3.645 -22.663,3.826 -35.416,1.584c10.797,10.876 21.693,22.198 32.548,33.841c3.376,-4.643 7.237,-9.868 10.701,-14.758c1.141,-1.61 2.272,-3.158 3.303,-4.65c-4.055,-5.072 -7.753,-10.473 -11.136,-16.017Zm-106.779,-30.19c-9.861,8.221 -21.209,12.27 -33.096,13.376c9.792,6.47 19.265,13.476 28.462,20.886c0.747,0.131 1.458,0.5 2.011,1.101c0.303,0.329 0.532,0.699 0.689,1.091c5.333,4.368 10.575,8.869 15.733,13.477c19.562,17.476 37.91,36.516 55.551,55.716c0.211,0.153 0.408,0.331 0.587,0.534c0.146,0.166 0.274,0.341 0.383,0.523c5.567,6.069 11.064,12.152 16.507,18.203c14.922,16.664 30.551,33.121 45.639,49.962c9.318,10.401 18.421,20.956 27.074,31.751c10.347,-8.562 21.023,-17.812 30.938,-27.147c-15.318,-20.381 -31.891,-40.851 -48.939,-61.016c-24.069,-28.469 -49.229,-56.206 -73.705,-81.785c-2.391,-2.5 -5.698,-4.366 -7.31,-7.337c-1.343,-0.365 -2.688,-0.753 -4.033,-1.164c-20.524,-6.257 -41.14,-17.398 -56.491,-28.171Zm-80.691,5.795c-9.177,12.99 -21.8,21.349 -36.075,26.041c-2.224,0.731 -4.487,1.374 -6.783,1.934c5.12,4.513 10.221,8.824 15.255,13.117c10.35,8.827 20.528,17.449 30.612,26.819c3.34,3.103 6.659,6.296 9.956,9.622c6.539,-4.846 13.009,-9.795 19.399,-14.857c7.305,-5.739 16.13,-12.586 24.767,-19.671c4.519,-3.706 8.988,-7.476 13.153,-11.188c-9.313,-7.58 -18.913,-14.742 -28.848,-21.354c-1.381,-0.92 -3.09,-1.473 -4.254,-2.626c-12.539,-0.486 -25.331,-3.647 -37.182,-7.837Zm-61.088,127.062c-3.53,-3.874 -7.217,-8.084 -10.743,-11.672c-12.599,-13.033 -26.065,-29.328 -40.244,-43.249c-5.764,-5.658 -11.611,-10.961 -17.655,-15.389c-2.421,0.471 -4.877,0.841 -7.354,1.121c-12.533,20.971 -26.122,37.073 -41.911,50.651c0.966,1.179 1.641,2.652 2.544,3.894c13.524,18.59 25.822,38.41 37.292,58.821c2.419,-1.762 5.618,-2.554 8.278,-4.016c23.538,-12.935 46.897,-26.191 69.793,-40.161Zm-75.055,49.592c13.461,24.38 25.778,49.53 37.622,74.391c1.822,-0.861 3.643,-1.73 5.464,-2.599c25.902,-12.359 51.511,-25.834 76.539,-40.032c5.513,-3.127 10.999,-6.288 16.454,-9.478c0.178,-0.195 0.381,-0.373 0.607,-0.53c0.382,-0.264 0.797,-0.443 1.224,-0.542c21.789,-12.784 43.083,-26.027 63.674,-39.464c15.755,-10.223 32.702,-21.482 49.205,-33.649c9.68,-7.138 19.214,-14.581 28.238,-22.345c-16.773,-18.407 -34.217,-36.617 -52.733,-53.458c-4.688,-4.264 -9.445,-8.439 -14.278,-12.506c-4.447,4.029 -9.256,8.137 -14.129,12.165c-8.652,7.153 -17.503,14.058 -24.824,19.848c-27.324,21.42 -56.007,40.861 -85.57,58.939c-26.531,16.225 -53.737,31.406 -81.261,45.987c-2.073,1.098 -4.152,2.186 -6.232,3.273Zm-86.185,-38.629c-0.027,0.705 -0.065,1.409 -0.116,2.112c-0.706,9.722 -3.254,19.206 -7.022,28.357c1.1,0.921 1.809,2.34 2.765,3.448c8.918,10.339 17.263,21.555 25.07,33.321c0.586,0.328 1.086,0.824 1.421,1.462c0.217,0.414 0.344,0.852 0.39,1.291c2.5,3.836 4.944,7.727 7.334,11.662c11.651,19.189 21.977,39.438 31.125,59.479c0.234,0.292 0.425,0.626 0.562,0.997c0.073,0.198 0.127,0.398 0.164,0.599c4.031,8.885 7.831,17.724 11.413,26.403c5.184,12.668 10.505,26.158 15.605,39.703c4.712,12.517 9.235,25.079 13.384,37.046c12.346,-3.714 24.829,-7.706 37.367,-11.94c9.063,-3.06 18.155,-6.245 27.246,-9.543c-5.549,-12.788 -11.544,-26.241 -17.79,-40.051c-6.412,-14.178 -13.086,-28.734 -19.901,-43.292c-16.005,-34.437 -32.557,-70.104 -51.313,-104.211c-11.251,-20.46 -23.308,-40.349 -36.536,-59.075c-0.799,-1.131 -1.847,-2.133 -2.648,-3.26c-11.566,9.337 -24.275,17.551 -38.52,25.492Zm-41.567,83.384c0.117,0.936 0.161,1.917 0.372,2.802c0.92,3.852 1.729,7.814 2.428,11.861c0.698,-0.409 1.4,-0.818 2.109,-1.225c12.043,-6.915 24.97,-14.237 37.57,-21.061c4.459,-2.414 8.903,-4.715 13.232,-6.95c-6.874,-10.486 -14.171,-20.531 -21.912,-29.912c-0.674,-0.817 -1.35,-1.629 -2.029,-2.437c-8.087,17.025 -20.157,32.76 -31.77,46.922Zm4.444,86.272c0.426,-0.054 0.846,-0.122 1.246,-0.227c16.628,-4.396 35.4,-10.053 53.604,-15.981c12.411,-4.041 24.58,-8.131 35.586,-12.117c-6.431,-14.181 -13.454,-28.444 -21.096,-42.35c-4.499,-8.186 -9.217,-16.245 -14.163,-24.088c-4.453,2.385 -9.015,4.879 -13.673,7.345c-12.651,6.698 -25.79,13.594 -38.125,19.941c-1.357,0.698 -2.709,1.376 -4.05,2.046c1.85,12.975 2.623,26.677 2.357,40.368c-0.163,8.414 -0.733,16.823 -1.686,25.063Zm322.68,4.839c-18.26,-36.981 -38.601,-72.66 -61.823,-106.559c-10.418,5.978 -20.949,11.84 -31.576,17.549c-20.423,10.973 -41.19,21.398 -62.17,31.013c-1.225,0.561 -2.382,1.372 -3.607,1.936c3.105,6.54 6.18,13.056 9.238,19.526c6.843,14.583 13.576,29.15 19.983,43.368c6.305,13.992 12.296,27.643 17.855,40.601c38.32,-14.137 76.471,-30.231 112.1,-47.434Zm78.828,-42.589c0.791,-0.397 1.634,-0.735 2.378,-1.185c17.238,-10.413 34.215,-20.714 48.576,-31.255c9.017,-6.581 24.61,-18.231 41.672,-32.114c-6.297,-7.787 -12.845,-15.434 -19.51,-23.013c-17.384,-19.767 -35.644,-39.007 -53.006,-58.471c-4.773,-5.378 -9.59,-10.778 -14.461,-16.171c-9.168,7.963 -18.85,15.616 -28.714,22.913c-13.383,9.9 -27.092,19.156 -40.221,27.76c22.026,33.553 43.483,71.565 63.286,111.536Zm44.552,-203.482c-1.115,0.212 0.006,0.338 -0,0Zm-485.068,100.978c-0.888,-0.66 -1.46,-1.72 -1.448,-2.91c0.238,-21.908 8.031,-42.972 20.591,-60.953c11.187,-16.015 26.085,-29.633 42.45,-39.245c0.579,-0.341 1.135,-0.787 1.694,-1.224c2.381,-17.086 9.842,-35.662 21.805,-48.526c10.503,-11.295 24.485,-18.188 41.441,-16.488c1.966,0.197 3.402,1.953 3.205,3.919c-0.197,1.966 -1.953,3.403 -3.919,3.206c-14.548,-1.457 -26.395,4.672 -35.506,14.269c-10.787,11.362 -17.761,27.567 -20.635,42.818c0.193,0.147 0.359,0.337 0.483,0.564c0.464,0.858 0.145,1.931 -0.713,2.396c-0.028,0.816 0.39,0.54 -0.03,1.241c-0.146,0.243 -0.321,0.456 -0.52,0.645c-0.123,0.923 -0.23,1.841 -0.322,2.751c-0.19,1.896 0.532,4.012 -0.399,5.577c-0.415,0.697 -0.389,0.206 -1.081,0.62c-0.001,0.975 -0.793,1.767 -1.769,1.766c-0.975,-0 -1.767,-0.793 -1.766,-1.768c-0.704,-0.422 -0.667,0.045 -1.075,-0.671c-0.754,-1.324 -0.329,-2.988 -0.038,-4.624c-14.455,9.475 -27.564,22.104 -37.556,36.744c-10.798,15.821 -18.005,33.96 -19.051,52.976c0.252,-0.278 0.504,-0.554 0.757,-0.829c1.821,-1.975 3.109,-4.822 5.574,-5.62c0.707,-0.229 0.644,0.068 1.377,0.168c0.707,-0.673 1.827,-0.645 2.499,0.061c0.673,0.706 0.646,1.826 -0.06,2.499c0.063,0.725 0.387,0.67 0.139,1.357c-0.834,2.317 -3.45,3.58 -5.141,5.495c-15.101,17.103 -27.719,41.063 -35.264,66.442c-8.114,27.291 -10.448,56.221 -3.182,79.915c0.669,-0.979 1.368,-1.953 2.097,-2.921c0.78,-1.036 1.185,-2.692 2.456,-3.072c1.011,-0.302 0.101,0.017 1.112,0.328c0.608,-0.763 1.721,-0.889 2.484,-0.281c0.763,0.607 0.89,1.72 0.282,2.484c0.526,0.909 0.644,-0.056 0.587,0.99c-0.068,1.239 -1.436,2.003 -2.122,3.002c-7.62,11.1 -11.538,22.56 -10.711,33.404c0.898,11.777 7.459,22.689 20.755,31.263c1.659,1.074 2.133,3.293 1.059,4.951c-1.074,1.659 -3.293,2.133 -4.952,1.059c-1.429,-0.93 -2.791,-1.884 -4.085,-2.862c-0.184,0.912 -0.414,1.831 -0.458,2.722c-1.009,20.723 2.195,41.537 9.365,60.949c7.062,19.119 17.914,36.891 32.437,51.718c0.018,-0.002 0.035,-0.003 0.054,-0.005c0.298,-0.929 1.294,-1.442 2.223,-1.144c0.929,0.298 1.441,1.294 1.143,2.223c0.736,0.644 0.611,-0.181 0.89,0.751c0.029,0.094 -0.053,0.19 -0.079,0.284c-0.152,0.547 -0.291,1.091 -0.421,1.631c0.466,0.441 0.936,0.878 1.409,1.313c1.454,1.338 1.548,3.605 0.209,5.059c-0.768,0.834 -1.842,1.221 -2.892,1.146c-0.825,9.336 1.359,17.716 5.54,25.208c8.682,15.559 25.764,27.283 42.581,35.089c0.035,0.017 0.07,0.034 0.104,0.051c0.043,-0.258 0.121,-0.509 0.242,-0.753c0.389,-0.782 0.282,-0.199 1.019,-0.673c-0.084,-0.972 0.636,-1.83 1.608,-1.914c0.972,-0.085 1.83,0.635 1.914,1.607c0.801,0.335 0.6,-0.236 1.121,0.454c1.01,1.336 0.435,3.29 0.695,4.887c2.945,18.074 10.738,31.722 22.109,42.35c12.447,11.634 29.047,19.703 48.019,25.802c0.528,0.17 0.989,0.452 1.366,0.812c-0.164,-0.248 -0.326,-0.495 -0.486,-0.74c-1.291,-1.981 -3.383,-3.644 -3.431,-5.716c-0.019,-0.792 0.216,-0.483 0.566,-1.178c-0.481,-0.849 -0.183,-1.928 0.666,-2.41c0.848,-0.481 1.928,-0.183 2.409,0.665c0.762,0.056 0.616,-0.333 1.282,0.069c1.67,1.009 2.182,3.413 3.452,5.239c10.055,14.452 27.81,32.938 46.376,41.518c13.913,6.43 28.316,7.208 39.856,-5.137c1.349,-1.443 3.617,-1.52 5.061,-0.171c1.443,1.35 1.52,3.617 0.17,5.061c-0.626,0.67 -1.258,1.309 -1.898,1.918c0.877,0.411 1.684,1.226 2.561,1.687c11.834,6.225 24.563,13.309 37.715,16.558c9.246,2.283 18.696,2.723 28.187,-0.744c-0.84,-0.847 -1.67,-1.71 -2.492,-2.586c-0.147,-0.157 -0.39,-0.263 -0.441,-0.473c-0.195,-0.796 0.108,-0.418 0.329,-1.209c-0.675,-0.704 -0.651,-1.824 0.053,-2.499c0.704,-0.675 1.824,-0.651 2.499,0.053c0.807,-0.204 0.39,-0.53 1.192,-0.311c0.29,0.079 0.426,0.423 0.639,0.633c3.167,3.135 6.432,6.084 10.008,8.636c2.55,1.82 5.261,3.435 8.229,4.74c11.229,4.974 31.075,6.581 50.244,4.663c18.949,-1.896 37.378,-7.113 45.669,-17.159c0.091,-0.11 0.187,-0.213 0.287,-0.309c-0.155,-0.014 -0.31,-0.027 -0.465,-0.04c-1.584,-0.136 -3.473,0.511 -4.754,-0.437c-0.726,-0.536 -0.112,-0.273 -0.454,-1.108c-0.974,-0.068 -1.709,-0.913 -1.641,-1.886c0.067,-0.973 0.912,-1.709 1.885,-1.641c0.455,-0.78 -0.189,-0.605 0.604,-1.035c1.4,-0.761 3.181,0.144 4.767,0.228c16.082,0.851 31.878,1.65 46.514,-1.934c10.373,-2.539 20.153,-7.279 28.983,-15.85c1.164,-1.112 2.255,-2.284 3.305,-3.489c4.592,-5.272 8.424,-11.152 13.397,-16.006c0.021,-0.021 0.042,-0.041 0.064,-0.061c-0.563,0.001 -1.115,-0.004 -1.655,-0.014c-2.268,-0.04 -4.67,0.662 -6.169,-0.414c-0.678,-0.486 -0.235,-0.411 -0.573,-1.145c-0.969,-0.112 -1.665,-0.989 -1.554,-1.959c0.112,-0.969 0.99,-1.665 1.959,-1.553c0.482,-0.619 -0.008,-0.672 0.73,-1.006c1.527,-0.691 3.555,0.147 5.615,0.116c14.488,-0.219 37.429,-4.31 56.143,-12.101c6.88,-2.865 13.177,-6.22 18.241,-10.072c5.758,-4.381 9.939,-9.342 11.042,-15.16c0.36,-1.943 2.229,-3.228 4.172,-2.869c1.943,0.36 3.229,2.229 2.869,4.172c-2.396,12.953 -16.126,23.532 -33.619,30.562c-17.046,6.852 -37.456,10.626 -52.437,11.324c0.081,0.069 0.16,0.142 0.236,0.219c1.386,1.408 1.369,3.677 -0.039,5.063c-4.797,4.765 -8.435,10.55 -12.868,15.709c-1.19,1.385 -2.436,2.726 -3.761,4.002c-9.954,9.424 -20.89,14.641 -32.491,17.272c-13.543,3.072 -27.987,2.671 -42.711,1.546c0.974,1.292 0.976,3.132 -0.099,4.434c-7.635,9.282 -22.773,15.496 -39.793,18.375c-23.434,3.963 -50.258,1.819 -64.264,-4.639c-4.179,-1.943 -7.909,-4.398 -11.347,-7.226c-0.372,-0.306 -0.741,-0.617 -1.107,-0.931c-0.372,0.86 -1.079,1.574 -2.024,1.93c-11.069,4.171 -22.128,3.947 -32.872,1.131c-13.66,-3.58 -26.822,-11.237 -38.844,-18.289c-1.221,-0.717 -2.98,-0.917 -3.611,-2.152c-0.448,-0.875 0.02,-0.193 0.109,-1.169c-0.085,-0.046 -0.164,-0.098 -0.237,-0.155c-12.782,9.369 -27.714,8.23 -42.15,1.396c-18.7,-8.853 -36.531,-27.41 -46.934,-42.653c0.294,0.745 0.341,1.592 0.076,2.413c-0.608,1.88 -2.628,2.913 -4.508,2.306c-20.036,-6.509 -37.611,-15.083 -50.619,-27.541c-11.978,-11.471 -20.237,-26.161 -22.984,-45.319c-1.036,1.043 -2.654,1.38 -4.06,0.722c-18.083,-8.526 -36.443,-21.375 -45.524,-38.305c-5.159,-9.616 -7.443,-20.539 -5.086,-32.612c-16.281,-16 -28.472,-35.405 -36.016,-56.454c-7.278,-20.311 -10.315,-42.131 -8.698,-63.702c0.161,-2.148 -0.586,-4.661 0.645,-6.432c0.191,-0.275 0.3,-0.359 0.417,-0.393c-9.195,-8.705 -13.815,-18.839 -14.453,-29.469c-0.541,-9.009 1.763,-18.441 6.663,-27.628c-0.861,-0.398 -1.564,-1.134 -1.891,-2.103c-8.564,-25.402 -6.557,-56.991 2.506,-86.61c6.908,-22.575 17.844,-44.013 30.968,-60.639Zm354.567,-234.621c12.997,-8.585 27.552,-12.679 42.038,-12.636c18.663,0.054 37.257,7.097 52.629,20.288c0.365,0.314 0.651,0.685 0.856,1.089c15.119,-4.147 29.775,-3.908 42.509,0.579c15.738,5.545 28.606,17.666 36.155,36.379c19.462,-5.335 35.935,-4.03 49.198,2.809c15.768,8.13 27.127,24.298 33.796,47.436c0.02,0.073 0.039,0.146 0.055,0.219c11.752,2.339 23.345,8.022 33.624,15.675c13.875,10.33 25.307,24.314 31.658,38.469c2.339,5.295 4.111,10.909 5.496,16.656c2.019,8.375 3.23,17.029 4.408,25.317c0.21,1.435 -0.465,2.796 -1.611,3.532c12.409,8.534 24.566,21.581 33.379,36.267c11.43,19.046 17.061,40.872 11.269,59.314c-0.382,1.212 -1.351,2.077 -2.496,2.382c3.584,4.663 6.073,9.15 7.81,13.637c3.169,8.19 3.809,16.485 3.475,26.232c-0.25,7.335 -1.105,15.528 -1.588,25.243c-0.091,1.974 -1.768,3.502 -3.742,3.411c-0.775,-0.036 -1.481,-0.316 -2.047,-0.762c4.077,13.873 8.478,30.403 7.888,45.783c-0.419,10.915 -3.391,21.241 -10.394,29.822c0.716,0.54 1.232,1.347 1.383,2.302c2.375,15.235 -2.132,35.033 -10.334,53.502c-5.957,13.412 -13.784,26.143 -21.971,35.904c1.888,0.384 3.143,2.204 2.814,4.115c-3.67,21 -9.556,42.935 -21.919,59.693c-6.219,8.432 -14.045,15.599 -23.958,20.689c0.049,0.402 0.029,0.819 -0.068,1.237c-3.802,16.174 -8.765,28.73 -17.153,37.556c-7.853,8.263 -18.639,13.489 -34.202,15.104c-1.201,0.125 -2.603,0.928 -3.69,0.286c-0.946,-0.559 -0.029,-0.037 -0.501,-1.035c-0.972,0.084 -1.829,-0.638 -1.913,-1.61c-0.083,-0.972 0.638,-1.829 1.61,-1.913c0.292,-1.058 -0.532,-0.39 0.294,-1.105c0.9,-0.778 2.329,-0.317 3.454,-0.486c13.642,-2.057 23.044,-6.607 29.843,-14.011c6.844,-7.453 11.081,-17.638 14.354,-30.561c-0.673,0.24 -1.355,0.471 -2.046,0.694c-0.11,0.035 -0.218,0.135 -0.33,0.106c-0.912,-0.23 -0.185,-0.167 -0.836,-0.851c-0.924,0.311 -1.928,-0.187 -2.239,-1.111c-0.311,-0.925 0.187,-1.928 1.111,-2.24c0.104,-0.926 -0.457,-0.439 0.112,-1.173c0.066,-0.085 0.201,-0.075 0.3,-0.113c1.01,-0.38 1.994,-0.788 2.965,-1.201c11.824,-5.032 20.638,-12.824 27.379,-22.264c11.067,-15.5 16.573,-35.356 19.983,-54.633c-1.091,1.227 -1.889,2.98 -3.386,3.278c-0.894,0.178 -0.29,-0.086 -1.138,-0.401c-0.71,0.67 -1.829,0.638 -2.499,-0.072c-0.67,-0.709 -0.638,-1.829 0.072,-2.498c-0.262,-0.855 -0.582,-0.26 -0.369,-1.134c0.353,-1.449 2.094,-2.19 3.151,-3.37c8.992,-10.042 17.842,-24.445 24.372,-39.674c7.169,-16.719 11.646,-34.41 9.844,-48.346c-1.039,0.097 -2.111,-0.257 -2.897,-1.059c-1.382,-1.412 -1.358,-3.681 0.054,-5.064c8.053,-7.886 11.042,-17.991 11.591,-28.684c0.768,-14.985 -3.333,-31.145 -6.726,-44.721c-0.385,-1.54 -1.556,-3.083 -1.091,-4.522c0.285,-0.881 0.208,-0.181 0.906,-0.781c-0.255,-0.942 0.304,-1.913 1.246,-2.167c0.942,-0.254 1.913,0.304 2.167,1.246c0.903,0.167 0.486,-0.401 1.175,0.216c0.124,0.111 0.232,0.233 0.326,0.365c0.88,-16.412 2.571,-28.335 0.725,-39.309c-1.677,-9.974 -6.498,-19.036 -17.766,-30.392c-0.847,-0.854 -2.354,-1.376 -2.629,-2.619c-0.226,-1.026 0.042,-0.086 0.418,-1.074c-0.723,-0.656 -0.777,-1.775 -0.121,-2.497c0.655,-0.722 1.774,-0.777 2.497,-0.121c0.972,-0.499 -0.052,-0.648 1.027,-0.519c0.091,0.011 0.138,0.12 0.208,0.18c0.708,0.611 1.399,1.213 2.065,1.818c2.516,2.29 4.752,4.514 6.74,6.69c5.049,-16.567 -0.543,-35.961 -10.59,-53.151c-9.107,-15.582 -21.984,-29.352 -34.826,-37.599c-1.467,-0.942 -3.513,-1.209 -4.377,-2.626c-0.439,-0.721 0.012,-0.379 -0.016,-1.217c-0.869,-0.442 -1.217,-1.507 -0.775,-2.377c0.441,-0.87 1.506,-1.217 2.376,-0.776c0.705,-0.48 0.18,-0.62 1.037,-0.676c1.302,-0.085 2.42,0.83 3.554,1.712c-1.152,-7.683 -2.385,-15.652 -4.276,-23.385c-1.299,-5.317 -2.904,-10.525 -5.065,-15.43c-5.736,-13.223 -16.281,-26.259 -29.012,-36.066c-11.482,-8.846 -24.748,-15.058 -38.025,-16.281c-1.224,-0.113 -2.459,-0.049 -3.67,-0.224c-0.13,-0.019 -0.262,-0.025 -0.367,-0.104c-0.586,-0.44 -0.181,-0.349 -0.564,-0.974c-0.976,0.013 -1.778,-0.77 -1.79,-1.745c-0.012,-0.976 0.77,-1.778 1.746,-1.79c0.375,-0.648 0.002,-0.529 0.6,-0.982c0.116,-0.087 0.266,-0.082 0.41,-0.101c1.349,-0.179 2.724,0.016 4.089,0.104c0.079,0.005 0.157,0.01 0.236,0.015c-6.048,-19.47 -15.781,-33.233 -29.318,-40.42c-12.626,-6.703 -28.447,-7.575 -47.586,-2.371c-1.582,0.43 -3.158,1.775 -4.818,1.387c-0.839,-0.196 -0.246,-0.247 -0.875,-0.84c-0.924,0.314 -1.929,-0.181 -2.242,-1.105c-0.314,-0.924 0.181,-1.929 1.105,-2.242c0.139,-0.86 -0.349,-0.539 0.206,-1.205c0.337,-0.403 0.764,-0.67 1.241,-0.859c-6.691,-16.106 -17.868,-26.554 -31.511,-31.569c-12.727,-4.678 -27.534,-4.619 -42.97,-0.122c-1.409,0.411 -2.789,1.653 -4.249,1.315c-0.898,-0.209 -0.177,-0.192 -0.837,-0.839c-0.915,0.338 -1.932,-0.131 -2.27,-1.046c-0.338,-0.915 0.131,-1.932 1.046,-2.27c0.082,-0.929 -0.44,-0.447 0.119,-1.189c0.257,-0.341 0.589,-0.58 0.966,-0.757c-13.498,-10.74 -29.455,-16.389 -45.496,-16.636c-15.313,-0.235 -30.675,4.497 -44.215,14.587c-1.267,0.944 -2.176,2.696 -3.768,2.948c-0.866,0.138 -0.294,-0.133 -1.112,-0.454c-0.731,0.646 -1.849,0.578 -2.496,-0.153c-0.646,-0.731 -0.577,-1.849 0.154,-2.495c-0.221,-0.862 -0.541,-0.333 -0.285,-1.182c0.466,-1.543 2.297,-2.195 3.616,-3.133c-21.095,-6.581 -42.962,-10.213 -63.296,-7.414c-18.707,2.575 -36.054,10.696 -50.39,27.272c-1.268,1.466 -1.918,3.758 -3.754,4.578c-0.719,0.322 -0.47,-0.049 -1.259,-0.102c-0.575,0.788 -1.682,0.961 -2.47,0.385c-0.788,-0.575 -0.961,-1.681 -0.386,-2.47c-0.314,-0.752 -0.565,-0.366 -0.472,-1.172c0.017,-0.148 0.173,-0.242 0.26,-0.363c0.88,-1.226 1.771,-2.418 2.685,-3.569c11.705,-14.74 25.796,-23.677 41.077,-28.383c25.505,-7.853 54.484,-3.732 82.047,5.006c0.939,0.3 1.668,0.952 2.089,1.764Zm-224.993,85.035c-0.305,0.927 -1.305,1.432 -2.232,1.127c-0.927,-0.305 -1.432,-1.305 -1.127,-2.232c-0.509,-0.616 -0.65,-0.212 -0.799,-1.001c-0.384,-2.022 1.322,-3.943 2.115,-5.929c7.079,-17.718 20.555,-36.16 37.234,-49.57c19.333,-15.544 42.994,-24.193 66.049,-18.108c1.91,0.507 3.049,2.469 2.543,4.379c-0.507,1.91 -2.469,3.049 -4.379,2.543c-20.903,-5.575 -42.181,2.729 -59.863,16.653c-15.941,12.554 -28.959,29.76 -36.125,46.37c-0.795,1.842 -0.751,4.194 -2.188,5.483c-0.588,0.528 -0.465,0.095 -1.228,0.285Z" />
    <text x="200px" y="540px" fill="url(#rainbow)" stroke="#000" stroke-width="5"
        style="font-family:'STIXTwoMath-Regular', 'STIX Two Math', serif;font-size:633.333px;">𝛑</text>
</svg>