<?xml version="1.0" encoding="UTF-8" standalone="no"?>
<!-- Created with Inkscape (http://www.inkscape.org/) -->

<svg
   xmlns:dc="http://purl.org/dc/elements/1.1/"
   xmlns:cc="http://creativecommons.org/ns#"
   xmlns:rdf="http://www.w3.org/1999/02/22-rdf-syntax-ns#"
   xmlns:svg="http://www.w3.org/2000/svg"
   xmlns="http://www.w3.org/2000/svg"
   xmlns:sodipodi="http://sodipodi.sourceforge.net/DTD/sodipodi-0.dtd"
   xmlns:inkscape="http://www.inkscape.org/namespaces/inkscape"
   version="1.1"
   id="svg2"
   xml:space="preserve"
   width="350"
   height="350"
   viewBox="0 0 350 350"
   sodipodi:docname="popper.svg"
   inkscape:version="0.92.5 (2060ec1f9f, 2020-04-08)"><metadata
     id="metadata8"><rdf:RDF><cc:Work
         rdf:about=""><dc:format>image/svg+xml</dc:format><dc:type
           rdf:resource="http://purl.org/dc/dcmitype/StillImage" /><dc:title></dc:title></cc:Work></rdf:RDF></metadata><defs
     id="defs6"><clipPath
       clipPathUnits="userSpaceOnUse"
       id="clipPath18"><path
         d="M 0,300 H 300 V 0 H 0 Z"
         id="path16"
         inkscape:connector-curvature="0" /></clipPath></defs><sodipodi:namedview
     pagecolor="#ffffff"
     bordercolor="#666666"
     borderopacity="1"
     objecttolerance="10"
     gridtolerance="10"
     guidetolerance="10"
     inkscape:pageopacity="0"
     inkscape:pageshadow="2"
     inkscape:window-width="1920"
     inkscape:window-height="1049"
     id="namedview4"
     showgrid="false"
     inkscape:zoom="1.18"
     inkscape:cx="68.684175"
     inkscape:cy="154.84331"
     inkscape:window-x="1920"
     inkscape:window-y="0"
     inkscape:window-maximized="1"
     inkscape:current-layer="g14"
     fit-margin-top="0"
     fit-margin-left="0"
     fit-margin-right="0"
     fit-margin-bottom="0" /><g
     id="g10"
     inkscape:groupmode="layer"
     inkscape:label="feedback"
     transform="matrix(1.3333333,0,0,-1.3333333,-49.407343,390.40987)"><g
       id="g12"><g
         id="g14"
         clip-path="url(#clipPath18)"><g
           id="g20"
           transform="rotate(30,-261.72971,479.13421)"><path
             d="m -81.236537,-56.744352 c -3.649077,42.743667 24.26342,56.43341244 13.373917,109.523685 2.695,1.165 0,0 14.742451,10.465417 20.348485,-41.774696 33.751232,-73.0728949 44.3522577,-116.157467 M -179.6554,-58.977633 c -0.0338,17.778557 19.20574,18.60991 13.78781,40.583347 70.172062,50.360868 51.75731,40.140355 88.573223,65.825752 4.965687,-49.6483761 -20.400341,-72.829023 -15.619334,-104.739585 m -112.002929,6.048579 c -2.59914,5.736621 15.74738,18.061709 27.83231,26.044171 6.117,-19.397 -21.27793,-15.950678 -14.41193,-35.095678 -6.57716,-1.563062 -9.01258,-2.632317 -13.42038,9.051507 M -28.39189,43.85944 C -38.793866,66.572433 -44.08436,77.014184 -52.969299,80.051475 -91.961012,51.901526 -168.35906,-7.3298148 -205.26177,-31.857748 c -20.03214,-12.322917 -15.30554,-22.024261 -13.65124,-26.99381 2.35567,-5.186909 10.95632,-11.950711 15.63469,-11.995994 197.920239,3.27757 165.085531,5.947423 207.7724286,6.461042 6.7551574,6.422347 -0.5558989,26.288072 -7.4860021,45.14176"
             style="fill:#424242;fill-opacity:1;fill-rule:nonzero;stroke:none"
             id="path22"
             inkscape:connector-curvature="0"
             sodipodi:nodetypes="ccccccccccccccccccc" /></g><g
           id="g24"
           transform="matrix(1.0825318,0.625,-0.625,1.0825318,170.07933,241.6899)"><path
             d="m -6.0129687,-8.7478796 c 4.179708,4.111826 23.2802207,23.3056766 27.4606357,27.4182096 2.831257,2.786001 -1.529472,7.152385 -4.364262,4.364264 -4.179709,-4.113241 -23.2809277,-23.30638556 -27.460636,-27.4182116 -2.83267,-2.786 1.5294713,-7.1537994 4.3642623,-4.364262"
             style="fill:#424242;fill-opacity:1;fill-rule:nonzero;stroke:none"
             id="path26"
             inkscape:connector-curvature="0"
             sodipodi:nodetypes="ccccc" /><path
             sodipodi:nodetypes="ccccc"
             inkscape:connector-curvature="0"
             id="path3761"
             style="fill:#424242;fill-opacity:1;fill-rule:nonzero;stroke:none"
             d="m 13.132736,-69.427933 c 5.863,-0.048 32.941202,0.018 38.805202,-0.03 3.972001,-0.032 3.976,6.139 2e-6,6.172 -5.864002,0.047 -32.942205,-0.018 -38.805205,0.03 -3.9729994,0.033 -3.9770007,-6.14 10e-7,-6.171999" /></g><g
           id="g28"
           transform="matrix(1.0825318,0.625,-0.625,1.0825318,204.70236,244.53581)"><path
             d="m -46.500001,21.000001 c 3.216,3.526 6.431,7.052 9.646,10.577 2.672,2.93 -1.68,7.307 -4.364,4.365 -3.216,-3.526 -6.43,-7.052 -9.646,-10.578 -2.671,-2.93 1.681,-7.307 4.364,-4.364"
             style="fill:#424242;fill-opacity:1;fill-rule:nonzero;stroke:none"
             id="path30"
             inkscape:connector-curvature="0"
             sodipodi:nodetypes="ccccc" /></g><g
           id="g32"
           transform="matrix(1.0825318,0.625,-0.625,1.0825318,240.23099,235.88416)"><path
             d="m -13.5,-51.000001 c -4.58,0.287 -9.171,0.258 -13.756,0.399 -3.973,0.123 -3.969,-6.049 0,-6.171 4.585,-0.142 9.176,-0.114 13.756,-0.4 3.9669997,-0.248 3.9519997,5.925 0,6.172"
             style="fill:#424242;fill-opacity:1;fill-rule:nonzero;stroke:none"
             id="path34"
             inkscape:connector-curvature="0"
             sodipodi:nodetypes="ccccc" /></g><g
           id="g36"
           transform="matrix(1.0825318,0.625,-0.625,1.0825318,232.64239,190.9495)"><path
             d="m -9.9500347,18.663052 c -3.9265643,-0.635689 -2.3242603,-6.600841 1.5662415,-5.971516 4.7856987,0.774989 15.6230163,1.110865 20.4624552,1.335724 3.959798,0.183848 3.976768,6.35689 -7.07e-4,6.172335 C 6.7096001,19.94928 -4.6424912,19.52148 -9.9500347,18.663052"
             style="fill:#424242;fill-opacity:1;fill-rule:nonzero;stroke:none"
             id="path38"
             inkscape:connector-curvature="0"
             sodipodi:nodetypes="ccccc" /><path
             sodipodi:nodetypes="ccccc"
             inkscape:connector-curvature="0"
             id="path3763"
             style="fill:#424242;fill-opacity:1;fill-rule:nonzero;stroke:none"
             d="m -20.44805,41.178299 c -3.08266,-2.513805 1.287552,-6.878626 4.342163,-4.388364 3.757042,3.06401 13.7783439,10.273546 17.8569913,12.887999 3.3373618,2.139116 0.2655373,7.493612 -3.0867797,5.345045 C -5.8596498,52.122022 -16.280797,44.575491 -20.44805,41.178299" /><path
             sodipodi:nodetypes="ccccc"
             inkscape:connector-curvature="0"
             id="path3996"
             style="fill:#424242;fill-opacity:1;fill-rule:nonzero;stroke:none"
             d="m 34.791497,38.557659 c -3.926565,-0.635689 -2.324261,-6.600841 1.566241,-5.971516 13.066341,-0.408911 19.084932,0.02538 30.352498,-11.016978 2.653218,-2.798308 6.58647,1.528835 3.604199,4.506208 -10.767533,9.094418 -10.59526,12.807386 -35.522938,12.482286" /><path
             d="m 44.467523,83.570502 c -0.635691,3.926565 -6.600843,2.324261 -5.971515,-1.56624 -0.408912,-13.06634 0.02538,-19.084933 -11.01698,-30.352498 -2.798308,-2.653218 1.528836,-6.586469 4.50621,-3.6042 9.094418,10.767534 12.807386,10.595261 12.482285,35.522938"
             style="fill:#424242;fill-opacity:1;fill-rule:nonzero;stroke:none"
             id="path3998"
             inkscape:connector-curvature="0"
             sodipodi:nodetypes="ccccc" /></g><g
           id="g40"
           transform="rotate(-60,196.55009,93.378628)"><g
             id="g49"><path
               sodipodi:nodetypes="csscc"
               inkscape:connector-curvature="0"
               id="path42"
               style="fill:#424242;fill-opacity:1;fill-rule:nonzero;stroke:none;stroke-width:1.25"
               d="m 97.904593,48.006712 c 4.577497,1.78 2.588057,9.242322 -2.05125,7.43875 l -15.523746,-6.035 c -4.577654,-1.779605 -2.58625,-9.2425 2.05125,-7.43875 z" /></g></g><g
           id="g44"
           transform="rotate(30,-78.316871,124.65273)"><g
             id="g52"><path
               inkscape:connector-curvature="0"
               id="path46"
               style="fill:#424242;fill-opacity:1;fill-rule:nonzero;stroke:none;stroke-width:1.25"
               d="m 96.401912,50.43002 c -2.52875,5.307499 -4.59375,10.767499 -6.27,16.403749 -1.4125,4.74625 -8.86,2.725 -7.44,-2.0525 1.865,-6.2675 4.235,-12.3425 7.0475,-18.244999 2.135,-4.48 8.78875,-0.57 6.6625,3.89375"
               sodipodi:nodetypes="ccccc" /><path
               sodipodi:nodetypes="ccccc"
               d="m 75.911531,-14.579601 c -2.52875,5.3074996 -4.59375,10.7674996 -6.27,16.4037495 -1.4125,4.74625 -8.86,2.7250001 -7.44,-2.05249992 1.865,-6.26749998 4.235,-12.34250058 7.0475,-18.24499958 2.135,-4.48 8.78875,-0.57 6.6625,3.89375"
               style="fill:#424242;fill-opacity:1;fill-rule:nonzero;stroke:none;stroke-width:1.25"
               id="path54"
               inkscape:connector-curvature="0" /><path
               inkscape:connector-curvature="0"
               id="path56"
               style="fill:#424242;fill-opacity:1;fill-rule:nonzero;stroke:none;stroke-width:1.25"
               d="m 91.112493,-13.829601 c -2.52875,5.3074996 -4.59375,10.7674996 -6.27,16.4037496 -1.4125,4.7462499 -8.86,2.725 -7.44,-2.05250002 1.865,-6.26749998 4.235,-12.34250058 7.0475,-18.24499958 2.135,-4.48 8.78875,-0.57 6.6625,3.89375"
               sodipodi:nodetypes="ccccc" /><path
               sodipodi:nodetypes="ccccc"
               d="m 179.86344,-13.108458 c -2.52875,5.3074997 -4.59375,10.7674997 -6.27,16.4037497 -1.4125,4.7462499 -8.86,2.725 -7.44,-2.0525 1.865,-6.2675 4.235,-12.3425007 7.0475,-18.2449997 2.135,-4.48 8.78875,-0.57 6.6625,3.89375"
               style="fill:#424242;fill-opacity:1;fill-rule:nonzero;stroke:none;stroke-width:1.25"
               id="path3976"
               inkscape:connector-curvature="0" /><path
               inkscape:connector-curvature="0"
               id="path3978"
               style="fill:#424242;fill-opacity:1;fill-rule:nonzero;stroke:none;stroke-width:1.25"
               d="m 164.66248,-13.858458 c -2.52875,5.3074998 -4.59375,10.7674998 -6.27,16.4037497 -1.4125,4.74625 -8.86,2.7250001 -7.44,-2.05249989 1.865,-6.26750001 4.235,-12.34250081 7.0475,-18.24499981 2.135,-4.48 8.78875,-0.57 6.6625,3.89375"
               sodipodi:nodetypes="ccccc" /></g></g><g
           id="g3911"
           transform="matrix(1.25,0,0,1.25,236.43788,288.54558)"><path
             d="m -25.500001,-18 c 4.48,0.18 5.164,-6.186 0.687,-7.002 -1.771,-0.323 -4.472,0.417 -4.609,2.391 -0.148,2.135 1.801,4.527 3.922,4.611 m 0.112305,-3.538204 c 5.098,0.315001 -0.005,-5.196999 0,0 0.005,5.189 5.117,0.204001 0,0 -5.569,-0.223999 0.366,5.478001 0,0 -0.393,-5.880999 -5.449,-0.338 0,0"
             style="fill:#424242;fill-opacity:1;fill-rule:nonzero;stroke:none"
             id="path3913"
             inkscape:connector-curvature="0"
             sodipodi:nodetypes="ccccccccc" /><path
             sodipodi:nodetypes="ccccccccc"
             inkscape:connector-curvature="0"
             id="path3945"
             style="fill:#424242;fill-opacity:1;fill-rule:nonzero;stroke:none"
             d="m -21.000001,-48.000001 c 4.48,0.18 5.164,-6.186 0.687,-7.002 -1.771,-0.323 -4.472,0.417 -4.609,2.391 -0.148,2.135 1.801,4.527 3.922,4.611 m 0.112305,-3.538203 c 5.098,0.315 -0.005,-5.197 0,0 0.005,5.189 5.117,0.204 0,0 -5.569,-0.224 0.366,5.478 0,0 -0.393,-5.881 -5.449,-0.338 0,0" /><path
             d="m 7.4999998,-46.500001 c 4.4800002,0.18 5.1640002,-6.186 0.687,-7.002 -1.771,-0.323 -4.472,0.417 -4.609,2.391 -0.148,2.135 1.801,4.527 3.922,4.611 m 0.112305,-3.538203 c 5.0980002,0.315 -0.005,-5.197 0,0 0.005,5.189 5.1170002,0.204 0,0 -5.569,-0.224 0.366,5.478 0,0 -0.393,-5.881 -5.449,-0.338 0,0"
             style="fill:#424242;fill-opacity:1;fill-rule:nonzero;stroke:none"
             id="path3947"
             inkscape:connector-curvature="0"
             sodipodi:nodetypes="ccccccccc" /><path
             sodipodi:nodetypes="ccccccccc"
             inkscape:connector-curvature="0"
             id="path3949"
             style="fill:#424242;fill-opacity:1;fill-rule:nonzero;stroke:none"
             d="m 37.500001,-84.000002 c 4.48,0.18 5.164,-6.186 0.687,-7.002 -1.771,-0.323 -4.472001,0.417 -4.609001,2.391 -0.148,2.135 1.801,4.527 3.922001,4.611 m 0.112305,-3.538203 c 5.098,0.315 -0.005,-5.197 0,0 0.005,5.189 5.117,0.204 0,0 -5.569001,-0.224 0.366,5.478 0,0 -0.393,-5.881 -5.449001,-0.338 0,0" /><path
             d="m -73.500002,-3 c 4.48,0.18 5.164,-6.186 0.687,-7.002 -1.771,-0.323 -4.472001,0.417 -4.609001,2.391 -0.148,2.135 1.801,4.527 3.922001,4.611 m 0.112305,-3.538203 c 5.098,0.315 -0.005,-5.197 0,0 0.005,5.189 5.117,0.204 0,0 -5.569001,-0.224 0.366,5.478 0,0 -0.393,-5.881 -5.449001,-0.338 0,0"
             style="fill:#424242;fill-opacity:1;fill-rule:nonzero;stroke:none"
             id="path3951"
             inkscape:connector-curvature="0"
             sodipodi:nodetypes="ccccccccc" /><path
             sodipodi:nodetypes="ccccccccc"
             inkscape:connector-curvature="0"
             id="path3953"
             style="fill:#424242;fill-opacity:1;fill-rule:nonzero;stroke:none"
             d="m -45.000002,4.5000008 c 4.48,0.18 5.164,-6.1860003 0.687,-7.0020004 -1.771,-0.3229999 -4.472,0.4170001 -4.609,2.39100007 -0.148,2.13500003 1.801,4.52700033 3.922,4.61100033 m 0.112305,-3.53820442 c 5.098,0.31500102 -0.005,-5.19699898 0,0 0.005,5.18900042 5.117,0.20400112 0,0 -5.569,-0.22399891 0.366,5.47800142 0,0 -0.393,-5.88099888 -5.449,-0.3379999 0,0" /><path
             d="m 33,-60.000001 c 4.48,0.18 5.164,-6.186 0.687,-7.002 -1.771,-0.323 -4.472,0.417 -4.609,2.391 -0.148,2.135 1.801,4.527 3.922,4.611 m 0.112305,-3.538204 c 5.098,0.315001 -0.005,-5.196999 0,0 0.005,5.189 5.117,0.204001 0,0 -5.569,-0.223999 0.366,5.478001 0,0 -0.393,-5.880999 -5.449,-0.338 0,0"
             style="fill:#424242;fill-opacity:1;fill-rule:nonzero;stroke:none"
             id="path3955"
             inkscape:connector-curvature="0"
             sodipodi:nodetypes="ccccccccc" /></g><path
           d="m 219.00424,285.56306 c -0.3361,0.91458 -1.39009,0.74079 -2.20528,0.76898 -1.2319,0.0426 -2.47356,-0.0851 -3.70245,-0.0197 -0.29402,1.0352 -0.54183,2.0841 -0.8229,3.12266 -0.2401,0.8879 -0.66376,1.89304 -1.69218,2.05893 -0.83774,0.13508 -1.31174,-0.3857 -1.58962,-1.1079 -0.5221,-1.35683 -0.82345,-2.76627 -1.40848,-4.10563 -1.37507,0.002 -2.7706,0.0255 -4.14134,-0.0505 -0.63709,-0.0355 -1.47069,-0.0885 -1.73671,-0.77029 -0.30248,-0.7748 0.18675,-1.37525 0.75976,-1.80942 0.47701,-0.36129 0.98427,-0.68481 1.4705,-1.03369 0.55385,-0.39735 1.33391,-0.81387 1.75832,-1.33279 0.41803,-0.51102 -0.22563,-1.5928 -0.43286,-2.16545 -0.22226,-0.61453 -0.48679,-1.23076 -0.6339,-1.86953 -0.1657,-0.71994 -0.22469,-1.81188 0.49956,-2.28288 0.72802,-0.47325 1.6937,0.42893 2.2515,0.82798 1.03012,0.73665 1.98208,1.57195 3.04847,2.2575 0.94293,-0.91119 1.93998,-1.76978 3.00918,-2.5303 0.62507,-0.4447 1.54152,-0.98014 2.29528,-0.4834 0.69362,0.45691 0.66037,1.38463 0.43436,2.08221 -0.41671,1.28601 -0.83341,2.56581 -1.23621,3.85801 1.05772,0.76146 2.10439,1.55241 3.13319,2.34976 0.71786,0.55648 1.29032,1.28713 0.94181,2.23552"
           style="fill:#464648;fill-opacity:1;fill-rule:nonzero;stroke:none;stroke-width:0.0187875"
           id="path106"
           inkscape:connector-curvature="0"
           sodipodi:nodetypes="ccccccccccccccccccccccc" /><path
           sodipodi:nodetypes="ccccccccccccccccccccccc"
           inkscape:connector-curvature="0"
           id="path3986"
           style="fill:#464648;fill-opacity:1;fill-rule:nonzero;stroke:none;stroke-width:0.0187875"
           d="m 278.62924,239.81306 c -0.3361,0.91458 -1.39009,0.74079 -2.20528,0.76898 -1.2319,0.0426 -2.47356,-0.0851 -3.70245,-0.0198 -0.29402,1.0352 -0.54183,2.0841 -0.8229,3.12266 -0.2401,0.8879 -0.66376,1.89304 -1.69218,2.05893 -0.83774,0.13508 -1.31174,-0.3857 -1.58962,-1.1079 -0.5221,-1.35683 -0.82345,-2.76627 -1.40848,-4.10563 -1.37507,0.002 -2.7706,0.0255 -4.14134,-0.0505 -0.63709,-0.0355 -1.47069,-0.0885 -1.73671,-0.77029 -0.30248,-0.7748 0.18675,-1.37525 0.75976,-1.80942 0.47701,-0.36129 0.98427,-0.68481 1.4705,-1.03369 0.55385,-0.39735 1.33391,-0.81387 1.75832,-1.33279 0.41803,-0.51102 -0.22563,-1.5928 -0.43286,-2.16545 -0.22226,-0.61453 -0.48679,-1.23076 -0.6339,-1.86953 -0.1657,-0.71994 -0.22469,-1.81188 0.49956,-2.28288 0.72802,-0.47325 1.6937,0.42893 2.2515,0.82798 1.03012,0.73665 1.98208,1.57195 3.04847,2.2575 0.94293,-0.91119 1.93998,-1.76978 3.00918,-2.5303 0.62507,-0.4447 1.54152,-0.98014 2.29528,-0.4834 0.69362,0.45691 0.66037,1.38463 0.43436,2.08221 -0.41671,1.28601 -0.83341,2.56581 -1.23621,3.85801 1.05772,0.76146 2.10439,1.55241 3.13319,2.34976 0.71786,0.55648 1.29032,1.28713 0.94181,2.23552" /><path
           sodipodi:nodetypes="ccccccccccccccccccccccc"
           inkscape:connector-curvature="0"
           id="path3988"
           style="fill:#464648;fill-opacity:1;fill-rule:nonzero;stroke:none;stroke-width:0.0187875"
           d="m 237.75424,248.81306 c -0.3361,0.91458 -1.39009,0.74079 -2.20528,0.76898 -1.2319,0.0426 -2.47356,-0.0851 -3.70245,-0.0198 -0.29402,1.0352 -0.54183,2.0841 -0.8229,3.12266 -0.2401,0.8879 -0.66376,1.89304 -1.69218,2.05893 -0.83774,0.13508 -1.31174,-0.3857 -1.58962,-1.1079 -0.5221,-1.35683 -0.82345,-2.76627 -1.40848,-4.10563 -1.37507,0.002 -2.7706,0.0255 -4.14134,-0.0505 -0.63709,-0.0355 -1.47069,-0.0885 -1.73671,-0.77029 -0.30248,-0.7748 0.18675,-1.37525 0.75976,-1.80942 0.47701,-0.36129 0.98427,-0.68481 1.4705,-1.03369 0.55385,-0.39735 1.33391,-0.81387 1.75832,-1.33279 0.41803,-0.51102 -0.22563,-1.5928 -0.43286,-2.16545 -0.22226,-0.61453 -0.48679,-1.23076 -0.6339,-1.86953 -0.1657,-0.71994 -0.22469,-1.81188 0.49956,-2.28288 0.72802,-0.47325 1.6937,0.42893 2.2515,0.82798 1.03012,0.73665 1.98208,1.57195 3.04847,2.2575 0.94293,-0.91119 1.93998,-1.76978 3.00918,-2.5303 0.62507,-0.4447 1.54152,-0.98014 2.29528,-0.4834 0.69362,0.45691 0.66037,1.38463 0.43436,2.08221 -0.41671,1.28601 -0.83341,2.56581 -1.23621,3.85801 1.05772,0.76146 2.10439,1.55241 3.13319,2.34976 0.71786,0.55648 1.29032,1.28713 0.94181,2.23552" /><path
           d="m 266.25424,283.31306 c -0.3361,0.91458 -1.39009,0.74079 -2.20528,0.76898 -1.2319,0.0426 -2.47356,-0.0851 -3.70245,-0.0198 -0.29402,1.0352 -0.54183,2.0841 -0.8229,3.12266 -0.2401,0.8879 -0.66376,1.89304 -1.69218,2.05893 -0.83774,0.13508 -1.31174,-0.3857 -1.58962,-1.1079 -0.5221,-1.35683 -0.82345,-2.76627 -1.40848,-4.10563 -1.37507,0.002 -2.7706,0.0255 -4.14134,-0.0505 -0.63709,-0.0355 -1.47069,-0.0885 -1.73671,-0.77029 -0.30248,-0.7748 0.18675,-1.37525 0.75976,-1.80942 0.47701,-0.36129 0.98427,-0.68481 1.4705,-1.03369 0.55385,-0.39735 1.33391,-0.81387 1.75832,-1.33279 0.41803,-0.51102 -0.22563,-1.5928 -0.43286,-2.16545 -0.22226,-0.61453 -0.48679,-1.23076 -0.6339,-1.86953 -0.1657,-0.71994 -0.22469,-1.81188 0.49956,-2.28288 0.72802,-0.47325 1.6937,0.42893 2.2515,0.82798 1.03012,0.73665 1.98208,1.57195 3.04847,2.2575 0.94293,-0.91119 1.93998,-1.76978 3.00918,-2.5303 0.62507,-0.4447 1.54152,-0.98014 2.29528,-0.4834 0.69362,0.45691 0.66037,1.38463 0.43436,2.08221 -0.41671,1.28601 -0.83341,2.56581 -1.23621,3.85801 1.05772,0.76146 2.10439,1.55241 3.13319,2.34976 0.71786,0.55648 1.29032,1.28713 0.94181,2.23552"
           style="fill:#464648;fill-opacity:1;fill-rule:nonzero;stroke:none;stroke-width:0.0187875"
           id="path4000"
           inkscape:connector-curvature="0"
           sodipodi:nodetypes="ccccccccccccccccccccccc" /></g></g></g></svg>