<svg xmlns="http://www.w3.org/2000/svg" xmlns:xlink="http://www.w3.org/1999/xlink" version="1.1" x="0px" y="0px" viewBox="0 0 100 125" enable-background="new 0 0 100 100" xml:space="preserve"><path d="M22.9,37.6c-2.2-2.1-3.9-3.8-3.9-7.3V18.1c0-1.2-0.8-2.1-2-2.1s-2,1-2,2.1v12.2c0,3.5-2,5.2-4.2,7.3C8.3,40,5,43,5,49.2  c0,6.8,3.3,9.9,5.9,12.3c2.2,2.1,4.1,3.8,4.1,7.6v12c0,1.2,0.8,2.1,2,2.1s2-1,2-2.1v-12c0-3.8,1.7-5.5,3.9-7.6  c2.6-2.5,5.7-5.6,5.7-12.3C28.6,43,25.4,40,22.9,37.6z M16.2,54.9c-2.7,0-4.8-2.2-4.8-4.8s2.2-4.8,4.8-4.8s4.8,2.2,4.8,4.8  S18.9,54.9,16.2,54.9z"/><path d="M55.9,56C53.5,54,52,52.8,52,50.2V40c0-1.2-0.8-2.1-2-2.1s-2,1-2,2.1v10.2c0,2.6-1.4,3.8-3.9,5.8c-2.6,2.1-5.9,4.7-5.9,10.1  c0,6,3.3,8.6,5.9,10.7c2.2,1.8,3.8,3.1,3.8,6.1v9.9c0,1.2,0.8,2.1,2,2.1s2-1,2-2.1v-9.9c0-3,1.7-4.3,3.9-6.1  c2.6-2.1,5.9-4.8,5.9-10.7C61.8,60.6,58.5,58.1,55.9,56z M50.6,71.1c-2.7,0-4.8-2.2-4.8-4.8c0-2.7,2.2-4.8,4.8-4.8  c2.7,0,4.8,2.2,4.8,4.8C55.4,68.9,53.3,71.1,50.6,71.1z"/><path d="M89.3,30.3c-2.3-2.5-4.3-4.5-4.3-8.8V7.2c0-1.2-0.8-2.1-2-2.1c-1.2,0-2,1-2,2.1v14.3c0,4.3-1.7,6.3-4,8.8  c-2.6,2.9-5.5,6.1-5.5,13.1c0,7.6,2.9,11,5.6,13.9c2.3,2.5,4,4.5,4,9.2v14c0,1.2,0.8,2.1,2,2.1c1.2,0,2-1,2-2.1v-14  c0-4.7,2-6.7,4.3-9.2c2.6-3,5.6-6.3,5.6-13.9C94.9,36.4,92,33.1,89.3,30.3z M83.9,48.5c-2.7,0-4.8-2.2-4.8-4.8s2.2-4.8,4.8-4.8  c2.7,0,4.8,2.2,4.8,4.8S86.6,48.5,83.9,48.5z"/><text x="0" y="115" fill="#000000" font-size="5px" font-weight="bold" font-family="'Helvetica Neue', Helvetica, Arial-Unicode, Arial, Sans-serif">Created by Kirby Wu</text><text x="0" y="120" fill="#000000" font-size="5px" font-weight="bold" font-family="'Helvetica Neue', Helvetica, Arial-Unicode, Arial, Sans-serif">from the Noun Project</text></svg>