<svg version="1.1" id="Laag_1" xmlns="http://www.w3.org/2000/svg" x="0" y="0" width="100" height="52" viewBox="0 0 100 52" xml:space="preserve"><path id="a_1_" d="M92.4 31.4c4.2 0 7.6 3.5 7.6 7.8v5c0 4.3-3.4 7.8-7.6 7.8H80.9c-4.2 0-7.6-3.5-7.6-7.8v-3.1c0-5.4-4.3-9.7-9.5-9.7H9.5c-5.3 0-9.5-4.3-9.5-9.7v-12C0 4.3 4.3 0 9.5 0h54.3c5.3 0 9.5 4.3 9.5 9.7v12c0 5.4 4.3 9.7 9.5 9.7h9.6z"/><path d="M60.6 17.8c1 0 1.5-.5 1.5-1.5s-.5-1.6-1.5-1.6h-3.8v-3h6c1 0 1.5-.5 1.5-1.6 0-1-.5-1.5-1.5-1.5h-7.6c-1 0-1.6.5-1.6 1.6v11c0 1.1.5 1.6 1.6 1.6 1 0 1.6-.5 1.6-1.6v-3.5c0 .1 3.8.1 3.8.1zm-12.5-.3c1.4-.7 2.2-2.1 2.2-3.9 0-2.9-2.1-5-5.1-5h-4.5c-1 0-1.6.5-1.6 1.6v11c0 1.1.5 1.6 1.6 1.6 1 0 1.6-.5 1.6-1.6v-2.9H45l1.6 3.4c.3.7.7 1 1.3 1 .8 0 1.8-.6 1.8-1.5 0-.3-.1-.6-.2-.9l-1.4-2.8zm-3.3-2h-2.7v-3.8h2.7c1.2 0 2.2.6 2.2 1.9 0 1.3-1 1.9-2.2 1.9zm-12.7.8c0 2.2-1.3 3.5-3.1 3.5s-3.1-1.3-3.1-3.5v-6.2c0-1.1-.5-1.6-1.6-1.6-1 0-1.6.5-1.6 1.6v6.2c0 4.1 2.7 6.7 6.3 6.7 3.6 0 6.3-2.6 6.3-6.7v-6.2c0-1.1-.5-1.6-1.6-1.6-1 0-1.6.5-1.6 1.6v6.2zM14.2 20c-1.2 0-2.1-.3-2.7-.5-.5-.2-.9-.3-1.4-.3-.9 0-1.4.6-1.4 1.5 0 1.5 3 2.3 5.6 2.3 3.1 0 5.5-1.7 5.5-4.3 0-2.4-1.6-3.5-3.3-4.1l-2.6-.8c-1.1-.3-1.6-.6-1.6-1.3 0-.7 1.1-1.1 2-1.1 1.1 0 1.9.3 2.5.5.4.1.8.3 1.3.3.8 0 1.3-.6 1.3-1.5 0-1.5-2.7-2.3-5.1-2.3-3 0-5.2 1.7-5.2 4.2 0 2.1 1.5 3.3 3.1 3.8l2.3.7c1.2.4 2.1.7 2.1 1.4-.2 1-1.4 1.5-2.4 1.5z" fill="#fff"/></svg>